STARTFONT 2.1
FONT -FontForge-Bungee Shade-Book-R-Normal--9-90-72-72-P-77-ISO10646-1
SIZE 9 72 72
FONTBOUNDINGBOX 22 24 -5 -9
COMMENT "Generated by fontforge, http://fontforge.sourceforge.net"
COMMENT "Copyright 2008 The Bungee Project Authors (david@djr.com)"
STARTPROPERTIES 39
FOUNDRY "FontForge"
FAMILY_NAME "Bungee Shade"
WEIGHT_NAME "Book"
SLANT "R"
SETWIDTH_NAME "Normal"
ADD_STYLE_NAME ""
PIXEL_SIZE 9
POINT_SIZE 90
RESOLUTION_X 72
RESOLUTION_Y 72
SPACING "P"
AVERAGE_WIDTH 77
CHARSET_REGISTRY "ISO10646"
CHARSET_ENCODING "1"
FONTNAME_REGISTRY ""
CHARSET_COLLECTIONS "ISO8859-2 ISO8859-9 ISO8859-4 ISO10646-1"
FONT_NAME "BungeeShade-Regular"
FACE_NAME "Bungee Shade"
COPYRIGHT "Copyright 2008 The Bungee Project Authors (david@djr.com)"
FONT_VERSION "1.000;PS 1.0;hotconv 1.0.72;makeotf.lib2.5.5900"
FONT_ASCENT 8
FONT_DESCENT 1
UNDERLINE_POSITION 0
UNDERLINE_THICKNESS 0
X_HEIGHT 6
CAP_HEIGHT 6
RAW_ASCENT 860
RAW_DESCENT 140
NORM_SPACE 3
RELATIVE_WEIGHT 40
RELATIVE_SETWIDTH 50
SUPERSCRIPT_X 0
SUPERSCRIPT_Y 3
SUPERSCRIPT_SIZE 5
SUBSCRIPT_X 0
SUBSCRIPT_Y 0
SUBSCRIPT_SIZE 5
AVG_LOWERCASE_WIDTH 74
AVG_UPPERCASE_WIDTH 75
ENDPROPERTIES
CHARS 1065
STARTCHAR space
ENCODING 32
SWIDTH 325 0
DWIDTH 3 0
BBX 1 1 0 0
BITMAP
00
ENDCHAR
STARTCHAR exclam
ENCODING 33
SWIDTH 524 0
DWIDTH 5 0
BBX 3 8 1 -1
BITMAP
E0
E0
E0
E0
E0
E0
A0
C0
ENDCHAR
STARTCHAR quotedbl
ENCODING 34
SWIDTH 746 0
DWIDTH 7 0
BBX 7 5 0 2
BITMAP
7E
B6
F4
D2
FC
ENDCHAR
STARTCHAR numbersign
ENCODING 35
SWIDTH 850 0
DWIDTH 8 0
BBX 8 8 0 -1
BITMAP
3E
7A
FF
DA
BD
A5
DA
7C
ENDCHAR
STARTCHAR dollar
ENCODING 36
SWIDTH 750 0
DWIDTH 7 0
BBX 7 10 0 -2
BITMAP
18
6E
5A
EC
E2
FE
46
FA
E4
38
ENDCHAR
STARTCHAR percent
ENCODING 37
SWIDTH 1131 0
DWIDTH 10 0
BBX 10 8 0 -1
BITMAP
7F00
BA00
BF80
DEC0
EFC0
1740
16C0
1B80
ENDCHAR
STARTCHAR ampersand
ENCODING 38
SWIDTH 866 0
DWIDTH 8 0
BBX 8 8 0 -1
BITMAP
3C
5C
68
77
BB
A2
DE
7C
ENDCHAR
STARTCHAR quotesingle
ENCODING 39
SWIDTH 456 0
DWIDTH 4 0
BBX 4 5 0 2
BITMAP
70
F0
F0
D0
E0
ENDCHAR
STARTCHAR parenleft
ENCODING 40
SWIDTH 529 0
DWIDTH 5 0
BBX 5 9 0 -1
BITMAP
10
68
B0
B0
B0
B0
A8
D8
70
ENDCHAR
STARTCHAR parenright
ENCODING 41
SWIDTH 529 0
DWIDTH 5 0
BBX 5 9 0 -1
BITMAP
60
90
D8
58
58
58
58
A8
F0
ENDCHAR
STARTCHAR asterisk
ENCODING 42
SWIDTH 818 0
DWIDTH 7 0
BBX 7 7 0 0
BITMAP
1C
76
56
FC
4A
7C
28
ENDCHAR
STARTCHAR plus
ENCODING 43
SWIDTH 834 0
DWIDTH 8 0
BBX 7 7 0 0
BITMAP
18
28
2E
7E
EE
24
38
ENDCHAR
STARTCHAR comma
ENCODING 44
SWIDTH 484 0
DWIDTH 4 0
BBX 4 5 0 -2
BITMAP
30
F0
F0
F0
E0
ENDCHAR
STARTCHAR hyphen
ENCODING 45
SWIDTH 520 0
DWIDTH 5 0
BBX 5 3 0 1
BITMAP
70
B8
F0
ENDCHAR
STARTCHAR period
ENCODING 46
SWIDTH 484 0
DWIDTH 4 0
BBX 4 4 0 -1
BITMAP
30
F0
D0
E0
ENDCHAR
STARTCHAR slash
ENCODING 47
SWIDTH 487 0
DWIDTH 4 0
BBX 4 10 0 -2
BITMAP
30
50
50
70
70
70
F0
A0
90
E0
ENDCHAR
STARTCHAR zero
ENCODING 48
SWIDTH 827 0
DWIDTH 7 0
BBX 7 8 0 -1
BITMAP
3E
66
EA
EA
EA
E6
DA
7C
ENDCHAR
STARTCHAR one
ENCODING 49
SWIDTH 701 0
DWIDTH 6 0
BBX 6 8 0 -1
BITMAP
78
F8
F8
78
38
74
BC
F8
ENDCHAR
STARTCHAR two
ENCODING 50
SWIDTH 739 0
DWIDTH 7 0
BBX 6 8 0 -1
BITMAP
7C
DC
F4
4C
B4
BC
BC
FC
ENDCHAR
STARTCHAR three
ENCODING 51
SWIDTH 737 0
DWIDTH 7 0
BBX 6 8 0 -1
BITMAP
7C
B4
FC
5C
74
44
BC
F8
ENDCHAR
STARTCHAR four
ENCODING 52
SWIDTH 809 0
DWIDTH 7 0
BBX 7 8 0 -1
BITMAP
7E
EE
EE
E6
DE
7E
0A
0C
ENDCHAR
STARTCHAR five
ENCODING 53
SWIDTH 747 0
DWIDTH 7 0
BBX 7 8 0 -1
BITMAP
7E
DA
EC
DA
F6
46
FE
F8
ENDCHAR
STARTCHAR six
ENCODING 54
SWIDTH 793 0
DWIDTH 7 0
BBX 7 8 0 -1
BITMAP
3E
62
EC
DA
EE
E6
DA
7C
ENDCHAR
STARTCHAR seven
ENCODING 55
SWIDTH 727 0
DWIDTH 7 0
BBX 6 8 0 -1
BITMAP
7C
BC
F4
2C
54
58
48
70
ENDCHAR
STARTCHAR eight
ENCODING 56
SWIDTH 811 0
DWIDTH 7 0
BBX 7 8 0 -1
BITMAP
3E
6E
62
5E
BA
A2
DE
7C
ENDCHAR
STARTCHAR nine
ENCODING 57
SWIDTH 793 0
DWIDTH 7 0
BBX 7 8 0 -1
BITMAP
3E
66
BE
DE
FE
46
5E
78
ENDCHAR
STARTCHAR colon
ENCODING 58
SWIDTH 484 0
DWIDTH 4 0
BBX 4 8 0 -1
BITMAP
30
50
F0
D0
F0
F0
D0
E0
ENDCHAR
STARTCHAR semicolon
ENCODING 59
SWIDTH 484 0
DWIDTH 4 0
BBX 4 8 0 -2
BITMAP
30
F0
D0
F0
F0
F0
F0
E0
ENDCHAR
STARTCHAR less
ENCODING 60
SWIDTH 814 0
DWIDTH 7 0
BBX 7 7 0 -1
BITMAP
3E
5E
6C
F2
6E
3E
04
ENDCHAR
STARTCHAR equal
ENCODING 61
SWIDTH 834 0
DWIDTH 8 0
BBX 7 6 0 0
BITMAP
3E
7E
FE
42
FE
FC
ENDCHAR
STARTCHAR greater
ENCODING 62
SWIDTH 814 0
DWIDTH 7 0
BBX 6 7 1 -1
BITMAP
F0
AC
FC
4C
B8
F0
80
ENDCHAR
STARTCHAR question
ENCODING 63
SWIDTH 756 0
DWIDTH 7 0
BBX 7 8 0 -1
BITMAP
7E
BA
F6
5A
6C
58
48
70
ENDCHAR
STARTCHAR at
ENCODING 64
SWIDTH 967 0
DWIDTH 9 0
BBX 8 10 0 -2
BITMAP
2C
5F
6D
EB
EB
F3
FF
EE
DE
7C
ENDCHAR
STARTCHAR A
ENCODING 65
SWIDTH 830 0
DWIDTH 7 0
BBX 7 8 0 -1
BITMAP
3E
4A
5E
6A
FE
FA
DA
EC
ENDCHAR
STARTCHAR B
ENCODING 66
SWIDTH 825 0
DWIDTH 7 0
BBX 7 8 0 -1
BITMAP
7E
DA
EE
DE
EA
E2
DE
FC
ENDCHAR
STARTCHAR C
ENCODING 67
SWIDTH 728 0
DWIDTH 7 0
BBX 6 8 0 -1
BITMAP
3C
5C
EC
F0
F0
EC
DC
7C
ENDCHAR
STARTCHAR D
ENCODING 68
SWIDTH 846 0
DWIDTH 8 0
BBX 7 8 0 -1
BITMAP
7E
DE
EA
EA
EA
EA
DE
FC
ENDCHAR
STARTCHAR E
ENCODING 69
SWIDTH 754 0
DWIDTH 7 0
BBX 7 8 0 -1
BITMAP
7E
DE
EC
DC
E4
EC
DE
FC
ENDCHAR
STARTCHAR F
ENCODING 70
SWIDTH 718 0
DWIDTH 6 0
BBX 6 8 0 -1
BITMAP
7C
DC
EC
DC
E4
E8
D0
E0
ENDCHAR
STARTCHAR G
ENCODING 71
SWIDTH 808 0
DWIDTH 7 0
BBX 7 8 0 -1
BITMAP
3E
5C
EC
F6
EE
EE
DE
7C
ENDCHAR
STARTCHAR H
ENCODING 72
SWIDTH 859 0
DWIDTH 8 0
BBX 7 8 0 -1
BITMAP
7E
EA
EA
DE
EA
EA
DA
EE
ENDCHAR
STARTCHAR I
ENCODING 73
SWIDTH 705 0
DWIDTH 6 0
BBX 6 8 0 -1
BITMAP
7C
FC
F4
78
78
74
FC
F8
ENDCHAR
STARTCHAR J
ENCODING 74
SWIDTH 788 0
DWIDTH 7 0
BBX 7 8 0 -1
BITMAP
0E
1E
1E
7E
BE
9A
C6
78
ENDCHAR
STARTCHAR K
ENCODING 75
SWIDTH 846 0
DWIDTH 8 0
BBX 7 8 0 -1
BITMAP
7E
EE
F4
DE
EA
EA
DA
EC
ENDCHAR
STARTCHAR L
ENCODING 76
SWIDTH 795 0
DWIDTH 7 0
BBX 7 8 0 -1
BITMAP
70
F0
F0
F6
EE
EE
DE
FC
ENDCHAR
STARTCHAR M
ENCODING 77
SWIDTH 949 0
DWIDTH 9 0
BBX 8 8 0 -1
BITMAP
77
EB
F7
FF
F7
EF
D5
E6
ENDCHAR
STARTCHAR N
ENCODING 78
SWIDTH 853 0
DWIDTH 8 0
BBX 7 8 0 -1
BITMAP
7E
EA
F6
FA
EE
EA
DA
EC
ENDCHAR
STARTCHAR O
ENCODING 79
SWIDTH 837 0
DWIDTH 8 0
BBX 7 8 0 -1
BITMAP
3E
62
EA
EA
EA
E2
DE
7C
ENDCHAR
STARTCHAR P
ENCODING 80
SWIDTH 782 0
DWIDTH 7 0
BBX 7 8 0 -1
BITMAP
7E
DA
EE
E6
DA
EC
D0
E0
ENDCHAR
STARTCHAR Q
ENCODING 81
SWIDTH 837 0
DWIDTH 8 0
BBX 7 9 0 -2
BITMAP
3E
62
EA
EA
EA
E2
DE
64
38
ENDCHAR
STARTCHAR R
ENCODING 82
SWIDTH 843 0
DWIDTH 8 0
BBX 7 8 0 -1
BITMAP
7E
DA
EE
DE
E2
EA
CA
FE
ENDCHAR
STARTCHAR S
ENCODING 83
SWIDTH 750 0
DWIDTH 7 0
BBX 7 8 0 -1
BITMAP
7E
5A
EC
E2
FE
46
FE
F8
ENDCHAR
STARTCHAR T
ENCODING 84
SWIDTH 756 0
DWIDTH 7 0
BBX 7 8 0 -1
BITMAP
7E
BE
F4
34
34
34
24
38
ENDCHAR
STARTCHAR U
ENCODING 85
SWIDTH 846 0
DWIDTH 8 0
BBX 7 8 0 -1
BITMAP
7E
EA
EA
EA
EA
DE
C2
7C
ENDCHAR
STARTCHAR V
ENCODING 86
SWIDTH 830 0
DWIDTH 7 0
BBX 7 8 0 -1
BITMAP
7E
EA
EA
EA
EE
54
6A
7C
ENDCHAR
STARTCHAR W
ENCODING 87
SWIDTH 931 0
DWIDTH 8 0
BBX 8 8 0 -1
BITMAP
77
F7
EF
FF
EF
EF
5A
6E
ENDCHAR
STARTCHAR X
ENCODING 88
SWIDTH 837 0
DWIDTH 8 0
BBX 7 8 0 -1
BITMAP
7E
EA
D6
6A
56
6A
DA
EC
ENDCHAR
STARTCHAR Y
ENCODING 89
SWIDTH 805 0
DWIDTH 7 0
BBX 7 8 0 -1
BITMAP
7E
BE
AE
D6
6C
68
24
38
ENDCHAR
STARTCHAR Z
ENCODING 90
SWIDTH 760 0
DWIDTH 7 0
BBX 7 8 0 -1
BITMAP
7E
FA
E4
2C
58
6E
9E
FC
ENDCHAR
STARTCHAR bracketleft
ENCODING 91
SWIDTH 529 0
DWIDTH 5 0
BBX 5 9 0 -1
BITMAP
70
A8
B0
B0
B0
B0
B0
B8
F0
ENDCHAR
STARTCHAR backslash
ENCODING 92
SWIDTH 487 0
DWIDTH 4 0
BBX 4 10 0 -2
BITMAP
60
A0
B0
F0
F0
70
50
50
50
70
ENDCHAR
STARTCHAR bracketright
ENCODING 93
SWIDTH 529 0
DWIDTH 5 0
BBX 5 9 0 -1
BITMAP
70
98
D8
58
58
58
58
A8
F0
ENDCHAR
STARTCHAR asciicircum
ENCODING 94
SWIDTH 814 0
DWIDTH 7 0
BBX 7 6 0 1
BITMAP
3C
54
6A
6E
9A
EC
ENDCHAR
STARTCHAR underscore
ENCODING 95
SWIDTH 834 0
DWIDTH 8 0
BBX 7 3 0 -2
BITMAP
3E
FE
FE
ENDCHAR
STARTCHAR grave
ENCODING 96
SWIDTH 600 0
DWIDTH 5 0
BBX 5 3 0 6
BITMAP
78
C8
F8
ENDCHAR
STARTCHAR a
ENCODING 97
SWIDTH 830 0
DWIDTH 7 0
BBX 7 8 0 -1
BITMAP
3E
4A
5E
6A
FE
FA
DA
EC
ENDCHAR
STARTCHAR b
ENCODING 98
SWIDTH 825 0
DWIDTH 7 0
BBX 7 8 0 -1
BITMAP
7E
DA
EE
DE
EA
E2
DE
FC
ENDCHAR
STARTCHAR c
ENCODING 99
SWIDTH 728 0
DWIDTH 7 0
BBX 6 8 0 -1
BITMAP
3C
5C
EC
F0
F0
EC
DC
7C
ENDCHAR
STARTCHAR d
ENCODING 100
SWIDTH 846 0
DWIDTH 8 0
BBX 7 8 0 -1
BITMAP
7E
DE
EA
EA
EA
EA
DE
FC
ENDCHAR
STARTCHAR e
ENCODING 101
SWIDTH 754 0
DWIDTH 7 0
BBX 7 8 0 -1
BITMAP
7E
DE
EC
DC
E4
EC
DE
FC
ENDCHAR
STARTCHAR f
ENCODING 102
SWIDTH 718 0
DWIDTH 6 0
BBX 6 8 0 -1
BITMAP
7C
DC
EC
DC
E4
E8
D0
E0
ENDCHAR
STARTCHAR g
ENCODING 103
SWIDTH 808 0
DWIDTH 7 0
BBX 7 8 0 -1
BITMAP
3E
5C
EC
F6
EE
EE
DE
7C
ENDCHAR
STARTCHAR h
ENCODING 104
SWIDTH 859 0
DWIDTH 8 0
BBX 7 8 0 -1
BITMAP
7E
EA
EA
DE
EA
EA
DA
EE
ENDCHAR
STARTCHAR i
ENCODING 105
SWIDTH 705 0
DWIDTH 6 0
BBX 6 8 0 -1
BITMAP
7C
FC
F4
78
78
74
FC
F8
ENDCHAR
STARTCHAR j
ENCODING 106
SWIDTH 788 0
DWIDTH 7 0
BBX 7 8 0 -1
BITMAP
0E
1E
1E
7E
BE
9A
C6
78
ENDCHAR
STARTCHAR k
ENCODING 107
SWIDTH 846 0
DWIDTH 8 0
BBX 7 8 0 -1
BITMAP
7E
EE
F4
DE
EA
EA
DA
EC
ENDCHAR
STARTCHAR l
ENCODING 108
SWIDTH 795 0
DWIDTH 7 0
BBX 7 8 0 -1
BITMAP
70
F0
F0
F6
EE
EE
DE
FC
ENDCHAR
STARTCHAR m
ENCODING 109
SWIDTH 949 0
DWIDTH 9 0
BBX 8 8 0 -1
BITMAP
77
EB
F7
FF
F7
EF
D5
E6
ENDCHAR
STARTCHAR n
ENCODING 110
SWIDTH 853 0
DWIDTH 8 0
BBX 7 8 0 -1
BITMAP
7E
EA
F6
FA
EE
EA
DA
EC
ENDCHAR
STARTCHAR o
ENCODING 111
SWIDTH 837 0
DWIDTH 8 0
BBX 7 8 0 -1
BITMAP
3E
62
EA
EA
EA
E2
DE
7C
ENDCHAR
STARTCHAR p
ENCODING 112
SWIDTH 782 0
DWIDTH 7 0
BBX 7 8 0 -1
BITMAP
7E
DA
EE
E6
DA
EC
D0
E0
ENDCHAR
STARTCHAR q
ENCODING 113
SWIDTH 837 0
DWIDTH 8 0
BBX 7 9 0 -2
BITMAP
3E
62
EA
EA
EA
E2
DE
64
38
ENDCHAR
STARTCHAR r
ENCODING 114
SWIDTH 843 0
DWIDTH 8 0
BBX 7 8 0 -1
BITMAP
7E
DA
EE
DE
E2
EA
CA
FE
ENDCHAR
STARTCHAR s
ENCODING 115
SWIDTH 750 0
DWIDTH 7 0
BBX 7 8 0 -1
BITMAP
7E
5A
EC
E2
FE
46
FE
F8
ENDCHAR
STARTCHAR t
ENCODING 116
SWIDTH 756 0
DWIDTH 7 0
BBX 7 8 0 -1
BITMAP
7E
BE
F4
34
34
34
24
38
ENDCHAR
STARTCHAR u
ENCODING 117
SWIDTH 846 0
DWIDTH 8 0
BBX 7 8 0 -1
BITMAP
7E
EA
EA
EA
EA
DE
C2
7C
ENDCHAR
STARTCHAR v
ENCODING 118
SWIDTH 830 0
DWIDTH 7 0
BBX 7 8 0 -1
BITMAP
7E
EA
EA
EA
EE
54
6A
7C
ENDCHAR
STARTCHAR w
ENCODING 119
SWIDTH 931 0
DWIDTH 8 0
BBX 8 8 0 -1
BITMAP
77
F7
EF
FF
EF
EF
5A
6E
ENDCHAR
STARTCHAR x
ENCODING 120
SWIDTH 837 0
DWIDTH 8 0
BBX 7 8 0 -1
BITMAP
7E
EA
D6
6A
56
6A
DA
EC
ENDCHAR
STARTCHAR y
ENCODING 121
SWIDTH 805 0
DWIDTH 7 0
BBX 7 8 0 -1
BITMAP
7E
BE
AE
D6
6C
68
24
38
ENDCHAR
STARTCHAR z
ENCODING 122
SWIDTH 760 0
DWIDTH 7 0
BBX 7 8 0 -1
BITMAP
7E
FA
E4
2C
58
6E
9E
FC
ENDCHAR
STARTCHAR braceleft
ENCODING 123
SWIDTH 555 0
DWIDTH 5 0
BBX 5 9 0 -1
BITMAP
18
68
70
B0
B0
F0
68
58
70
ENDCHAR
STARTCHAR bar
ENCODING 124
SWIDTH 447 0
DWIDTH 4 0
BBX 4 10 0 -2
BITMAP
20
70
F0
F0
F0
F0
F0
F0
D0
E0
ENDCHAR
STARTCHAR braceright
ENCODING 125
SWIDTH 555 0
DWIDTH 5 0
BBX 5 9 0 -1
BITMAP
60
90
D0
58
78
50
50
B8
E0
ENDCHAR
STARTCHAR asciitilde
ENCODING 126
SWIDTH 834 0
DWIDTH 8 0
BBX 7 4 0 1
BITMAP
3C
52
FE
08
ENDCHAR
STARTCHAR uni00A0
ENCODING 160
SWIDTH 325 0
DWIDTH 3 0
BBX 1 1 0 0
BITMAP
00
ENDCHAR
STARTCHAR exclamdown
ENCODING 161
SWIDTH 523 0
DWIDTH 5 0
BBX 3 8 1 -1
BITMAP
E0
E0
E0
E0
E0
E0
A0
C0
ENDCHAR
STARTCHAR cent
ENCODING 162
SWIDTH 728 0
DWIDTH 7 0
BBX 6 9 0 -1
BITMAP
18
24
5C
EC
F0
EC
DC
64
38
ENDCHAR
STARTCHAR sterling
ENCODING 163
SWIDTH 795 0
DWIDTH 7 0
BBX 7 8 0 -1
BITMAP
3C
5C
E8
BE
EE
E6
DE
FC
ENDCHAR
STARTCHAR currency
ENCODING 164
SWIDTH 921 0
DWIDTH 8 0
BBX 8 8 0 -1
BITMAP
7B
6F
D2
5A
5A
7F
5D
F6
ENDCHAR
STARTCHAR yen
ENCODING 165
SWIDTH 803 0
DWIDTH 7 0
BBX 7 8 0 -1
BITMAP
7E
BE
AE
DA
7C
4A
64
38
ENDCHAR
STARTCHAR brokenbar
ENCODING 166
SWIDTH 447 0
DWIDTH 4 0
BBX 4 10 0 -2
BITMAP
30
F0
F0
D0
E0
50
F0
F0
D0
E0
ENDCHAR
STARTCHAR section
ENCODING 167
SWIDTH 750 0
DWIDTH 7 0
BBX 7 8 0 -1
BITMAP
3E
6C
FA
FE
DE
7A
7C
F8
ENDCHAR
STARTCHAR dieresis
ENCODING 168
SWIDTH 600 0
DWIDTH 5 0
BBX 5 3 0 6
BITMAP
68
B8
F8
ENDCHAR
STARTCHAR copyright
ENCODING 169
SWIDTH 967 0
DWIDTH 9 0
BBX 8 10 0 -2
BITMAP
2C
5F
6F
F7
FB
F7
E7
FF
CD
7E
ENDCHAR
STARTCHAR ordfeminine
ENCODING 170
SWIDTH 620 0
DWIDTH 6 0
BBX 5 8 0 -1
BITMAP
78
78
B8
B8
98
F8
B8
F8
ENDCHAR
STARTCHAR guillemotleft
ENCODING 171
SWIDTH 912 0
DWIDTH 8 0
BBX 8 6 0 0
BITMAP
39
5F
AD
FF
E5
7E
ENDCHAR
STARTCHAR logicalnot
ENCODING 172
SWIDTH 834 0
DWIDTH 8 0
BBX 7 6 0 0
BITMAP
3E
7E
C2
FA
0A
0C
ENDCHAR
STARTCHAR uni00AD
ENCODING 173
SWIDTH 520 0
DWIDTH 5 0
BBX 5 3 0 1
BITMAP
70
B8
F0
ENDCHAR
STARTCHAR registered
ENCODING 174
SWIDTH 660 0
DWIDTH 6 0
BBX 6 6 0 1
BITMAP
38
5C
DC
FC
D4
78
ENDCHAR
STARTCHAR macron
ENCODING 175
SWIDTH 600 0
DWIDTH 5 0
BBX 5 3 0 6
BITMAP
78
B8
F8
ENDCHAR
STARTCHAR degree
ENCODING 176
SWIDTH 583 0
DWIDTH 5 0
BBX 5 5 0 2
BITMAP
78
B8
A8
D8
F0
ENDCHAR
STARTCHAR plusminus
ENCODING 177
SWIDTH 834 0
DWIDTH 8 0
BBX 7 8 0 -1
BITMAP
1C
28
3E
4A
EE
26
FE
FC
ENDCHAR
STARTCHAR twosuperior
ENCODING 178
SWIDTH 585 0
DWIDTH 5 0
BBX 5 6 0 1
BITMAP
78
E8
58
B8
B8
F0
ENDCHAR
STARTCHAR threesuperior
ENCODING 179
SWIDTH 584 0
DWIDTH 5 0
BBX 5 6 0 1
BITMAP
78
F8
58
78
78
F0
ENDCHAR
STARTCHAR acute
ENCODING 180
SWIDTH 600 0
DWIDTH 5 0
BBX 5 3 0 6
BITMAP
78
A8
F0
ENDCHAR
STARTCHAR mu
ENCODING 181
SWIDTH 813 0
DWIDTH 7 0
BBX 7 8 0 -2
BITMAP
36
EE
EE
EE
FA
E2
DC
E0
ENDCHAR
STARTCHAR paragraph
ENCODING 182
SWIDTH 782 0
DWIDTH 7 0
BBX 7 8 0 -1
BITMAP
7E
5E
A6
A6
DE
EE
6A
7C
ENDCHAR
STARTCHAR periodcentered
ENCODING 183
SWIDTH 464 0
DWIDTH 4 0
BBX 4 4 0 1
BITMAP
30
B0
90
E0
ENDCHAR
STARTCHAR cedilla
ENCODING 184
SWIDTH 600 0
DWIDTH 5 0
BBX 4 4 1 -2
BITMAP
20
50
A0
C0
ENDCHAR
STARTCHAR onesuperior
ENCODING 185
SWIDTH 557 0
DWIDTH 5 0
BBX 5 6 0 1
BITMAP
70
D0
50
58
B8
F0
ENDCHAR
STARTCHAR ordmasculine
ENCODING 186
SWIDTH 625 0
DWIDTH 6 0
BBX 6 8 0 -1
BITMAP
7C
A4
B4
B4
DC
F8
BC
F8
ENDCHAR
STARTCHAR guillemotright
ENCODING 187
SWIDTH 912 0
DWIDTH 8 0
BBX 8 6 0 0
BITMAP
7E
DB
D9
6F
DA
AC
ENDCHAR
STARTCHAR onequarter
ENCODING 188
SWIDTH 1303 0
DWIDTH 12 0
BBX 12 8 0 -1
BITMAP
7700
D6A0
5D50
5B50
B510
FDF0
0BD0
0C60
ENDCHAR
STARTCHAR onehalf
ENCODING 189
SWIDTH 1260 0
DWIDTH 11 0
BBX 11 8 0 -1
BITMAP
7700
D6C0
5DE0
5BA0
B5E0
FD60
09E0
0FC0
ENDCHAR
STARTCHAR threequarters
ENCODING 190
SWIDTH 1313 0
DWIDTH 12 0
BBX 12 8 0 -1
BITMAP
7F00
DEA0
57D0
75D0
7590
FD70
0BD0
0C60
ENDCHAR
STARTCHAR questiondown
ENCODING 191
SWIDTH 756 0
DWIDTH 7 0
BBX 7 8 0 -1
BITMAP
1C
3C
3C
5C
A4
9C
C2
7C
ENDCHAR
STARTCHAR Agrave
ENCODING 192
SWIDTH 830 0
DWIDTH 7 0
BBX 7 10 0 -1
BITMAP
3C
52
6E
4A
5E
6A
FE
FA
DA
EC
ENDCHAR
STARTCHAR Aacute
ENCODING 193
SWIDTH 830 0
DWIDTH 7 0
BBX 7 10 0 -1
BITMAP
3E
42
7E
4A
5E
6A
FE
FA
DA
EC
ENDCHAR
STARTCHAR Acircumflex
ENCODING 194
SWIDTH 830 0
DWIDTH 7 0
BBX 7 11 0 -1
BITMAP
1C
2A
5C
62
4A
5E
6A
FE
FA
DA
EC
ENDCHAR
STARTCHAR Atilde
ENCODING 195
SWIDTH 830 0
DWIDTH 7 0
BBX 7 10 0 -1
BITMAP
3C
52
7C
4A
5E
6A
FE
FA
DA
EC
ENDCHAR
STARTCHAR Adieresis
ENCODING 196
SWIDTH 830 0
DWIDTH 7 0
BBX 7 11 0 -1
BITMAP
34
5C
4A
74
2A
5E
6A
FE
FA
DA
EC
ENDCHAR
STARTCHAR Aring
ENCODING 197
SWIDTH 830 0
DWIDTH 7 0
BBX 7 11 0 -1
BITMAP
1C
2A
5C
6A
4A
5E
6A
FE
FA
DA
EC
ENDCHAR
STARTCHAR AE
ENCODING 198
SWIDTH 1105 0
DWIDTH 10 0
BBX 10 8 0 -1
BITMAP
3FC0
5FC0
5B80
6B80
FD80
FA40
D9C0
EF80
ENDCHAR
STARTCHAR Ccedilla
ENCODING 199
SWIDTH 728 0
DWIDTH 7 0
BBX 6 9 0 -2
BITMAP
3C
64
EC
F0
F0
DC
EC
64
38
ENDCHAR
STARTCHAR Egrave
ENCODING 200
SWIDTH 754 0
DWIDTH 7 0
BBX 7 10 0 -1
BITMAP
7C
64
5A
DE
EC
DC
E4
EC
DE
FC
ENDCHAR
STARTCHAR Eacute
ENCODING 201
SWIDTH 754 0
DWIDTH 7 0
BBX 7 10 0 -1
BITMAP
3E
42
7E
DE
EC
DC
E4
EC
DE
FC
ENDCHAR
STARTCHAR Ecircumflex
ENCODING 202
SWIDTH 754 0
DWIDTH 7 0
BBX 7 11 0 -1
BITMAP
18
6C
7C
42
DE
EC
DC
E4
EC
DE
FC
ENDCHAR
STARTCHAR Edieresis
ENCODING 203
SWIDTH 754 0
DWIDTH 7 0
BBX 7 11 0 -1
BITMAP
3C
6A
4A
76
5E
EC
DC
E4
EC
DE
FC
ENDCHAR
STARTCHAR Igrave
ENCODING 204
SWIDTH 705 0
DWIDTH 6 0
BBX 6 10 0 -1
BITMAP
7C
64
5C
FC
F4
78
78
74
FC
F8
ENDCHAR
STARTCHAR Iacute
ENCODING 205
SWIDTH 705 0
DWIDTH 6 0
BBX 6 10 0 -1
BITMAP
3C
44
7C
FC
F4
78
78
74
FC
F8
ENDCHAR
STARTCHAR Icircumflex
ENCODING 206
SWIDTH 705 0
DWIDTH 6 0
BBX 6 11 0 -1
BITMAP
38
54
7C
44
FC
F4
78
78
74
FC
F8
ENDCHAR
STARTCHAR Idieresis
ENCODING 207
SWIDTH 705 0
DWIDTH 6 0
BBX 6 11 0 -1
BITMAP
2C
5C
D4
EC
FC
F4
78
78
74
FC
F8
ENDCHAR
STARTCHAR Eth
ENCODING 208
SWIDTH 856 0
DWIDTH 8 0
BBX 7 8 0 -1
BITMAP
7E
DE
EA
BA
EA
E2
DE
FC
ENDCHAR
STARTCHAR Ntilde
ENCODING 209
SWIDTH 853 0
DWIDTH 8 0
BBX 7 10 0 -1
BITMAP
3C
72
5E
EA
F6
FA
EE
EA
DA
EC
ENDCHAR
STARTCHAR Ograve
ENCODING 210
SWIDTH 837 0
DWIDTH 8 0
BBX 7 10 0 -1
BITMAP
3C
42
7E
62
EA
EA
EA
E2
DE
7C
ENDCHAR
STARTCHAR Oacute
ENCODING 211
SWIDTH 837 0
DWIDTH 8 0
BBX 7 10 0 -1
BITMAP
3E
42
7E
62
EA
EA
EA
E2
DE
7C
ENDCHAR
STARTCHAR Ocircumflex
ENCODING 212
SWIDTH 837 0
DWIDTH 8 0
BBX 7 11 0 -1
BITMAP
1C
2A
7C
5E
62
EA
EA
EA
E2
DE
7C
ENDCHAR
STARTCHAR Otilde
ENCODING 213
SWIDTH 837 0
DWIDTH 8 0
BBX 7 11 0 -1
BITMAP
16
2A
42
7E
62
EA
EA
EA
E2
DE
7C
ENDCHAR
STARTCHAR Odieresis
ENCODING 214
SWIDTH 837 0
DWIDTH 8 0
BBX 7 11 0 -1
BITMAP
34
5E
4A
3E
62
EA
EA
EA
E2
DE
7C
ENDCHAR
STARTCHAR multiply
ENCODING 215
SWIDTH 834 0
DWIDTH 8 0
BBX 6 7 1 0
BITMAP
48
B4
A8
D8
AC
B4
D8
ENDCHAR
STARTCHAR Oslash
ENCODING 216
SWIDTH 837 0
DWIDTH 8 0
BBX 7 10 0 -2
BITMAP
06
3A
6E
FA
FA
EA
F2
DE
7C
40
ENDCHAR
STARTCHAR Ugrave
ENCODING 217
SWIDTH 846 0
DWIDTH 8 0
BBX 7 10 0 -1
BITMAP
3C
62
5E
EA
EA
EA
EA
DE
C2
7C
ENDCHAR
STARTCHAR Uacute
ENCODING 218
SWIDTH 846 0
DWIDTH 8 0
BBX 7 10 0 -1
BITMAP
3E
62
5E
EA
EA
EA
EA
DE
C2
7C
ENDCHAR
STARTCHAR Ucircumflex
ENCODING 219
SWIDTH 846 0
DWIDTH 8 0
BBX 7 11 0 -1
BITMAP
1C
2A
7C
4A
EA
EA
EA
EA
DE
C2
7C
ENDCHAR
STARTCHAR Udieresis
ENCODING 220
SWIDTH 846 0
DWIDTH 8 0
BBX 7 11 0 -1
BITMAP
34
5E
4A
7E
EA
EA
EA
EA
DE
C2
7C
ENDCHAR
STARTCHAR Yacute
ENCODING 221
SWIDTH 805 0
DWIDTH 7 0
BBX 7 10 0 -1
BITMAP
3E
42
7E
BE
AE
D6
6C
68
24
38
ENDCHAR
STARTCHAR Thorn
ENCODING 222
SWIDTH 792 0
DWIDTH 7 0
BBX 7 8 0 -1
BITMAP
70
DE
E6
EE
E6
DA
CC
F0
ENDCHAR
STARTCHAR germandbls
ENCODING 223
SWIDTH 859 0
DWIDTH 8 0
BBX 8 8 0 -1
BITMAP
7E
DA
EE
F5
EF
F3
F7
FC
ENDCHAR
STARTCHAR agrave
ENCODING 224
SWIDTH 830 0
DWIDTH 7 0
BBX 7 10 0 -1
BITMAP
3C
52
6E
4A
5E
6A
FE
FA
DA
EC
ENDCHAR
STARTCHAR aacute
ENCODING 225
SWIDTH 830 0
DWIDTH 7 0
BBX 7 10 0 -1
BITMAP
3E
42
7E
4A
5E
6A
FE
FA
DA
EC
ENDCHAR
STARTCHAR acircumflex
ENCODING 226
SWIDTH 830 0
DWIDTH 7 0
BBX 7 11 0 -1
BITMAP
1C
2A
5C
62
4A
5E
6A
FE
FA
DA
EC
ENDCHAR
STARTCHAR atilde
ENCODING 227
SWIDTH 830 0
DWIDTH 7 0
BBX 7 10 0 -1
BITMAP
3C
52
7C
4A
5E
6A
FE
FA
DA
EC
ENDCHAR
STARTCHAR adieresis
ENCODING 228
SWIDTH 830 0
DWIDTH 7 0
BBX 7 11 0 -1
BITMAP
34
5C
4A
74
2A
5E
6A
FE
FA
DA
EC
ENDCHAR
STARTCHAR aring
ENCODING 229
SWIDTH 830 0
DWIDTH 7 0
BBX 7 11 0 -1
BITMAP
1C
2A
5C
6A
4A
5E
6A
FE
FA
DA
EC
ENDCHAR
STARTCHAR ae
ENCODING 230
SWIDTH 1105 0
DWIDTH 10 0
BBX 10 8 0 -1
BITMAP
3FC0
5FC0
5B80
6B80
FD80
FA40
D9C0
EF80
ENDCHAR
STARTCHAR ccedilla
ENCODING 231
SWIDTH 728 0
DWIDTH 7 0
BBX 6 9 0 -2
BITMAP
3C
64
EC
F0
F0
DC
EC
64
38
ENDCHAR
STARTCHAR egrave
ENCODING 232
SWIDTH 754 0
DWIDTH 7 0
BBX 7 10 0 -1
BITMAP
7C
64
5A
DE
EC
DC
E4
EC
DE
FC
ENDCHAR
STARTCHAR eacute
ENCODING 233
SWIDTH 754 0
DWIDTH 7 0
BBX 7 10 0 -1
BITMAP
3E
42
7E
DE
EC
DC
E4
EC
DE
FC
ENDCHAR
STARTCHAR ecircumflex
ENCODING 234
SWIDTH 754 0
DWIDTH 7 0
BBX 7 11 0 -1
BITMAP
18
6C
7C
42
DE
EC
DC
E4
EC
DE
FC
ENDCHAR
STARTCHAR edieresis
ENCODING 235
SWIDTH 754 0
DWIDTH 7 0
BBX 7 11 0 -1
BITMAP
3C
6A
4A
76
5E
EC
DC
E4
EC
DE
FC
ENDCHAR
STARTCHAR igrave
ENCODING 236
SWIDTH 705 0
DWIDTH 6 0
BBX 6 10 0 -1
BITMAP
7C
64
5C
FC
F4
78
78
74
FC
F8
ENDCHAR
STARTCHAR iacute
ENCODING 237
SWIDTH 705 0
DWIDTH 6 0
BBX 6 10 0 -1
BITMAP
3C
44
7C
FC
F4
78
78
74
FC
F8
ENDCHAR
STARTCHAR icircumflex
ENCODING 238
SWIDTH 705 0
DWIDTH 6 0
BBX 6 11 0 -1
BITMAP
38
54
7C
44
FC
F4
78
78
74
FC
F8
ENDCHAR
STARTCHAR idieresis
ENCODING 239
SWIDTH 705 0
DWIDTH 6 0
BBX 6 11 0 -1
BITMAP
2C
5C
D4
EC
FC
F4
78
78
74
FC
F8
ENDCHAR
STARTCHAR eth
ENCODING 240
SWIDTH 856 0
DWIDTH 8 0
BBX 7 8 0 -1
BITMAP
7E
DE
EA
BA
EA
E2
DE
FC
ENDCHAR
STARTCHAR ntilde
ENCODING 241
SWIDTH 853 0
DWIDTH 8 0
BBX 7 10 0 -1
BITMAP
3C
72
5E
EA
F6
FA
EE
EA
DA
EC
ENDCHAR
STARTCHAR ograve
ENCODING 242
SWIDTH 837 0
DWIDTH 8 0
BBX 7 10 0 -1
BITMAP
3C
42
7E
62
EA
EA
EA
E2
DE
7C
ENDCHAR
STARTCHAR oacute
ENCODING 243
SWIDTH 837 0
DWIDTH 8 0
BBX 7 10 0 -1
BITMAP
3E
42
7E
62
EA
EA
EA
E2
DE
7C
ENDCHAR
STARTCHAR ocircumflex
ENCODING 244
SWIDTH 837 0
DWIDTH 8 0
BBX 7 11 0 -1
BITMAP
1C
2A
7C
5E
62
EA
EA
EA
E2
DE
7C
ENDCHAR
STARTCHAR otilde
ENCODING 245
SWIDTH 837 0
DWIDTH 8 0
BBX 7 11 0 -1
BITMAP
16
2A
42
7E
62
EA
EA
EA
E2
DE
7C
ENDCHAR
STARTCHAR odieresis
ENCODING 246
SWIDTH 837 0
DWIDTH 8 0
BBX 7 11 0 -1
BITMAP
34
5E
4A
3E
62
EA
EA
EA
E2
DE
7C
ENDCHAR
STARTCHAR divide
ENCODING 247
SWIDTH 834 0
DWIDTH 8 0
BBX 7 7 0 -1
BITMAP
1C
24
3E
7E
FE
28
38
ENDCHAR
STARTCHAR oslash
ENCODING 248
SWIDTH 837 0
DWIDTH 8 0
BBX 7 10 0 -2
BITMAP
06
3A
6E
FA
FA
EA
F2
DE
7C
40
ENDCHAR
STARTCHAR ugrave
ENCODING 249
SWIDTH 846 0
DWIDTH 8 0
BBX 7 10 0 -1
BITMAP
3C
62
5E
EA
EA
EA
EA
DE
C2
7C
ENDCHAR
STARTCHAR uacute
ENCODING 250
SWIDTH 846 0
DWIDTH 8 0
BBX 7 10 0 -1
BITMAP
3E
62
5E
EA
EA
EA
EA
DE
C2
7C
ENDCHAR
STARTCHAR ucircumflex
ENCODING 251
SWIDTH 846 0
DWIDTH 8 0
BBX 7 11 0 -1
BITMAP
1C
2A
7C
4A
EA
EA
EA
EA
DE
C2
7C
ENDCHAR
STARTCHAR udieresis
ENCODING 252
SWIDTH 846 0
DWIDTH 8 0
BBX 7 11 0 -1
BITMAP
34
5E
4A
7E
EA
EA
EA
EA
DE
C2
7C
ENDCHAR
STARTCHAR yacute
ENCODING 253
SWIDTH 805 0
DWIDTH 7 0
BBX 7 10 0 -1
BITMAP
3E
42
7E
BE
AE
D6
6C
68
24
38
ENDCHAR
STARTCHAR thorn
ENCODING 254
SWIDTH 792 0
DWIDTH 7 0
BBX 7 8 0 -1
BITMAP
70
DE
E6
EE
E6
DA
CC
F0
ENDCHAR
STARTCHAR ydieresis
ENCODING 255
SWIDTH 805 0
DWIDTH 7 0
BBX 7 11 0 -1
BITMAP
3C
54
4A
7E
BE
AE
E6
5C
68
24
38
ENDCHAR
STARTCHAR Amacron
ENCODING 256
SWIDTH 830 0
DWIDTH 7 0
BBX 7 10 0 -1
BITMAP
3E
42
7C
2A
5E
6A
FE
FA
DA
EC
ENDCHAR
STARTCHAR amacron
ENCODING 257
SWIDTH 830 0
DWIDTH 7 0
BBX 7 10 0 -1
BITMAP
3E
42
7C
2A
5E
6A
FE
FA
DA
EC
ENDCHAR
STARTCHAR Abreve
ENCODING 258
SWIDTH 830 0
DWIDTH 7 0
BBX 7 11 0 -1
BITMAP
34
5C
6C
72
4A
5E
6A
FE
FA
DA
EC
ENDCHAR
STARTCHAR abreve
ENCODING 259
SWIDTH 830 0
DWIDTH 7 0
BBX 7 11 0 -1
BITMAP
34
5C
6C
72
4A
5E
6A
FE
FA
DA
EC
ENDCHAR
STARTCHAR Aogonek
ENCODING 260
SWIDTH 830 0
DWIDTH 7 0
BBX 7 10 0 -3
BITMAP
3E
4A
5E
6A
FE
FA
DE
EA
0A
0E
ENDCHAR
STARTCHAR aogonek
ENCODING 261
SWIDTH 830 0
DWIDTH 7 0
BBX 7 10 0 -3
BITMAP
3E
4A
5E
6A
FE
FA
DE
EA
0A
0E
ENDCHAR
STARTCHAR Cacute
ENCODING 262
SWIDTH 728 0
DWIDTH 7 0
BBX 6 10 0 -1
BITMAP
3C
64
5C
5C
EC
F0
F0
EC
DC
7C
ENDCHAR
STARTCHAR cacute
ENCODING 263
SWIDTH 728 0
DWIDTH 7 0
BBX 6 10 0 -1
BITMAP
3C
64
5C
5C
EC
F0
F0
EC
DC
7C
ENDCHAR
STARTCHAR Ccircumflex
ENCODING 264
SWIDTH 728 0
DWIDTH 7 0
BBX 6 11 0 -1
BITMAP
18
2C
5C
64
5C
EC
F0
F0
EC
DC
7C
ENDCHAR
STARTCHAR ccircumflex
ENCODING 265
SWIDTH 728 0
DWIDTH 7 0
BBX 6 11 0 -1
BITMAP
18
2C
5C
64
5C
EC
F0
F0
EC
DC
7C
ENDCHAR
STARTCHAR Cdotaccent
ENCODING 266
SWIDTH 728 0
DWIDTH 7 0
BBX 6 11 0 -1
BITMAP
18
28
24
5C
5C
EC
F0
F0
EC
DC
7C
ENDCHAR
STARTCHAR cdotaccent
ENCODING 267
SWIDTH 728 0
DWIDTH 7 0
BBX 6 11 0 -1
BITMAP
18
28
24
5C
5C
EC
F0
F0
EC
DC
7C
ENDCHAR
STARTCHAR Ccaron
ENCODING 268
SWIDTH 728 0
DWIDTH 7 0
BBX 6 11 0 -1
BITMAP
20
5C
7C
44
5C
EC
F0
F0
EC
DC
7C
ENDCHAR
STARTCHAR ccaron
ENCODING 269
SWIDTH 728 0
DWIDTH 7 0
BBX 6 11 0 -1
BITMAP
20
5C
7C
44
5C
EC
F0
F0
EC
DC
7C
ENDCHAR
STARTCHAR Dcaron
ENCODING 270
SWIDTH 846 0
DWIDTH 8 0
BBX 7 11 0 -1
BITMAP
20
7E
7A
46
DE
EA
EA
EA
EA
DE
FC
ENDCHAR
STARTCHAR dcaron
ENCODING 271
SWIDTH 846 0
DWIDTH 8 0
BBX 7 11 0 -1
BITMAP
20
7E
7A
46
DE
EA
EA
EA
EA
DE
FC
ENDCHAR
STARTCHAR Dcroat
ENCODING 272
SWIDTH 856 0
DWIDTH 8 0
BBX 7 8 0 -1
BITMAP
7E
DE
EA
BA
EA
E2
DE
FC
ENDCHAR
STARTCHAR dcroat
ENCODING 273
SWIDTH 856 0
DWIDTH 8 0
BBX 7 8 0 -1
BITMAP
7E
DE
EA
BA
EA
E2
DE
FC
ENDCHAR
STARTCHAR Emacron
ENCODING 274
SWIDTH 754 0
DWIDTH 7 0
BBX 7 10 0 -1
BITMAP
3C
44
7A
DE
EC
DC
E4
EC
DE
FC
ENDCHAR
STARTCHAR emacron
ENCODING 275
SWIDTH 754 0
DWIDTH 7 0
BBX 7 10 0 -1
BITMAP
3C
44
7A
DE
EC
DC
E4
EC
DE
FC
ENDCHAR
STARTCHAR Ebreve
ENCODING 276
SWIDTH 754 0
DWIDTH 7 0
BBX 7 11 0 -1
BITMAP
34
6A
7C
52
DE
EC
DC
E4
EC
DE
FC
ENDCHAR
STARTCHAR ebreve
ENCODING 277
SWIDTH 754 0
DWIDTH 7 0
BBX 7 11 0 -1
BITMAP
34
6A
7C
52
DE
EC
DC
E4
EC
DE
FC
ENDCHAR
STARTCHAR Edotaccent
ENCODING 278
SWIDTH 754 0
DWIDTH 7 0
BBX 7 11 0 -1
BITMAP
18
34
24
5A
DE
EC
DC
E4
EC
DE
FC
ENDCHAR
STARTCHAR edotaccent
ENCODING 279
SWIDTH 754 0
DWIDTH 7 0
BBX 7 11 0 -1
BITMAP
18
34
24
5A
DE
EC
DC
E4
EC
DE
FC
ENDCHAR
STARTCHAR Eogonek
ENCODING 280
SWIDTH 754 0
DWIDTH 7 0
BBX 7 10 0 -3
BITMAP
7E
DE
EC
DC
E4
EC
DE
F4
12
1C
ENDCHAR
STARTCHAR eogonek
ENCODING 281
SWIDTH 754 0
DWIDTH 7 0
BBX 7 10 0 -3
BITMAP
7E
DE
EC
DC
E4
EC
DE
F4
12
1C
ENDCHAR
STARTCHAR Ecaron
ENCODING 282
SWIDTH 754 0
DWIDTH 7 0
BBX 7 11 0 -1
BITMAP
20
5E
7C
42
DE
EC
DC
E4
EC
DE
FC
ENDCHAR
STARTCHAR ecaron
ENCODING 283
SWIDTH 754 0
DWIDTH 7 0
BBX 7 11 0 -1
BITMAP
20
5E
7C
42
DE
EC
DC
E4
EC
DE
FC
ENDCHAR
STARTCHAR Gcircumflex
ENCODING 284
SWIDTH 808 0
DWIDTH 7 0
BBX 7 11 0 -1
BITMAP
1C
2A
7C
42
5C
EC
F6
EE
EE
DE
7C
ENDCHAR
STARTCHAR gcircumflex
ENCODING 285
SWIDTH 808 0
DWIDTH 7 0
BBX 7 11 0 -1
BITMAP
1C
2A
7C
42
5C
EC
F6
EE
EE
DE
7C
ENDCHAR
STARTCHAR Gbreve
ENCODING 286
SWIDTH 808 0
DWIDTH 7 0
BBX 7 11 0 -1
BITMAP
34
5C
6C
52
5C
EC
F6
EE
EE
DE
7C
ENDCHAR
STARTCHAR gbreve
ENCODING 287
SWIDTH 808 0
DWIDTH 7 0
BBX 7 11 0 -1
BITMAP
34
5C
6C
52
5C
EC
F6
EE
EE
DE
7C
ENDCHAR
STARTCHAR Gdotaccent
ENCODING 288
SWIDTH 808 0
DWIDTH 7 0
BBX 7 11 0 -1
BITMAP
18
2C
24
3A
5C
EC
F6
EE
EE
DE
7C
ENDCHAR
STARTCHAR gdotaccent
ENCODING 289
SWIDTH 808 0
DWIDTH 7 0
BBX 7 11 0 -1
BITMAP
18
2C
24
3A
5C
EC
F6
EE
EE
DE
7C
ENDCHAR
STARTCHAR Gcommaaccent
ENCODING 290
SWIDTH 808 0
DWIDTH 7 0
BBX 7 11 0 -4
BITMAP
3C
62
EC
F6
EE
DE
FE
6C
34
28
30
ENDCHAR
STARTCHAR gcommaaccent
ENCODING 291
SWIDTH 808 0
DWIDTH 7 0
BBX 7 11 0 -4
BITMAP
3C
62
EC
F6
EE
DE
FE
6C
34
28
30
ENDCHAR
STARTCHAR Hcircumflex
ENCODING 292
SWIDTH 859 0
DWIDTH 8 0
BBX 7 11 0 -1
BITMAP
1C
2A
7E
4A
EA
EA
DE
EA
EA
DA
EE
ENDCHAR
STARTCHAR hcircumflex
ENCODING 293
SWIDTH 859 0
DWIDTH 8 0
BBX 7 11 0 -1
BITMAP
1C
2A
7E
4A
EA
EA
DE
EA
EA
DA
EE
ENDCHAR
STARTCHAR Hbar
ENCODING 294
SWIDTH 879 0
DWIDTH 8 0
BBX 8 8 0 -1
BITMAP
77
6B
BF
EA
DD
EA
D9
EE
ENDCHAR
STARTCHAR hbar
ENCODING 295
SWIDTH 879 0
DWIDTH 8 0
BBX 8 8 0 -1
BITMAP
77
6B
BF
EA
DD
EA
D9
EE
ENDCHAR
STARTCHAR Itilde
ENCODING 296
SWIDTH 705 0
DWIDTH 6 0
BBX 6 10 0 -1
BITMAP
7C
74
4C
FC
F4
78
78
74
FC
F8
ENDCHAR
STARTCHAR itilde
ENCODING 297
SWIDTH 705 0
DWIDTH 6 0
BBX 6 10 0 -1
BITMAP
7C
74
4C
FC
F4
78
78
74
FC
F8
ENDCHAR
STARTCHAR Imacron
ENCODING 298
SWIDTH 705 0
DWIDTH 6 0
BBX 6 10 0 -1
BITMAP
7C
44
7C
FC
F4
78
78
74
FC
F8
ENDCHAR
STARTCHAR imacron
ENCODING 299
SWIDTH 705 0
DWIDTH 6 0
BBX 6 10 0 -1
BITMAP
7C
44
7C
FC
F4
78
78
74
FC
F8
ENDCHAR
STARTCHAR Ibreve
ENCODING 300
SWIDTH 705 0
DWIDTH 6 0
BBX 6 11 0 -1
BITMAP
2C
7C
74
4C
FC
F4
78
78
74
FC
F8
ENDCHAR
STARTCHAR ibreve
ENCODING 301
SWIDTH 705 0
DWIDTH 6 0
BBX 6 11 0 -1
BITMAP
2C
7C
74
4C
FC
F4
78
78
74
FC
F8
ENDCHAR
STARTCHAR Iogonek
ENCODING 302
SWIDTH 705 0
DWIDTH 6 0
BBX 6 10 0 -3
BITMAP
7C
FC
F4
78
78
74
FC
FC
14
18
ENDCHAR
STARTCHAR iogonek
ENCODING 303
SWIDTH 705 0
DWIDTH 6 0
BBX 6 10 0 -3
BITMAP
7C
FC
F4
78
78
74
FC
FC
14
18
ENDCHAR
STARTCHAR Idotaccent
ENCODING 304
SWIDTH 705 0
DWIDTH 6 0
BBX 6 11 0 -1
BITMAP
18
38
68
54
FC
F4
78
78
74
FC
F8
ENDCHAR
STARTCHAR dotlessi
ENCODING 305
SWIDTH 705 0
DWIDTH 6 0
BBX 6 8 0 -1
BITMAP
7C
FC
F4
78
78
74
FC
F8
ENDCHAR
STARTCHAR IJ
ENCODING 306
SWIDTH 844 0
DWIDTH 8 0
BBX 7 8 0 -1
BITMAP
7E
EA
EA
CA
FA
42
FE
FC
ENDCHAR
STARTCHAR ij
ENCODING 307
SWIDTH 844 0
DWIDTH 8 0
BBX 7 8 0 -1
BITMAP
7E
EA
EA
CA
FA
42
FE
FC
ENDCHAR
STARTCHAR Jcircumflex
ENCODING 308
SWIDTH 788 0
DWIDTH 7 0
BBX 8 11 0 -1
BITMAP
0E
15
3F
3A
1E
1E
7E
BE
9A
C4
78
ENDCHAR
STARTCHAR jcircumflex
ENCODING 309
SWIDTH 788 0
DWIDTH 7 0
BBX 8 11 0 -1
BITMAP
0E
15
3F
3A
1E
1E
7E
BE
9A
C4
78
ENDCHAR
STARTCHAR Kcommaaccent
ENCODING 310
SWIDTH 846 0
DWIDTH 8 0
BBX 7 11 0 -4
BITMAP
7E
EE
F4
DE
EA
EA
CA
FC
34
28
30
ENDCHAR
STARTCHAR kcommaaccent
ENCODING 311
SWIDTH 846 0
DWIDTH 8 0
BBX 7 11 0 -4
BITMAP
7E
EE
F4
DE
EA
EA
CA
FC
34
28
30
ENDCHAR
STARTCHAR kgreenlandic
ENCODING 312
SWIDTH 846 0
DWIDTH 8 0
BBX 7 8 0 -1
BITMAP
7E
EE
F4
DE
EA
EA
DA
EC
ENDCHAR
STARTCHAR Lacute
ENCODING 313
SWIDTH 795 0
DWIDTH 7 0
BBX 7 10 0 -1
BITMAP
3C
C4
F8
F0
F0
F6
EE
EE
DE
FC
ENDCHAR
STARTCHAR lacute
ENCODING 314
SWIDTH 795 0
DWIDTH 7 0
BBX 7 10 0 -1
BITMAP
3C
C4
F8
F0
F0
F6
EE
EE
DE
FC
ENDCHAR
STARTCHAR Lcommaaccent
ENCODING 315
SWIDTH 795 0
DWIDTH 7 0
BBX 7 11 0 -4
BITMAP
70
F0
F0
F6
EE
DE
FE
E4
38
28
30
ENDCHAR
STARTCHAR lcommaaccent
ENCODING 316
SWIDTH 795 0
DWIDTH 7 0
BBX 7 11 0 -4
BITMAP
70
F0
F0
F6
EE
DE
FE
E4
38
28
30
ENDCHAR
STARTCHAR Lcaron
ENCODING 317
SWIDTH 795 0
DWIDTH 7 0
BBX 7 8 0 -1
BITMAP
7E
EE
EA
EE
EE
EE
DE
FC
ENDCHAR
STARTCHAR lcaron
ENCODING 318
SWIDTH 795 0
DWIDTH 7 0
BBX 7 8 0 -1
BITMAP
7E
EE
EA
EE
EE
EE
DE
FC
ENDCHAR
STARTCHAR Ldot
ENCODING 319
SWIDTH 795 0
DWIDTH 7 0
BBX 7 8 0 -1
BITMAP
70
F6
EE
EE
EA
E6
DE
FC
ENDCHAR
STARTCHAR ldot
ENCODING 320
SWIDTH 795 0
DWIDTH 7 0
BBX 7 8 0 -1
BITMAP
70
F6
EE
EE
EA
E6
DE
FC
ENDCHAR
STARTCHAR Lslash
ENCODING 321
SWIDTH 805 0
DWIDTH 7 0
BBX 7 8 0 -1
BITMAP
70
70
E8
B6
AE
EE
DE
FC
ENDCHAR
STARTCHAR lslash
ENCODING 322
SWIDTH 805 0
DWIDTH 7 0
BBX 7 8 0 -1
BITMAP
70
70
E8
B6
AE
EE
DE
FC
ENDCHAR
STARTCHAR Nacute
ENCODING 323
SWIDTH 853 0
DWIDTH 8 0
BBX 7 10 0 -1
BITMAP
3E
62
5E
EA
F6
FA
EE
EA
DA
EC
ENDCHAR
STARTCHAR nacute
ENCODING 324
SWIDTH 853 0
DWIDTH 8 0
BBX 7 10 0 -1
BITMAP
3E
62
5E
EA
F6
FA
EE
EA
DA
EC
ENDCHAR
STARTCHAR Ncommaaccent
ENCODING 325
SWIDTH 853 0
DWIDTH 8 0
BBX 7 11 0 -4
BITMAP
7E
FA
EA
FA
EE
EA
CA
FC
34
28
30
ENDCHAR
STARTCHAR ncommaaccent
ENCODING 326
SWIDTH 853 0
DWIDTH 8 0
BBX 7 11 0 -4
BITMAP
7E
FA
EA
FA
EE
EA
CA
FC
34
28
30
ENDCHAR
STARTCHAR Ncaron
ENCODING 327
SWIDTH 853 0
DWIDTH 8 0
BBX 7 10 0 -1
BITMAP
7E
7A
5E
EA
F6
FA
EE
EA
DA
EC
ENDCHAR
STARTCHAR ncaron
ENCODING 328
SWIDTH 853 0
DWIDTH 8 0
BBX 7 10 0 -1
BITMAP
7E
7A
5E
EA
F6
FA
EE
EA
DA
EC
ENDCHAR
STARTCHAR napostrophe
ENCODING 329
SWIDTH 853 0
DWIDTH 8 0
BBX 7 12 0 -1
BITMAP
30
70
F0
E0
DE
EA
F6
FA
EE
EA
DA
EC
ENDCHAR
STARTCHAR Eng
ENCODING 330
SWIDTH 846 0
DWIDTH 8 0
BBX 7 9 0 -2
BITMAP
3E
62
EA
EA
EA
EA
D6
F2
1C
ENDCHAR
STARTCHAR eng
ENCODING 331
SWIDTH 846 0
DWIDTH 8 0
BBX 7 9 0 -2
BITMAP
3E
62
EA
EA
EA
EA
D6
F2
1C
ENDCHAR
STARTCHAR Omacron
ENCODING 332
SWIDTH 837 0
DWIDTH 8 0
BBX 7 10 0 -1
BITMAP
3E
42
3E
62
EA
EA
EA
E2
DE
7C
ENDCHAR
STARTCHAR omacron
ENCODING 333
SWIDTH 837 0
DWIDTH 8 0
BBX 7 10 0 -1
BITMAP
3E
42
3E
62
EA
EA
EA
E2
DE
7C
ENDCHAR
STARTCHAR Obreve
ENCODING 334
SWIDTH 837 0
DWIDTH 8 0
BBX 7 11 0 -1
BITMAP
34
5C
6A
3E
62
EA
EA
EA
E2
DE
7C
ENDCHAR
STARTCHAR obreve
ENCODING 335
SWIDTH 837 0
DWIDTH 8 0
BBX 7 11 0 -1
BITMAP
34
5C
6A
3E
62
EA
EA
EA
E2
DE
7C
ENDCHAR
STARTCHAR Ohungarumlaut
ENCODING 336
SWIDTH 837 0
DWIDTH 8 0
BBX 7 12 0 -1
BITMAP
16
3A
6A
4A
3E
62
EA
EA
EA
E2
DE
7C
ENDCHAR
STARTCHAR ohungarumlaut
ENCODING 337
SWIDTH 837 0
DWIDTH 8 0
BBX 7 12 0 -1
BITMAP
16
3A
6A
4A
3E
62
EA
EA
EA
E2
DE
7C
ENDCHAR
STARTCHAR OE
ENCODING 338
SWIDTH 1115 0
DWIDTH 10 0
BBX 10 8 0 -1
BITMAP
3FC0
5FC0
EB80
EB40
EA40
EBC0
DFC0
7F80
ENDCHAR
STARTCHAR oe
ENCODING 339
SWIDTH 1115 0
DWIDTH 10 0
BBX 10 8 0 -1
BITMAP
3FC0
5FC0
EB80
EB40
EA40
EBC0
DFC0
7F80
ENDCHAR
STARTCHAR Racute
ENCODING 340
SWIDTH 843 0
DWIDTH 8 0
BBX 7 10 0 -1
BITMAP
3E
42
7E
DA
EE
DE
E2
EA
CA
FE
ENDCHAR
STARTCHAR racute
ENCODING 341
SWIDTH 843 0
DWIDTH 8 0
BBX 7 10 0 -1
BITMAP
3E
42
7E
DA
EE
DE
E2
EA
CA
FE
ENDCHAR
STARTCHAR Rcommaaccent
ENCODING 342
SWIDTH 843 0
DWIDTH 8 0
BBX 7 11 0 -4
BITMAP
7E
E6
EE
DE
EA
EA
CA
FE
3C
34
38
ENDCHAR
STARTCHAR rcommaaccent
ENCODING 343
SWIDTH 843 0
DWIDTH 8 0
BBX 7 11 0 -4
BITMAP
7E
E6
EE
DE
EA
EA
CA
FE
3C
34
38
ENDCHAR
STARTCHAR Rcaron
ENCODING 344
SWIDTH 843 0
DWIDTH 8 0
BBX 7 11 0 -1
BITMAP
20
3E
7A
7C
5A
EE
DE
E2
EA
CA
FE
ENDCHAR
STARTCHAR rcaron
ENCODING 345
SWIDTH 843 0
DWIDTH 8 0
BBX 7 11 0 -1
BITMAP
20
3E
7A
7C
5A
EE
DE
E2
EA
CA
FE
ENDCHAR
STARTCHAR Sacute
ENCODING 346
SWIDTH 750 0
DWIDTH 7 0
BBX 7 10 0 -1
BITMAP
3C
44
7A
5A
EC
E2
FE
46
FE
F8
ENDCHAR
STARTCHAR sacute
ENCODING 347
SWIDTH 750 0
DWIDTH 7 0
BBX 7 10 0 -1
BITMAP
3C
44
7A
5A
EC
E2
FE
46
FE
F8
ENDCHAR
STARTCHAR Scircumflex
ENCODING 348
SWIDTH 750 0
DWIDTH 7 0
BBX 7 11 0 -1
BITMAP
18
74
7C
42
5A
EC
E2
FE
46
FE
F8
ENDCHAR
STARTCHAR scircumflex
ENCODING 349
SWIDTH 750 0
DWIDTH 7 0
BBX 7 11 0 -1
BITMAP
18
74
7C
42
5A
EC
E2
FE
46
FE
F8
ENDCHAR
STARTCHAR Scedilla
ENCODING 350
SWIDTH 750 0
DWIDTH 7 0
BBX 7 9 0 -2
BITMAP
7E
5A
EC
E2
FE
46
FE
F8
70
ENDCHAR
STARTCHAR scedilla
ENCODING 351
SWIDTH 750 0
DWIDTH 7 0
BBX 7 9 0 -2
BITMAP
7E
5A
EC
E2
FE
46
FE
F8
70
ENDCHAR
STARTCHAR Scaron
ENCODING 352
SWIDTH 750 0
DWIDTH 7 0
BBX 7 11 0 -1
BITMAP
20
5C
7C
42
5A
EC
E2
FE
46
FE
F8
ENDCHAR
STARTCHAR scaron
ENCODING 353
SWIDTH 750 0
DWIDTH 7 0
BBX 7 11 0 -1
BITMAP
20
5C
7C
42
5A
EC
E2
FE
46
FE
F8
ENDCHAR
STARTCHAR Tcommaaccent
ENCODING 354
SWIDTH 756 0
DWIDTH 7 0
BBX 7 11 0 -4
BITMAP
7E
92
F4
34
34
34
38
24
38
38
30
ENDCHAR
STARTCHAR tcommaaccent
ENCODING 355
SWIDTH 756 0
DWIDTH 7 0
BBX 7 11 0 -4
BITMAP
7E
92
F4
34
34
34
38
24
38
38
30
ENDCHAR
STARTCHAR Tcaron
ENCODING 356
SWIDTH 756 0
DWIDTH 7 0
BBX 7 11 0 -1
BITMAP
20
5C
7C
42
BE
F4
34
34
34
24
38
ENDCHAR
STARTCHAR tcaron
ENCODING 357
SWIDTH 756 0
DWIDTH 7 0
BBX 7 11 0 -1
BITMAP
20
5C
7C
42
BE
F4
34
34
34
24
38
ENDCHAR
STARTCHAR Tbar
ENCODING 358
SWIDTH 756 0
DWIDTH 7 0
BBX 7 8 0 -1
BITMAP
7E
BE
F4
5C
74
74
24
38
ENDCHAR
STARTCHAR tbar
ENCODING 359
SWIDTH 756 0
DWIDTH 7 0
BBX 7 8 0 -1
BITMAP
7E
BE
F4
5C
74
74
24
38
ENDCHAR
STARTCHAR Utilde
ENCODING 360
SWIDTH 846 0
DWIDTH 8 0
BBX 7 11 0 -1
BITMAP
16
2A
72
4E
EA
EA
EA
EA
DE
C2
7C
ENDCHAR
STARTCHAR utilde
ENCODING 361
SWIDTH 846 0
DWIDTH 8 0
BBX 7 11 0 -1
BITMAP
16
2A
72
4E
EA
EA
EA
EA
DE
C2
7C
ENDCHAR
STARTCHAR Umacron
ENCODING 362
SWIDTH 846 0
DWIDTH 8 0
BBX 7 10 0 -1
BITMAP
1E
62
5E
EA
EA
EA
EA
DE
C2
7C
ENDCHAR
STARTCHAR umacron
ENCODING 363
SWIDTH 846 0
DWIDTH 8 0
BBX 7 10 0 -1
BITMAP
1E
62
5E
EA
EA
EA
EA
DE
C2
7C
ENDCHAR
STARTCHAR Ubreve
ENCODING 364
SWIDTH 846 0
DWIDTH 8 0
BBX 7 11 0 -1
BITMAP
34
5C
6C
5A
EA
EA
EA
EA
DE
C2
7C
ENDCHAR
STARTCHAR ubreve
ENCODING 365
SWIDTH 846 0
DWIDTH 8 0
BBX 7 11 0 -1
BITMAP
34
5C
6C
5A
EA
EA
EA
EA
DE
C2
7C
ENDCHAR
STARTCHAR Uring
ENCODING 366
SWIDTH 846 0
DWIDTH 8 0
BBX 7 12 0 -1
BITMAP
18
2C
54
6A
5E
EA
EA
EA
EA
DE
C2
7C
ENDCHAR
STARTCHAR uring
ENCODING 367
SWIDTH 846 0
DWIDTH 8 0
BBX 7 12 0 -1
BITMAP
18
2C
54
6A
5E
EA
EA
EA
EA
DE
C2
7C
ENDCHAR
STARTCHAR Uhungarumlaut
ENCODING 368
SWIDTH 846 0
DWIDTH 8 0
BBX 7 12 0 -1
BITMAP
16
2A
3E
4A
7E
EA
EA
EA
EA
DE
C2
7C
ENDCHAR
STARTCHAR uhungarumlaut
ENCODING 369
SWIDTH 846 0
DWIDTH 8 0
BBX 7 12 0 -1
BITMAP
16
2A
3E
4A
7E
EA
EA
EA
EA
DE
C2
7C
ENDCHAR
STARTCHAR Uogonek
ENCODING 370
SWIDTH 846 0
DWIDTH 8 0
BBX 7 10 0 -3
BITMAP
7E
EA
EA
EA
EA
EA
DE
7C
34
38
ENDCHAR
STARTCHAR uogonek
ENCODING 371
SWIDTH 846 0
DWIDTH 8 0
BBX 7 10 0 -3
BITMAP
7E
EA
EA
EA
EA
EA
DE
7C
34
38
ENDCHAR
STARTCHAR Wcircumflex
ENCODING 372
SWIDTH 931 0
DWIDTH 8 0
BBX 8 11 0 -1
BITMAP
1C
2A
3E
4D
F7
EF
FF
EF
EF
5A
6E
ENDCHAR
STARTCHAR wcircumflex
ENCODING 373
SWIDTH 931 0
DWIDTH 8 0
BBX 8 11 0 -1
BITMAP
1C
2A
3E
4D
F7
EF
FF
EF
EF
5A
6E
ENDCHAR
STARTCHAR Ycircumflex
ENCODING 374
SWIDTH 805 0
DWIDTH 7 0
BBX 7 11 0 -1
BITMAP
1C
2A
7C
5A
BE
AE
D6
6C
68
24
38
ENDCHAR
STARTCHAR ycircumflex
ENCODING 375
SWIDTH 805 0
DWIDTH 7 0
BBX 7 11 0 -1
BITMAP
1C
2A
7C
5A
BE
AE
D6
6C
68
24
38
ENDCHAR
STARTCHAR Ydieresis
ENCODING 376
SWIDTH 805 0
DWIDTH 7 0
BBX 7 11 0 -1
BITMAP
3C
54
4A
7E
BE
AE
E6
5C
68
24
38
ENDCHAR
STARTCHAR Zacute
ENCODING 377
SWIDTH 760 0
DWIDTH 7 0
BBX 7 10 0 -1
BITMAP
3C
44
7A
FA
E4
2C
58
6E
9E
FC
ENDCHAR
STARTCHAR zacute
ENCODING 378
SWIDTH 760 0
DWIDTH 7 0
BBX 7 10 0 -1
BITMAP
3C
44
7A
FA
E4
2C
58
6E
9E
FC
ENDCHAR
STARTCHAR Zdotaccent
ENCODING 379
SWIDTH 760 0
DWIDTH 7 0
BBX 7 11 0 -1
BITMAP
18
28
24
5A
FA
E4
2C
58
6E
9E
FC
ENDCHAR
STARTCHAR zdotaccent
ENCODING 380
SWIDTH 760 0
DWIDTH 7 0
BBX 7 11 0 -1
BITMAP
18
28
24
5A
FA
E4
2C
58
6E
9E
FC
ENDCHAR
STARTCHAR Zcaron
ENCODING 381
SWIDTH 760 0
DWIDTH 7 0
BBX 7 11 0 -1
BITMAP
20
5C
7C
42
FA
E4
2C
58
6E
9E
FC
ENDCHAR
STARTCHAR zcaron
ENCODING 382
SWIDTH 760 0
DWIDTH 7 0
BBX 7 11 0 -1
BITMAP
20
5C
7C
42
FA
E4
2C
58
6E
9E
FC
ENDCHAR
STARTCHAR Schwa
ENCODING 399
SWIDTH 815 0
DWIDTH 7 0
BBX 7 8 0 -1
BITMAP
7E
46
7E
7E
EE
DA
C2
7C
ENDCHAR
STARTCHAR florin
ENCODING 402
SWIDTH 674 0
DWIDTH 6 0
BBX 6 8 0 -1
BITMAP
1C
2C
74
7C
F4
98
B8
E0
ENDCHAR
STARTCHAR Ohorn
ENCODING 416
SWIDTH 847 0
DWIDTH 8 0
BBX 8 9 0 -1
BITMAP
03
3D
62
EA
EA
EA
E2
DE
7C
ENDCHAR
STARTCHAR ohorn
ENCODING 417
SWIDTH 847 0
DWIDTH 8 0
BBX 8 9 0 -1
BITMAP
03
3D
62
EA
EA
EA
E2
DE
7C
ENDCHAR
STARTCHAR Uhorn
ENCODING 431
SWIDTH 856 0
DWIDTH 8 0
BBX 8 9 0 -1
BITMAP
03
7F
EA
EA
EA
EA
DD
C2
7C
ENDCHAR
STARTCHAR uhorn
ENCODING 432
SWIDTH 856 0
DWIDTH 8 0
BBX 8 9 0 -1
BITMAP
03
7F
EA
EA
EA
EA
DD
C2
7C
ENDCHAR
STARTCHAR Acaron
ENCODING 461
SWIDTH 830 0
DWIDTH 7 0
BBX 7 11 0 -1
BITMAP
20
5E
7C
62
4A
5E
6A
FE
FA
DA
EC
ENDCHAR
STARTCHAR acaron
ENCODING 462
SWIDTH 830 0
DWIDTH 7 0
BBX 7 11 0 -1
BITMAP
20
5E
7C
62
4A
5E
6A
FE
FA
DA
EC
ENDCHAR
STARTCHAR Icaron
ENCODING 463
SWIDTH 705 0
DWIDTH 6 0
BBX 6 11 0 -1
BITMAP
20
5C
7C
44
FC
F4
78
78
74
FC
F8
ENDCHAR
STARTCHAR icaron
ENCODING 464
SWIDTH 705 0
DWIDTH 6 0
BBX 6 11 0 -1
BITMAP
20
5C
7C
44
FC
F4
78
78
74
FC
F8
ENDCHAR
STARTCHAR Ocaron
ENCODING 465
SWIDTH 837 0
DWIDTH 8 0
BBX 7 11 0 -1
BITMAP
20
5E
64
5E
62
EA
EA
EA
E2
DE
7C
ENDCHAR
STARTCHAR ocaron
ENCODING 466
SWIDTH 837 0
DWIDTH 8 0
BBX 7 11 0 -1
BITMAP
20
5E
64
5E
62
EA
EA
EA
E2
DE
7C
ENDCHAR
STARTCHAR Ucaron
ENCODING 467
SWIDTH 846 0
DWIDTH 8 0
BBX 7 10 0 -1
BITMAP
7E
64
5A
EA
EA
EA
EA
DE
C2
7C
ENDCHAR
STARTCHAR ucaron
ENCODING 468
SWIDTH 846 0
DWIDTH 8 0
BBX 7 10 0 -1
BITMAP
7E
64
5A
EA
EA
EA
EA
DE
C2
7C
ENDCHAR
STARTCHAR Udieresismacron
ENCODING 469
SWIDTH 846 0
DWIDTH 8 0
BBX 7 13 0 -1
BITMAP
3C
5A
7C
5E
4A
7E
EA
EA
EA
EA
DE
C2
7C
ENDCHAR
STARTCHAR udieresismacron
ENCODING 470
SWIDTH 846 0
DWIDTH 8 0
BBX 7 13 0 -1
BITMAP
3C
5A
7C
5E
4A
7E
EA
EA
EA
EA
DE
C2
7C
ENDCHAR
STARTCHAR Udieresisacute
ENCODING 471
SWIDTH 846 0
DWIDTH 8 0
BBX 7 13 0 -1
BITMAP
0C
14
34
5E
4A
7E
EA
EA
EA
EA
DE
C2
7C
ENDCHAR
STARTCHAR udieresisacute
ENCODING 472
SWIDTH 846 0
DWIDTH 8 0
BBX 7 13 0 -1
BITMAP
0C
14
34
5E
4A
7E
EA
EA
EA
EA
DE
C2
7C
ENDCHAR
STARTCHAR Udieresiscaron
ENCODING 473
SWIDTH 846 0
DWIDTH 8 0
BBX 7 13 0 -1
BITMAP
3E
7A
7C
5E
4A
7E
EA
EA
EA
EA
DE
C2
7C
ENDCHAR
STARTCHAR udieresiscaron
ENCODING 474
SWIDTH 846 0
DWIDTH 8 0
BBX 7 13 0 -1
BITMAP
3E
7A
7C
5E
4A
7E
EA
EA
EA
EA
DE
C2
7C
ENDCHAR
STARTCHAR Udieresisgrave
ENCODING 475
SWIDTH 846 0
DWIDTH 8 0
BBX 7 13 0 -1
BITMAP
18
28
24
5E
4A
7E
EA
EA
EA
EA
DE
C2
7C
ENDCHAR
STARTCHAR udieresisgrave
ENCODING 476
SWIDTH 846 0
DWIDTH 8 0
BBX 7 13 0 -1
BITMAP
18
28
24
5E
4A
7E
EA
EA
EA
EA
DE
C2
7C
ENDCHAR
STARTCHAR Gcaron
ENCODING 486
SWIDTH 808 0
DWIDTH 7 0
BBX 7 11 0 -1
BITMAP
20
5E
7C
42
5C
EC
F6
EE
EE
DE
7C
ENDCHAR
STARTCHAR gcaron
ENCODING 487
SWIDTH 808 0
DWIDTH 7 0
BBX 7 11 0 -1
BITMAP
20
5E
7C
42
5C
EC
F6
EE
EE
DE
7C
ENDCHAR
STARTCHAR Scommaaccent
ENCODING 536
SWIDTH 750 0
DWIDTH 7 0
BBX 7 11 0 -4
BITMAP
7E
62
FC
CE
F6
7A
FC
E4
38
38
30
ENDCHAR
STARTCHAR scommaaccent
ENCODING 537
SWIDTH 750 0
DWIDTH 7 0
BBX 7 11 0 -4
BITMAP
7E
62
FC
CE
F6
7A
FC
E4
38
38
30
ENDCHAR
STARTCHAR uni021A
ENCODING 538
SWIDTH 756 0
DWIDTH 7 0
BBX 7 11 0 -4
BITMAP
7E
92
F4
34
34
34
38
24
38
38
30
ENDCHAR
STARTCHAR uni021B
ENCODING 539
SWIDTH 756 0
DWIDTH 7 0
BBX 7 11 0 -4
BITMAP
7E
92
F4
34
34
34
38
24
38
38
30
ENDCHAR
STARTCHAR dotlessj
ENCODING 567
SWIDTH 788 0
DWIDTH 7 0
BBX 7 8 0 -1
BITMAP
0E
1E
1E
7E
BE
9A
C6
78
ENDCHAR
STARTCHAR ascript
ENCODING 593
SWIDTH 846 0
DWIDTH 8 0
BBX 7 8 0 -1
BITMAP
3E
62
EA
EA
EA
E2
DE
7C
ENDCHAR
STARTCHAR schwa
ENCODING 601
SWIDTH 815 0
DWIDTH 7 0
BBX 7 8 0 -1
BITMAP
7E
46
7E
7E
EE
DA
C2
7C
ENDCHAR
STARTCHAR gscript
ENCODING 609
SWIDTH 815 0
DWIDTH 7 0
BBX 7 8 0 -1
BITMAP
3E
5E
AA
E2
DE
7A
5E
7C
ENDCHAR
STARTCHAR commaturnedmod
ENCODING 699
SWIDTH 600 0
DWIDTH 5 0
BBX 3 4 1 3
BITMAP
60
A0
A0
E0
ENDCHAR
STARTCHAR apostrophemod
ENCODING 700
SWIDTH 600 0
DWIDTH 5 0
BBX 3 4 1 3
BITMAP
60
E0
A0
C0
ENDCHAR
STARTCHAR ringhalfright
ENCODING 702
SWIDTH 412 0
DWIDTH 4 0
BBX 4 4 0 3
BITMAP
70
F0
B0
E0
ENDCHAR
STARTCHAR ringhalfleft
ENCODING 703
SWIDTH 412 0
DWIDTH 4 0
BBX 4 4 0 3
BITMAP
70
B0
B0
E0
ENDCHAR
STARTCHAR circumflex
ENCODING 710
SWIDTH 600 0
DWIDTH 5 0
BBX 5 4 0 6
BITMAP
10
78
98
F8
ENDCHAR
STARTCHAR caron
ENCODING 711
SWIDTH 600 0
DWIDTH 5 0
BBX 5 3 0 6
BITMAP
78
F8
70
ENDCHAR
STARTCHAR verticallinemod
ENCODING 712
SWIDTH 456 0
DWIDTH 4 0
BBX 4 5 0 2
BITMAP
70
F0
F0
D0
E0
ENDCHAR
STARTCHAR firsttonechinese
ENCODING 713
SWIDTH 600 0
DWIDTH 5 0
BBX 5 3 0 6
BITMAP
78
B8
F8
ENDCHAR
STARTCHAR secondtonechinese
ENCODING 714
SWIDTH 600 0
DWIDTH 5 0
BBX 5 3 0 6
BITMAP
78
A8
F0
ENDCHAR
STARTCHAR fourthtonechinese
ENCODING 715
SWIDTH 600 0
DWIDTH 5 0
BBX 5 3 0 6
BITMAP
78
C8
F8
ENDCHAR
STARTCHAR verticallinelowmod
ENCODING 716
SWIDTH 456 0
DWIDTH 4 0
BBX 4 5 0 -2
BITMAP
70
F0
F0
D0
E0
ENDCHAR
STARTCHAR breve
ENCODING 728
SWIDTH 600 0
DWIDTH 5 0
BBX 5 4 0 6
BITMAP
68
B8
D8
F0
ENDCHAR
STARTCHAR dotaccent
ENCODING 729
SWIDTH 600 0
DWIDTH 5 0
BBX 3 3 1 6
BITMAP
60
A0
E0
ENDCHAR
STARTCHAR ring
ENCODING 730
SWIDTH 600 0
DWIDTH 5 0
BBX 5 5 0 6
BITMAP
30
58
B8
D8
F0
ENDCHAR
STARTCHAR ogonek
ENCODING 731
SWIDTH 600 0
DWIDTH 5 0
BBX 4 4 1 -3
BITMAP
60
A0
90
E0
ENDCHAR
STARTCHAR tilde
ENCODING 732
SWIDTH 600 0
DWIDTH 5 0
BBX 5 3 0 6
BITMAP
78
A8
F0
ENDCHAR
STARTCHAR hungarumlaut
ENCODING 733
SWIDTH 600 0
DWIDTH 5 0
BBX 6 4 0 6
BITMAP
6C
B8
94
F8
ENDCHAR
STARTCHAR gravecmb
ENCODING 768
SWIDTH 100 0
DWIDTH 1 0
BBX 5 3 -2 6
BITMAP
F8
98
F0
ENDCHAR
STARTCHAR acutecmb
ENCODING 769
SWIDTH 100 0
DWIDTH 1 0
BBX 5 3 -2 6
BITMAP
78
A8
F0
ENDCHAR
STARTCHAR circumflexcmb
ENCODING 770
SWIDTH 100 0
DWIDTH 1 0
BBX 5 4 -2 6
BITMAP
30
D8
B8
F0
ENDCHAR
STARTCHAR tildecmb
ENCODING 771
SWIDTH 100 0
DWIDTH 1 0
BBX 5 3 -2 6
BITMAP
78
A8
F0
ENDCHAR
STARTCHAR uni0304
ENCODING 772
SWIDTH 600 0
DWIDTH 5 0
BBX 5 3 0 6
BITMAP
78
B8
F8
ENDCHAR
STARTCHAR brevecmb
ENCODING 774
SWIDTH 100 0
DWIDTH 1 0
BBX 5 4 -2 6
BITMAP
68
D8
B8
F0
ENDCHAR
STARTCHAR dotaccentcmb
ENCODING 775
SWIDTH 100 0
DWIDTH 1 0
BBX 3 3 -1 6
BITMAP
60
A0
E0
ENDCHAR
STARTCHAR dieresiscmb
ENCODING 776
SWIDTH 100 0
DWIDTH 1 0
BBX 5 3 -2 6
BITMAP
78
D8
F8
ENDCHAR
STARTCHAR hookcmb
ENCODING 777
SWIDTH 100 0
DWIDTH 1 0
BBX 4 5 -1 6
BITMAP
60
F0
90
E0
80
ENDCHAR
STARTCHAR ringcmb
ENCODING 778
SWIDTH 100 0
DWIDTH 1 0
BBX 5 5 -2 6
BITMAP
70
B8
D8
B8
F0
ENDCHAR
STARTCHAR hungarumlautcmb
ENCODING 779
SWIDTH 100 0
DWIDTH 1 0
BBX 6 4 -2 6
BITMAP
68
BC
94
F8
ENDCHAR
STARTCHAR caroncmb
ENCODING 780
SWIDTH 100 0
DWIDTH 1 0
BBX 5 3 -2 6
BITMAP
F8
B8
E0
ENDCHAR
STARTCHAR horncmb
ENCODING 795
SWIDTH 100 0
DWIDTH 1 0
BBX 3 3 -1 5
BITMAP
60
E0
C0
ENDCHAR
STARTCHAR dotbelowcmb
ENCODING 803
SWIDTH 100 0
DWIDTH 1 0
BBX 3 3 -1 -3
BITMAP
60
A0
E0
ENDCHAR
STARTCHAR dieresisbelowcmb
ENCODING 804
SWIDTH 100 0
DWIDTH 1 0
BBX 5 3 -2 -3
BITMAP
78
D8
F8
ENDCHAR
STARTCHAR commaaccent
ENCODING 806
SWIDTH 600 0
DWIDTH 5 0
BBX 3 4 1 -4
BITMAP
60
E0
A0
C0
ENDCHAR
STARTCHAR cedillacmb
ENCODING 807
SWIDTH 100 0
DWIDTH 1 0
BBX 3 4 -1 -2
BITMAP
40
A0
A0
C0
ENDCHAR
STARTCHAR ogonekcmb
ENCODING 808
SWIDTH 100 0
DWIDTH 1 0
BBX 4 4 -1 -3
BITMAP
60
F0
90
E0
ENDCHAR
STARTCHAR brevebelowcmb
ENCODING 814
SWIDTH 100 0
DWIDTH 1 0
BBX 5 4 -2 -3
BITMAP
68
D8
B8
F0
ENDCHAR
STARTCHAR macronbelowcmb
ENCODING 817
SWIDTH 100 0
DWIDTH 1 0
BBX 5 3 -2 -3
BITMAP
78
B8
F0
ENDCHAR
STARTCHAR uni0394
ENCODING 916
SWIDTH 830 0
DWIDTH 7 0
BBX 7 8 0 -1
BITMAP
3E
5C
5E
6E
6A
F2
DE
FE
ENDCHAR
STARTCHAR uni03A9
ENCODING 937
SWIDTH 877 0
DWIDTH 8 0
BBX 8 8 0 -1
BITMAP
3E
7E
6A
EA
EA
9B
A9
FE
ENDCHAR
STARTCHAR uni03BC
ENCODING 956
SWIDTH 813 0
DWIDTH 7 0
BBX 7 8 0 -2
BITMAP
36
EE
EE
EE
FA
E2
DC
E0
ENDCHAR
STARTCHAR pi
ENCODING 960
SWIDTH 821 0
DWIDTH 7 0
BBX 7 6 0 -1
BITMAP
7E
EE
EE
EE
CA
FC
ENDCHAR
STARTCHAR Ddotbelow
ENCODING 7692
SWIDTH 846 0
DWIDTH 8 0
BBX 7 10 0 -3
BITMAP
7E
DE
EA
EA
EA
EA
DE
FC
2C
38
ENDCHAR
STARTCHAR ddotbelow
ENCODING 7693
SWIDTH 846 0
DWIDTH 8 0
BBX 7 10 0 -3
BITMAP
7E
DE
EA
EA
EA
EA
DE
FC
2C
38
ENDCHAR
STARTCHAR Dlinebelow
ENCODING 7694
SWIDTH 846 0
DWIDTH 8 0
BBX 7 10 0 -3
BITMAP
7E
DE
EA
EA
EA
EA
DE
FC
5A
7C
ENDCHAR
STARTCHAR dlinebelow
ENCODING 7695
SWIDTH 846 0
DWIDTH 8 0
BBX 7 10 0 -3
BITMAP
7E
DE
EA
EA
EA
EA
DE
FC
5A
7C
ENDCHAR
STARTCHAR Gmacron
ENCODING 7712
SWIDTH 808 0
DWIDTH 7 0
BBX 7 10 0 -1
BITMAP
1C
22
7E
5C
EC
F6
EE
EE
DE
7C
ENDCHAR
STARTCHAR gmacron
ENCODING 7713
SWIDTH 808 0
DWIDTH 7 0
BBX 7 10 0 -1
BITMAP
1C
22
7E
5C
EC
F6
EE
EE
DE
7C
ENDCHAR
STARTCHAR Hdotbelow
ENCODING 7716
SWIDTH 859 0
DWIDTH 8 0
BBX 7 10 0 -3
BITMAP
7E
EA
EA
DE
EA
EA
CA
FE
2C
38
ENDCHAR
STARTCHAR hdotbelow
ENCODING 7717
SWIDTH 859 0
DWIDTH 8 0
BBX 7 10 0 -3
BITMAP
7E
EA
EA
DE
EA
EA
CA
FE
2C
38
ENDCHAR
STARTCHAR Hbrevebelow
ENCODING 7722
SWIDTH 859 0
DWIDTH 8 0
BBX 7 10 0 -3
BITMAP
7E
EA
EA
DE
EA
EA
CA
FC
6A
7C
ENDCHAR
STARTCHAR hbrevebelow
ENCODING 7723
SWIDTH 859 0
DWIDTH 8 0
BBX 7 10 0 -3
BITMAP
7E
EA
EA
DE
EA
EA
CA
FC
6A
7C
ENDCHAR
STARTCHAR Ldotbelow
ENCODING 7734
SWIDTH 795 0
DWIDTH 7 0
BBX 7 10 0 -3
BITMAP
70
F0
F0
F6
EE
EE
DE
FC
28
38
ENDCHAR
STARTCHAR ldotbelow
ENCODING 7735
SWIDTH 795 0
DWIDTH 7 0
BBX 7 10 0 -3
BITMAP
70
F0
F0
F6
EE
EE
DE
FC
28
38
ENDCHAR
STARTCHAR Ldotbelowmacron
ENCODING 7736
SWIDTH 795 0
DWIDTH 7 0
BBX 7 12 0 -3
BITMAP
3C
42
7C
F0
F0
F6
EE
EE
DE
FC
28
38
ENDCHAR
STARTCHAR ldotbelowmacron
ENCODING 7737
SWIDTH 795 0
DWIDTH 7 0
BBX 7 12 0 -3
BITMAP
3C
42
7C
F0
F0
F6
EE
EE
DE
FC
28
38
ENDCHAR
STARTCHAR Llinebelow
ENCODING 7738
SWIDTH 795 0
DWIDTH 7 0
BBX 7 10 0 -3
BITMAP
70
F0
F0
F6
EE
DE
FE
DA
42
7C
ENDCHAR
STARTCHAR llinebelow
ENCODING 7739
SWIDTH 795 0
DWIDTH 7 0
BBX 7 10 0 -3
BITMAP
70
F0
F0
F6
EE
DE
FE
DA
42
7C
ENDCHAR
STARTCHAR Mdotbelow
ENCODING 7746
SWIDTH 949 0
DWIDTH 9 0
BBX 8 10 0 -3
BITMAP
77
EB
F7
FF
F7
EF
D5
EE
1C
18
ENDCHAR
STARTCHAR mdotbelow
ENCODING 7747
SWIDTH 949 0
DWIDTH 9 0
BBX 8 10 0 -3
BITMAP
77
EB
F7
FF
F7
EF
D5
EE
1C
18
ENDCHAR
STARTCHAR Ndotaccent
ENCODING 7748
SWIDTH 853 0
DWIDTH 8 0
BBX 7 11 0 -1
BITMAP
18
2C
24
5A
EA
F6
FA
EE
EA
DA
EC
ENDCHAR
STARTCHAR ndotaccent
ENCODING 7749
SWIDTH 853 0
DWIDTH 8 0
BBX 7 11 0 -1
BITMAP
18
2C
24
5A
EA
F6
FA
EE
EA
DA
EC
ENDCHAR
STARTCHAR Ndotbelow
ENCODING 7750
SWIDTH 853 0
DWIDTH 8 0
BBX 7 10 0 -3
BITMAP
7E
EA
F6
FA
EE
EA
CA
FC
2C
38
ENDCHAR
STARTCHAR ndotbelow
ENCODING 7751
SWIDTH 853 0
DWIDTH 8 0
BBX 7 10 0 -3
BITMAP
7E
EA
F6
FA
EE
EA
CA
FC
2C
38
ENDCHAR
STARTCHAR Nlinebelow
ENCODING 7752
SWIDTH 853 0
DWIDTH 8 0
BBX 7 10 0 -3
BITMAP
7E
FA
EA
FA
EE
EA
CA
FE
62
7C
ENDCHAR
STARTCHAR nlinebelow
ENCODING 7753
SWIDTH 853 0
DWIDTH 8 0
BBX 7 10 0 -3
BITMAP
7E
FA
EA
FA
EE
EA
CA
FE
62
7C
ENDCHAR
STARTCHAR Rdotbelow
ENCODING 7770
SWIDTH 843 0
DWIDTH 8 0
BBX 7 10 0 -3
BITMAP
7E
DA
EE
DE
E2
EA
CA
FE
2C
38
ENDCHAR
STARTCHAR rdotbelow
ENCODING 7771
SWIDTH 843 0
DWIDTH 8 0
BBX 7 10 0 -3
BITMAP
7E
DA
EE
DE
E2
EA
CA
FE
2C
38
ENDCHAR
STARTCHAR Rdotbelowmacron
ENCODING 7772
SWIDTH 843 0
DWIDTH 8 0
BBX 7 12 0 -3
BITMAP
3C
44
7C
5A
EE
DE
E2
EA
CA
FE
2C
38
ENDCHAR
STARTCHAR rdotbelowmacron
ENCODING 7773
SWIDTH 843 0
DWIDTH 8 0
BBX 7 12 0 -3
BITMAP
3C
44
7C
5A
EE
DE
E2
EA
CA
FE
2C
38
ENDCHAR
STARTCHAR Rlinebelow
ENCODING 7774
SWIDTH 843 0
DWIDTH 8 0
BBX 7 10 0 -3
BITMAP
7E
E6
EE
DE
E2
EA
CA
FE
62
7C
ENDCHAR
STARTCHAR rlinebelow
ENCODING 7775
SWIDTH 843 0
DWIDTH 8 0
BBX 7 10 0 -3
BITMAP
7E
E6
EE
DE
E2
EA
CA
FE
62
7C
ENDCHAR
STARTCHAR Sdotaccent
ENCODING 7776
SWIDTH 750 0
DWIDTH 7 0
BBX 7 11 0 -1
BITMAP
18
28
24
5A
5A
EC
E2
FE
46
FE
F8
ENDCHAR
STARTCHAR sdotaccent
ENCODING 7777
SWIDTH 750 0
DWIDTH 7 0
BBX 7 11 0 -1
BITMAP
18
28
24
5A
5A
EC
E2
FE
46
FE
F8
ENDCHAR
STARTCHAR Sdotbelow
ENCODING 7778
SWIDTH 750 0
DWIDTH 7 0
BBX 7 10 0 -3
BITMAP
7E
5A
EC
E2
FE
46
FA
FC
28
38
ENDCHAR
STARTCHAR sdotbelow
ENCODING 7779
SWIDTH 750 0
DWIDTH 7 0
BBX 7 10 0 -3
BITMAP
7E
5A
EC
E2
FE
46
FA
FC
28
38
ENDCHAR
STARTCHAR Tdotbelow
ENCODING 7788
SWIDTH 756 0
DWIDTH 7 0
BBX 7 10 0 -3
BITMAP
7E
BE
F4
34
34
34
24
38
34
38
ENDCHAR
STARTCHAR tdotbelow
ENCODING 7789
SWIDTH 756 0
DWIDTH 7 0
BBX 7 10 0 -3
BITMAP
7E
BE
F4
34
34
34
24
38
34
38
ENDCHAR
STARTCHAR Tlinebelow
ENCODING 7790
SWIDTH 756 0
DWIDTH 7 0
BBX 7 10 0 -3
BITMAP
7E
92
F4
34
34
34
24
3C
44
78
ENDCHAR
STARTCHAR tlinebelow
ENCODING 7791
SWIDTH 756 0
DWIDTH 7 0
BBX 7 10 0 -3
BITMAP
7E
92
F4
34
34
34
24
3C
44
78
ENDCHAR
STARTCHAR Wgrave
ENCODING 7808
SWIDTH 931 0
DWIDTH 8 0
BBX 8 10 0 -1
BITMAP
3E
22
5D
F7
EF
FF
EF
EF
5A
6E
ENDCHAR
STARTCHAR wgrave
ENCODING 7809
SWIDTH 931 0
DWIDTH 8 0
BBX 8 10 0 -1
BITMAP
3E
22
5D
F7
EF
FF
EF
EF
5A
6E
ENDCHAR
STARTCHAR Wacute
ENCODING 7810
SWIDTH 931 0
DWIDTH 8 0
BBX 8 10 0 -1
BITMAP
1E
22
5D
F7
EF
FF
EF
EF
5A
6E
ENDCHAR
STARTCHAR wacute
ENCODING 7811
SWIDTH 931 0
DWIDTH 8 0
BBX 8 10 0 -1
BITMAP
1E
22
5D
F7
EF
FF
EF
EF
5A
6E
ENDCHAR
STARTCHAR Wdieresis
ENCODING 7812
SWIDTH 931 0
DWIDTH 8 0
BBX 8 11 0 -1
BITMAP
16
3E
6A
5D
F7
EF
FF
EF
EF
5A
6E
ENDCHAR
STARTCHAR wdieresis
ENCODING 7813
SWIDTH 931 0
DWIDTH 8 0
BBX 8 11 0 -1
BITMAP
16
3E
6A
5D
F7
EF
FF
EF
EF
5A
6E
ENDCHAR
STARTCHAR Ydotaccent
ENCODING 7822
SWIDTH 805 0
DWIDTH 7 0
BBX 7 11 0 -1
BITMAP
18
28
24
5A
BE
AE
E6
7C
68
24
38
ENDCHAR
STARTCHAR ydotaccent
ENCODING 7823
SWIDTH 805 0
DWIDTH 7 0
BBX 7 11 0 -1
BITMAP
18
28
24
5A
BE
AE
E6
7C
68
24
38
ENDCHAR
STARTCHAR Zdotbelow
ENCODING 7826
SWIDTH 760 0
DWIDTH 7 0
BBX 7 10 0 -3
BITMAP
7E
FA
F4
2C
58
6E
9E
FC
28
38
ENDCHAR
STARTCHAR zdotbelow
ENCODING 7827
SWIDTH 760 0
DWIDTH 7 0
BBX 7 10 0 -3
BITMAP
7E
FA
F4
2C
58
6E
9E
FC
28
38
ENDCHAR
STARTCHAR tdieresis
ENCODING 7831
SWIDTH 756 0
DWIDTH 7 0
BBX 7 11 0 -1
BITMAP
3C
74
52
AE
BE
F4
34
34
34
24
38
ENDCHAR
STARTCHAR Germandbls
ENCODING 7838
SWIDTH 859 0
DWIDTH 8 0
BBX 8 8 0 -1
BITMAP
7E
DA
EE
F5
EF
F3
F7
FC
ENDCHAR
STARTCHAR Adotbelow
ENCODING 7840
SWIDTH 830 0
DWIDTH 7 0
BBX 7 10 0 -3
BITMAP
3E
4A
5E
6A
FE
FA
DA
FC
28
38
ENDCHAR
STARTCHAR adotbelow
ENCODING 7841
SWIDTH 830 0
DWIDTH 7 0
BBX 7 10 0 -3
BITMAP
3E
4A
5E
6A
FE
FA
DA
FC
28
38
ENDCHAR
STARTCHAR Ahookabove
ENCODING 7842
SWIDTH 830 0
DWIDTH 7 0
BBX 7 11 0 -1
BITMAP
18
34
3C
22
4A
5E
6A
FE
FA
DA
EC
ENDCHAR
STARTCHAR ahookabove
ENCODING 7843
SWIDTH 830 0
DWIDTH 7 0
BBX 7 11 0 -1
BITMAP
18
34
3C
22
4A
5E
6A
FE
FA
DA
EC
ENDCHAR
STARTCHAR Acircumflexacute
ENCODING 7844
SWIDTH 830 0
DWIDTH 7 0
BBX 7 13 0 -1
BITMAP
02
0E
1E
2A
5C
62
4A
5E
6A
FE
FA
DA
EC
ENDCHAR
STARTCHAR acircumflexacute
ENCODING 7845
SWIDTH 830 0
DWIDTH 7 0
BBX 7 13 0 -1
BITMAP
02
0E
1E
2A
5C
62
4A
5E
6A
FE
FA
DA
EC
ENDCHAR
STARTCHAR Acircumflexgrave
ENCODING 7846
SWIDTH 830 0
DWIDTH 7 0
BBX 7 12 0 -1
BITMAP
0C
1A
2E
5C
62
4A
5E
6A
FE
FA
DA
EC
ENDCHAR
STARTCHAR acircumflexgrave
ENCODING 7847
SWIDTH 830 0
DWIDTH 7 0
BBX 7 12 0 -1
BITMAP
0C
1A
2E
5C
62
4A
5E
6A
FE
FA
DA
EC
ENDCHAR
STARTCHAR Acircumflexhookabove
ENCODING 7848
SWIDTH 830 0
DWIDTH 7 0
BBX 7 13 0 -1
BITMAP
06
1A
1E
2A
5C
62
4A
5E
6A
FE
FA
DA
EC
ENDCHAR
STARTCHAR acircumflexhookabove
ENCODING 7849
SWIDTH 830 0
DWIDTH 7 0
BBX 7 13 0 -1
BITMAP
06
1A
1E
2A
5C
62
4A
5E
6A
FE
FA
DA
EC
ENDCHAR
STARTCHAR Acircumflextilde
ENCODING 7850
SWIDTH 830 0
DWIDTH 7 0
BBX 7 13 0 -1
BITMAP
14
2A
7C
4A
5C
62
4A
5E
6A
FE
FA
DA
EC
ENDCHAR
STARTCHAR acircumflextilde
ENCODING 7851
SWIDTH 830 0
DWIDTH 7 0
BBX 7 13 0 -1
BITMAP
14
2A
7C
4A
5C
62
4A
5E
6A
FE
FA
DA
EC
ENDCHAR
STARTCHAR Acircumflexdotbelow
ENCODING 7852
SWIDTH 830 0
DWIDTH 7 0
BBX 7 13 0 -3
BITMAP
1C
2A
5C
62
4A
5E
6A
FE
FA
DA
FC
28
38
ENDCHAR
STARTCHAR acircumflexdotbelow
ENCODING 7853
SWIDTH 830 0
DWIDTH 7 0
BBX 7 13 0 -3
BITMAP
1C
2A
5C
62
4A
5E
6A
FE
FA
DA
FC
28
38
ENDCHAR
STARTCHAR Abreveacute
ENCODING 7854
SWIDTH 830 0
DWIDTH 7 0
BBX 7 13 0 -1
BITMAP
04
1C
34
5C
6C
72
4A
5E
6A
FE
FA
DA
EC
ENDCHAR
STARTCHAR abreveacute
ENCODING 7855
SWIDTH 830 0
DWIDTH 7 0
BBX 7 13 0 -1
BITMAP
04
1C
34
5C
6C
72
4A
5E
6A
FE
FA
DA
EC
ENDCHAR
STARTCHAR Abrevegrave
ENCODING 7856
SWIDTH 830 0
DWIDTH 7 0
BBX 7 13 0 -1
BITMAP
10
28
24
5C
6C
72
4A
5E
6A
FE
FA
DA
EC
ENDCHAR
STARTCHAR abrevegrave
ENCODING 7857
SWIDTH 830 0
DWIDTH 7 0
BBX 7 13 0 -1
BITMAP
10
28
24
5C
6C
72
4A
5E
6A
FE
FA
DA
EC
ENDCHAR
STARTCHAR Abrevehookabove
ENCODING 7858
SWIDTH 830 0
DWIDTH 7 0
BBX 7 14 0 -1
BITMAP
1C
2A
34
3C
54
6C
72
4A
5E
6A
FE
FA
DA
EC
ENDCHAR
STARTCHAR abrevehookabove
ENCODING 7859
SWIDTH 830 0
DWIDTH 7 0
BBX 7 14 0 -1
BITMAP
1C
2A
34
3C
54
6C
72
4A
5E
6A
FE
FA
DA
EC
ENDCHAR
STARTCHAR Abrevetilde
ENCODING 7860
SWIDTH 830 0
DWIDTH 7 0
BBX 7 13 0 -1
BITMAP
14
2A
7C
5C
6C
72
4A
5E
6A
FE
FA
DA
EC
ENDCHAR
STARTCHAR abrevetilde
ENCODING 7861
SWIDTH 830 0
DWIDTH 7 0
BBX 7 13 0 -1
BITMAP
14
2A
7C
5C
6C
72
4A
5E
6A
FE
FA
DA
EC
ENDCHAR
STARTCHAR Abrevedotbelow
ENCODING 7862
SWIDTH 830 0
DWIDTH 7 0
BBX 7 13 0 -3
BITMAP
34
5C
6C
72
4A
5E
6A
FE
FA
DA
FC
28
38
ENDCHAR
STARTCHAR abrevedotbelow
ENCODING 7863
SWIDTH 830 0
DWIDTH 7 0
BBX 7 13 0 -3
BITMAP
34
5C
6C
72
4A
5E
6A
FE
FA
DA
FC
28
38
ENDCHAR
STARTCHAR Edotbelow
ENCODING 7864
SWIDTH 754 0
DWIDTH 7 0
BBX 7 10 0 -3
BITMAP
7E
DE
EC
DC
E4
EC
DE
FC
28
38
ENDCHAR
STARTCHAR edotbelow
ENCODING 7865
SWIDTH 754 0
DWIDTH 7 0
BBX 7 10 0 -3
BITMAP
7E
DE
EC
DC
E4
EC
DE
FC
28
38
ENDCHAR
STARTCHAR Ehookabove
ENCODING 7866
SWIDTH 754 0
DWIDTH 7 0
BBX 7 11 0 -1
BITMAP
18
24
38
46
DE
EC
DC
E4
EC
DE
FC
ENDCHAR
STARTCHAR ehookabove
ENCODING 7867
SWIDTH 754 0
DWIDTH 7 0
BBX 7 11 0 -1
BITMAP
18
24
38
46
DE
EC
DC
E4
EC
DE
FC
ENDCHAR
STARTCHAR Etilde
ENCODING 7868
SWIDTH 754 0
DWIDTH 7 0
BBX 7 10 0 -1
BITMAP
3C
54
6A
DE
EC
DC
E4
EC
DE
FC
ENDCHAR
STARTCHAR etilde
ENCODING 7869
SWIDTH 754 0
DWIDTH 7 0
BBX 7 10 0 -1
BITMAP
3C
54
6A
DE
EC
DC
E4
EC
DE
FC
ENDCHAR
STARTCHAR Ecircumflexacute
ENCODING 7870
SWIDTH 754 0
DWIDTH 7 0
BBX 7 13 0 -1
BITMAP
04
0A
12
6C
7C
42
DE
EC
DC
E4
EC
DE
FC
ENDCHAR
STARTCHAR ecircumflexacute
ENCODING 7871
SWIDTH 754 0
DWIDTH 7 0
BBX 7 13 0 -1
BITMAP
04
0A
12
6C
7C
42
DE
EC
DC
E4
EC
DE
FC
ENDCHAR
STARTCHAR Ecircumflexgrave
ENCODING 7872
SWIDTH 754 0
DWIDTH 7 0
BBX 7 12 0 -1
BITMAP
1C
12
6C
7C
42
DE
EC
DC
E4
EC
DE
FC
ENDCHAR
STARTCHAR ecircumflexgrave
ENCODING 7873
SWIDTH 754 0
DWIDTH 7 0
BBX 7 12 0 -1
BITMAP
1C
12
6C
7C
42
DE
EC
DC
E4
EC
DE
FC
ENDCHAR
STARTCHAR Ecircumflexhookabove
ENCODING 7874
SWIDTH 754 0
DWIDTH 7 0
BBX 7 13 0 -1
BITMAP
0E
1A
1E
2C
7C
42
DE
EC
DC
E4
EC
DE
FC
ENDCHAR
STARTCHAR ecircumflexhookabove
ENCODING 7875
SWIDTH 754 0
DWIDTH 7 0
BBX 7 13 0 -1
BITMAP
0E
1A
1E
2C
7C
42
DE
EC
DC
E4
EC
DE
FC
ENDCHAR
STARTCHAR Ecircumflextilde
ENCODING 7876
SWIDTH 754 0
DWIDTH 7 0
BBX 7 13 0 -1
BITMAP
34
4C
7C
4C
7C
42
DE
EC
DC
E4
EC
DE
FC
ENDCHAR
STARTCHAR ecircumflextilde
ENCODING 7877
SWIDTH 754 0
DWIDTH 7 0
BBX 7 13 0 -1
BITMAP
34
4C
7C
4C
7C
42
DE
EC
DC
E4
EC
DE
FC
ENDCHAR
STARTCHAR Ecircumflexdotbelow
ENCODING 7878
SWIDTH 754 0
DWIDTH 7 0
BBX 7 13 0 -3
BITMAP
18
6C
7C
42
DE
EC
DC
E4
EC
DE
FC
34
38
ENDCHAR
STARTCHAR ecircumflexdotbelow
ENCODING 7879
SWIDTH 754 0
DWIDTH 7 0
BBX 7 13 0 -3
BITMAP
18
6C
7C
42
DE
EC
DC
E4
EC
DE
FC
34
38
ENDCHAR
STARTCHAR Ihookabove
ENCODING 7880
SWIDTH 705 0
DWIDTH 6 0
BBX 6 11 0 -1
BITMAP
38
68
38
44
FC
F4
78
78
74
FC
F8
ENDCHAR
STARTCHAR ihookabove
ENCODING 7881
SWIDTH 705 0
DWIDTH 6 0
BBX 6 11 0 -1
BITMAP
38
68
38
44
FC
F4
78
78
74
FC
F8
ENDCHAR
STARTCHAR Idotbelow
ENCODING 7882
SWIDTH 705 0
DWIDTH 6 0
BBX 6 10 0 -3
BITMAP
7C
FC
F4
78
78
74
FC
FC
78
70
ENDCHAR
STARTCHAR idotbelow
ENCODING 7883
SWIDTH 705 0
DWIDTH 6 0
BBX 6 10 0 -3
BITMAP
7C
FC
F4
78
78
74
FC
FC
78
70
ENDCHAR
STARTCHAR Odotbelow
ENCODING 7884
SWIDTH 837 0
DWIDTH 8 0
BBX 7 10 0 -3
BITMAP
3E
62
EA
EA
EA
E2
DE
7C
28
38
ENDCHAR
STARTCHAR odotbelow
ENCODING 7885
SWIDTH 837 0
DWIDTH 8 0
BBX 7 10 0 -3
BITMAP
3E
62
EA
EA
EA
E2
DE
7C
28
38
ENDCHAR
STARTCHAR Ohookabove
ENCODING 7886
SWIDTH 837 0
DWIDTH 8 0
BBX 7 11 0 -1
BITMAP
18
3C
34
5E
62
EA
EA
EA
E2
DE
7C
ENDCHAR
STARTCHAR ohookabove
ENCODING 7887
SWIDTH 837 0
DWIDTH 8 0
BBX 7 11 0 -1
BITMAP
18
3C
34
5E
62
EA
EA
EA
E2
DE
7C
ENDCHAR
STARTCHAR Ocircumflexacute
ENCODING 7888
SWIDTH 837 0
DWIDTH 8 0
BBX 7 13 0 -1
BITMAP
02
0E
1E
2A
7C
5E
62
EA
EA
EA
E2
DE
7C
ENDCHAR
STARTCHAR ocircumflexacute
ENCODING 7889
SWIDTH 837 0
DWIDTH 8 0
BBX 7 13 0 -1
BITMAP
02
0E
1E
2A
7C
5E
62
EA
EA
EA
E2
DE
7C
ENDCHAR
STARTCHAR Ocircumflexgrave
ENCODING 7890
SWIDTH 837 0
DWIDTH 8 0
BBX 7 12 0 -1
BITMAP
0C
1A
2E
7C
5E
62
EA
EA
EA
E2
DE
7C
ENDCHAR
STARTCHAR ocircumflexgrave
ENCODING 7891
SWIDTH 837 0
DWIDTH 8 0
BBX 7 12 0 -1
BITMAP
0C
1A
2E
7C
5E
62
EA
EA
EA
E2
DE
7C
ENDCHAR
STARTCHAR Ocircumflexhookabove
ENCODING 7892
SWIDTH 837 0
DWIDTH 8 0
BBX 7 13 0 -1
BITMAP
06
1A
1E
2A
7C
5E
62
EA
EA
EA
E2
DE
7C
ENDCHAR
STARTCHAR ocircumflexhookabove
ENCODING 7893
SWIDTH 837 0
DWIDTH 8 0
BBX 7 13 0 -1
BITMAP
06
1A
1E
2A
7C
5E
62
EA
EA
EA
E2
DE
7C
ENDCHAR
STARTCHAR Ocircumflextilde
ENCODING 7894
SWIDTH 837 0
DWIDTH 8 0
BBX 7 13 0 -1
BITMAP
16
2A
7C
4A
7C
5E
62
EA
EA
EA
E2
DE
7C
ENDCHAR
STARTCHAR ocircumflextilde
ENCODING 7895
SWIDTH 837 0
DWIDTH 8 0
BBX 7 13 0 -1
BITMAP
16
2A
7C
4A
7C
5E
62
EA
EA
EA
E2
DE
7C
ENDCHAR
STARTCHAR Ocircumflexdotbelow
ENCODING 7896
SWIDTH 837 0
DWIDTH 8 0
BBX 7 13 0 -3
BITMAP
1C
2A
7C
5E
62
EA
EA
EA
E2
DE
7C
28
38
ENDCHAR
STARTCHAR ocircumflexdotbelow
ENCODING 7897
SWIDTH 837 0
DWIDTH 8 0
BBX 7 13 0 -3
BITMAP
1C
2A
7C
5E
62
EA
EA
EA
E2
DE
7C
28
38
ENDCHAR
STARTCHAR Ohornacute
ENCODING 7898
SWIDTH 847 0
DWIDTH 8 0
BBX 8 10 0 -1
BITMAP
3C
43
7D
62
EA
EA
EA
E2
DE
7C
ENDCHAR
STARTCHAR ohornacute
ENCODING 7899
SWIDTH 847 0
DWIDTH 8 0
BBX 8 10 0 -1
BITMAP
3C
43
7D
62
EA
EA
EA
E2
DE
7C
ENDCHAR
STARTCHAR Ohorngrave
ENCODING 7900
SWIDTH 847 0
DWIDTH 8 0
BBX 8 10 0 -1
BITMAP
7C
43
7D
62
EA
EA
EA
E2
DE
7C
ENDCHAR
STARTCHAR ohorngrave
ENCODING 7901
SWIDTH 847 0
DWIDTH 8 0
BBX 8 10 0 -1
BITMAP
7C
43
7D
62
EA
EA
EA
E2
DE
7C
ENDCHAR
STARTCHAR Ohornhookabove
ENCODING 7902
SWIDTH 847 0
DWIDTH 8 0
BBX 8 11 0 -1
BITMAP
18
3C
37
5D
62
EA
EA
EA
E2
DE
7C
ENDCHAR
STARTCHAR ohornhookabove
ENCODING 7903
SWIDTH 847 0
DWIDTH 8 0
BBX 8 11 0 -1
BITMAP
18
3C
37
5D
62
EA
EA
EA
E2
DE
7C
ENDCHAR
STARTCHAR Ohorntilde
ENCODING 7904
SWIDTH 847 0
DWIDTH 8 0
BBX 8 11 0 -1
BITMAP
34
5C
43
7D
62
EA
EA
EA
E2
DE
7C
ENDCHAR
STARTCHAR ohorntilde
ENCODING 7905
SWIDTH 847 0
DWIDTH 8 0
BBX 8 11 0 -1
BITMAP
34
5C
43
7D
62
EA
EA
EA
E2
DE
7C
ENDCHAR
STARTCHAR Ohorndotbelow
ENCODING 7906
SWIDTH 847 0
DWIDTH 8 0
BBX 8 11 0 -3
BITMAP
03
3F
66
EA
EA
EA
E2
DE
7C
28
38
ENDCHAR
STARTCHAR ohorndotbelow
ENCODING 7907
SWIDTH 847 0
DWIDTH 8 0
BBX 8 11 0 -3
BITMAP
03
3F
66
EA
EA
EA
E2
DE
7C
28
38
ENDCHAR
STARTCHAR Udotbelow
ENCODING 7908
SWIDTH 846 0
DWIDTH 8 0
BBX 7 10 0 -3
BITMAP
7E
EA
EA
EA
EA
EA
DE
7C
2C
38
ENDCHAR
STARTCHAR udotbelow
ENCODING 7909
SWIDTH 846 0
DWIDTH 8 0
BBX 7 10 0 -3
BITMAP
7E
EA
EA
EA
EA
EA
DE
7C
2C
38
ENDCHAR
STARTCHAR Uhookabove
ENCODING 7910
SWIDTH 846 0
DWIDTH 8 0
BBX 7 11 0 -1
BITMAP
18
34
3C
4A
EA
EA
EA
EA
DE
C2
7C
ENDCHAR
STARTCHAR uhookabove
ENCODING 7911
SWIDTH 846 0
DWIDTH 8 0
BBX 7 11 0 -1
BITMAP
18
34
3C
4A
EA
EA
EA
EA
DE
C2
7C
ENDCHAR
STARTCHAR Uhornacute
ENCODING 7912
SWIDTH 856 0
DWIDTH 8 0
BBX 8 10 0 -1
BITMAP
3C
43
7F
EA
EA
EA
EA
DD
C2
7C
ENDCHAR
STARTCHAR uhornacute
ENCODING 7913
SWIDTH 856 0
DWIDTH 8 0
BBX 8 10 0 -1
BITMAP
3C
43
7F
EA
EA
EA
EA
DD
C2
7C
ENDCHAR
STARTCHAR Uhorngrave
ENCODING 7914
SWIDTH 856 0
DWIDTH 8 0
BBX 8 10 0 -1
BITMAP
7C
63
5F
EA
EA
EA
EA
DD
C2
7C
ENDCHAR
STARTCHAR uhorngrave
ENCODING 7915
SWIDTH 856 0
DWIDTH 8 0
BBX 8 10 0 -1
BITMAP
7C
63
5F
EA
EA
EA
EA
DD
C2
7C
ENDCHAR
STARTCHAR Uhornhookabove
ENCODING 7916
SWIDTH 856 0
DWIDTH 8 0
BBX 8 11 0 -1
BITMAP
18
34
3F
4B
EA
EA
EA
EA
DD
C2
7C
ENDCHAR
STARTCHAR uhornhookabove
ENCODING 7917
SWIDTH 856 0
DWIDTH 8 0
BBX 8 11 0 -1
BITMAP
18
34
3F
4B
EA
EA
EA
EA
DD
C2
7C
ENDCHAR
STARTCHAR Uhorntilde
ENCODING 7918
SWIDTH 856 0
DWIDTH 8 0
BBX 8 11 0 -1
BITMAP
34
5C
53
6F
EA
EA
EA
EA
DD
C2
7C
ENDCHAR
STARTCHAR uhorntilde
ENCODING 7919
SWIDTH 856 0
DWIDTH 8 0
BBX 8 11 0 -1
BITMAP
34
5C
53
6F
EA
EA
EA
EA
DD
C2
7C
ENDCHAR
STARTCHAR Uhorndotbelow
ENCODING 7920
SWIDTH 856 0
DWIDTH 8 0
BBX 8 11 0 -3
BITMAP
03
77
EA
EA
EA
EA
EA
DE
7C
2C
38
ENDCHAR
STARTCHAR uhorndotbelow
ENCODING 7921
SWIDTH 856 0
DWIDTH 8 0
BBX 8 11 0 -3
BITMAP
03
77
EA
EA
EA
EA
EA
DE
7C
2C
38
ENDCHAR
STARTCHAR Ygrave
ENCODING 7922
SWIDTH 805 0
DWIDTH 7 0
BBX 7 10 0 -1
BITMAP
7C
62
5E
BE
AE
D6
6C
68
24
38
ENDCHAR
STARTCHAR ygrave
ENCODING 7923
SWIDTH 805 0
DWIDTH 7 0
BBX 7 10 0 -1
BITMAP
7C
62
5E
BE
AE
D6
6C
68
24
38
ENDCHAR
STARTCHAR Ydotbelow
ENCODING 7924
SWIDTH 805 0
DWIDTH 7 0
BBX 7 10 0 -3
BITMAP
7E
BE
AE
D6
CA
6C
24
38
28
38
ENDCHAR
STARTCHAR ydotbelow
ENCODING 7925
SWIDTH 805 0
DWIDTH 7 0
BBX 7 10 0 -3
BITMAP
7E
BE
AE
D6
CA
6C
24
38
28
38
ENDCHAR
STARTCHAR Yhookabove
ENCODING 7926
SWIDTH 805 0
DWIDTH 7 0
BBX 7 11 0 -1
BITMAP
18
34
2C
5A
BE
AE
D6
6C
68
24
38
ENDCHAR
STARTCHAR yhookabove
ENCODING 7927
SWIDTH 805 0
DWIDTH 7 0
BBX 7 11 0 -1
BITMAP
18
34
2C
5A
BE
AE
D6
6C
68
24
38
ENDCHAR
STARTCHAR Ytilde
ENCODING 7928
SWIDTH 805 0
DWIDTH 7 0
BBX 7 10 0 -1
BITMAP
3C
52
7E
BE
AE
D6
6C
68
24
38
ENDCHAR
STARTCHAR ytilde
ENCODING 7929
SWIDTH 805 0
DWIDTH 7 0
BBX 7 10 0 -1
BITMAP
3C
52
7E
BE
AE
D6
6C
68
24
38
ENDCHAR
STARTCHAR enspace
ENCODING 8192
SWIDTH 500 0
DWIDTH 5 0
BBX 1 1 0 0
BITMAP
00
ENDCHAR
STARTCHAR emspace
ENCODING 8193
SWIDTH 1000 0
DWIDTH 9 0
BBX 1 1 0 0
BITMAP
00
ENDCHAR
STARTCHAR uni2002
ENCODING 8194
SWIDTH 500 0
DWIDTH 5 0
BBX 1 1 0 0
BITMAP
00
ENDCHAR
STARTCHAR uni2003
ENCODING 8195
SWIDTH 1000 0
DWIDTH 9 0
BBX 1 1 0 0
BITMAP
00
ENDCHAR
STARTCHAR space.tab_en
ENCODING 8199
SWIDTH 1100 0
DWIDTH 10 0
BBX 1 1 0 0
BITMAP
00
ENDCHAR
STARTCHAR uni2010
ENCODING 8208
SWIDTH 520 0
DWIDTH 5 0
BBX 5 3 0 1
BITMAP
70
B8
F0
ENDCHAR
STARTCHAR figuredash
ENCODING 8210
SWIDTH 834 0
DWIDTH 8 0
BBX 7 3 0 1
BITMAP
3E
FE
FE
ENDCHAR
STARTCHAR endash
ENCODING 8211
SWIDTH 834 0
DWIDTH 8 0
BBX 7 3 0 1
BITMAP
3E
FE
FE
ENDCHAR
STARTCHAR emdash
ENCODING 8212
SWIDTH 1234 0
DWIDTH 11 0
BBX 11 3 0 1
BITMAP
3FE0
FFE0
FFC0
ENDCHAR
STARTCHAR horizontalbar
ENCODING 8213
SWIDTH 1234 0
DWIDTH 11 0
BBX 11 3 0 1
BITMAP
3FE0
FFE0
FFC0
ENDCHAR
STARTCHAR quoteleft
ENCODING 8216
SWIDTH 484 0
DWIDTH 4 0
BBX 4 5 0 2
BITMAP
70
50
F0
D0
E0
ENDCHAR
STARTCHAR quoteright
ENCODING 8217
SWIDTH 484 0
DWIDTH 4 0
BBX 4 5 0 2
BITMAP
70
F0
F0
E0
40
ENDCHAR
STARTCHAR quotesinglbase
ENCODING 8218
SWIDTH 484 0
DWIDTH 4 0
BBX 4 5 0 -2
BITMAP
30
F0
F0
F0
E0
ENDCHAR
STARTCHAR quotedblleft
ENCODING 8220
SWIDTH 784 0
DWIDTH 7 0
BBX 7 5 0 2
BITMAP
7E
54
AE
8A
FC
ENDCHAR
STARTCHAR quotedblright
ENCODING 8221
SWIDTH 784 0
DWIDTH 7 0
BBX 7 5 0 2
BITMAP
7E
AE
EE
FC
D8
ENDCHAR
STARTCHAR quotedblbase
ENCODING 8222
SWIDTH 784 0
DWIDTH 7 0
BBX 7 5 0 -2
BITMAP
3E
AE
EE
EE
FC
ENDCHAR
STARTCHAR dagger
ENCODING 8224
SWIDTH 818 0
DWIDTH 7 0
BBX 7 8 0 -1
BITMAP
1C
6A
BE
D6
EC
28
24
38
ENDCHAR
STARTCHAR daggerdbl
ENCODING 8225
SWIDTH 818 0
DWIDTH 7 0
BBX 7 8 0 -1
BITMAP
3C
7E
EE
6E
BE
8A
E4
38
ENDCHAR
STARTCHAR bullet
ENCODING 8226
SWIDTH 543 0
DWIDTH 5 0
BBX 5 5 0 1
BITMAP
78
B8
B8
B8
F0
ENDCHAR
STARTCHAR ellipsis
ENCODING 8230
SWIDTH 1210 0
DWIDTH 11 0
BBX 11 4 0 -1
BITMAP
36C0
EB60
C920
FFC0
ENDCHAR
STARTCHAR perthousand
ENCODING 8240
SWIDTH 1517 0
DWIDTH 14 0
BBX 14 8 0 -1
BITMAP
7F00
BA00
BF98
DEF4
EFBC
175C
16B4
1BF8
ENDCHAR
STARTCHAR minute
ENCODING 8242
SWIDTH 456 0
DWIDTH 4 0
BBX 4 5 0 2
BITMAP
70
F0
F0
D0
E0
ENDCHAR
STARTCHAR second
ENCODING 8243
SWIDTH 766 0
DWIDTH 7 0
BBX 7 5 0 2
BITMAP
7E
EE
EA
D2
FC
ENDCHAR
STARTCHAR guilsinglleft
ENCODING 8249
SWIDTH 663 0
DWIDTH 6 0
BBX 5 6 0 0
BITMAP
28
58
68
F8
E8
78
ENDCHAR
STARTCHAR guilsinglright
ENCODING 8250
SWIDTH 663 0
DWIDTH 6 0
BBX 6 6 0 0
BITMAP
28
74
EC
5C
48
F0
ENDCHAR
STARTCHAR fraction
ENCODING 8260
SWIDTH 417 0
DWIDTH 4 0
BBX 4 8 0 -1
BITMAP
70
70
70
60
A0
A0
A0
C0
ENDCHAR
STARTCHAR zero.sups
ENCODING 8304
SWIDTH 656 0
DWIDTH 6 0
BBX 5 6 0 1
BITMAP
78
C8
D8
D8
B8
70
ENDCHAR
STARTCHAR foursuperior
ENCODING 8308
SWIDTH 608 0
DWIDTH 5 0
BBX 5 6 0 1
BITMAP
78
B8
B8
D8
F8
38
ENDCHAR
STARTCHAR five.sups
ENCODING 8309
SWIDTH 593 0
DWIDTH 5 0
BBX 5 6 0 1
BITMAP
78
D8
F8
F8
78
F0
ENDCHAR
STARTCHAR six.sups
ENCODING 8310
SWIDTH 628 0
DWIDTH 6 0
BBX 5 6 0 1
BITMAP
78
58
F8
D8
F8
70
ENDCHAR
STARTCHAR seven.sups
ENCODING 8311
SWIDTH 577 0
DWIDTH 5 0
BBX 5 6 0 1
BITMAP
78
E8
58
50
50
60
ENDCHAR
STARTCHAR eight.sups
ENCODING 8312
SWIDTH 638 0
DWIDTH 6 0
BBX 6 6 0 1
BITMAP
78
58
7C
B4
DC
F8
ENDCHAR
STARTCHAR nine.sups
ENCODING 8313
SWIDTH 628 0
DWIDTH 6 0
BBX 5 6 0 1
BITMAP
78
B8
D8
F8
58
70
ENDCHAR
STARTCHAR parenleft.sups
ENCODING 8317
SWIDTH 434 0
DWIDTH 4 0
BBX 3 7 0 1
BITMAP
20
E0
E0
E0
E0
A0
60
ENDCHAR
STARTCHAR parenright.sups
ENCODING 8318
SWIDTH 435 0
DWIDTH 4 0
BBX 3 7 0 1
BITMAP
40
A0
60
60
60
E0
C0
ENDCHAR
STARTCHAR n.sups
ENCODING 8319
SWIDTH 673 0
DWIDTH 6 0
BBX 5 6 0 1
BITMAP
78
B8
B8
B8
98
F8
ENDCHAR
STARTCHAR zero.sinf
ENCODING 8320
SWIDTH 656 0
DWIDTH 6 0
BBX 5 6 0 -1
BITMAP
78
C8
D8
D8
B8
70
ENDCHAR
STARTCHAR one.sinf
ENCODING 8321
SWIDTH 557 0
DWIDTH 5 0
BBX 5 6 0 -1
BITMAP
70
D0
50
58
B8
F0
ENDCHAR
STARTCHAR two.sinf
ENCODING 8322
SWIDTH 585 0
DWIDTH 5 0
BBX 5 6 0 -1
BITMAP
78
E8
58
B8
B8
F0
ENDCHAR
STARTCHAR three.sinf
ENCODING 8323
SWIDTH 584 0
DWIDTH 5 0
BBX 5 6 0 -1
BITMAP
78
F8
58
78
78
F0
ENDCHAR
STARTCHAR four.sinf
ENCODING 8324
SWIDTH 620 0
DWIDTH 6 0
BBX 5 6 0 -1
BITMAP
78
B8
B8
B8
F8
38
ENDCHAR
STARTCHAR five.sinf
ENCODING 8325
SWIDTH 593 0
DWIDTH 5 0
BBX 5 6 0 -1
BITMAP
78
D8
F8
F8
78
F0
ENDCHAR
STARTCHAR six.sinf
ENCODING 8326
SWIDTH 628 0
DWIDTH 6 0
BBX 5 6 0 -1
BITMAP
78
58
F8
D8
F8
70
ENDCHAR
STARTCHAR seven.sinf
ENCODING 8327
SWIDTH 577 0
DWIDTH 5 0
BBX 5 6 0 -1
BITMAP
78
E8
58
50
50
60
ENDCHAR
STARTCHAR eight.sinf
ENCODING 8328
SWIDTH 638 0
DWIDTH 6 0
BBX 6 6 0 -1
BITMAP
78
58
7C
B4
DC
F8
ENDCHAR
STARTCHAR nine.sinf
ENCODING 8329
SWIDTH 628 0
DWIDTH 6 0
BBX 5 6 0 -1
BITMAP
78
B8
D8
F8
58
70
ENDCHAR
STARTCHAR parenleft.sinf
ENCODING 8333
SWIDTH 434 0
DWIDTH 4 0
BBX 3 7 0 -1
BITMAP
20
E0
E0
E0
E0
A0
60
ENDCHAR
STARTCHAR parenright.sinf
ENCODING 8334
SWIDTH 435 0
DWIDTH 4 0
BBX 3 7 0 -1
BITMAP
40
A0
60
60
60
E0
C0
ENDCHAR
STARTCHAR colonsign
ENCODING 8353
SWIDTH 728 0
DWIDTH 7 0
BBX 6 9 0 -1
BITMAP
14
2C
5C
EC
F0
EC
DC
6C
38
ENDCHAR
STARTCHAR lira
ENCODING 8356
SWIDTH 795 0
DWIDTH 7 0
BBX 7 8 0 -1
BITMAP
3C
5C
B8
EE
FE
E6
DE
FC
ENDCHAR
STARTCHAR naira
ENCODING 8358
SWIDTH 853 0
DWIDTH 8 0
BBX 8 8 0 -1
BITMAP
7F
EA
B3
FA
AF
EA
D9
EE
ENDCHAR
STARTCHAR peseta
ENCODING 8359
SWIDTH 812 0
DWIDTH 7 0
BBX 7 8 0 -1
BITMAP
7E
FE
AA
E6
FA
EC
D0
E0
ENDCHAR
STARTCHAR dong
ENCODING 8363
SWIDTH 782 0
DWIDTH 7 0
BBX 7 10 0 -3
BITMAP
1E
2E
34
5A
B4
A4
DC
7C
44
78
ENDCHAR
STARTCHAR Euro
ENCODING 8364
SWIDTH 748 0
DWIDTH 7 0
BBX 7 8 0 -1
BITMAP
3E
5E
BC
E8
BC
EC
DE
7C
ENDCHAR
STARTCHAR peso
ENCODING 8369
SWIDTH 812 0
DWIDTH 7 0
BBX 7 8 0 -1
BITMAP
7E
FE
EE
A2
DE
EC
D0
E0
ENDCHAR
STARTCHAR guarani
ENCODING 8370
SWIDTH 788 0
DWIDTH 7 0
BBX 7 9 0 -1
BITMAP
18
24
5A
EC
FA
EE
DE
62
3C
ENDCHAR
STARTCHAR cedi
ENCODING 8373
SWIDTH 728 0
DWIDTH 7 0
BBX 6 9 0 -1
BITMAP
18
24
5C
EC
F0
EC
DC
64
38
ENDCHAR
STARTCHAR indianrupee
ENCODING 8377
SWIDTH 713 0
DWIDTH 6 0
BBX 6 8 0 -1
BITMAP
7C
EC
BC
EC
74
F4
14
18
ENDCHAR
STARTCHAR turkishlira
ENCODING 8378
SWIDTH 795 0
DWIDTH 7 0
BBX 7 8 0 -1
BITMAP
70
F0
A8
FE
AA
E6
DE
F8
ENDCHAR
STARTCHAR ruble
ENCODING 8381
SWIDTH 782 0
DWIDTH 7 0
BBX 7 8 0 -1
BITMAP
7E
DA
EE
DA
EC
B8
D0
E0
ENDCHAR
STARTCHAR liter
ENCODING 8467
SWIDTH 749 0
DWIDTH 7 0
BBX 6 8 0 -1
BITMAP
3C
64
F4
F4
EC
E4
DC
78
ENDCHAR
STARTCHAR uni2117
ENCODING 8471
SWIDTH 967 0
DWIDTH 9 0
BBX 8 10 0 -2
BITMAP
1E
7F
67
FB
F3
FF
EB
D3
6D
7E
ENDCHAR
STARTCHAR uni2120
ENCODING 8480
SWIDTH 1003 0
DWIDTH 9 0
BBX 9 5 0 2
BITMAP
7F80
BF80
CD80
AE80
FF80
ENDCHAR
STARTCHAR trademark
ENCODING 8482
SWIDTH 1003 0
DWIDTH 9 0
BBX 9 5 0 2
BITMAP
7F80
DF80
DD80
5E80
6F80
ENDCHAR
STARTCHAR Omega
ENCODING 8486
SWIDTH 877 0
DWIDTH 8 0
BBX 8 8 0 -1
BITMAP
3E
7E
6A
EA
EA
9B
A9
FE
ENDCHAR
STARTCHAR estimated
ENCODING 8494
SWIDTH 815 0
DWIDTH 7 0
BBX 7 8 0 -1
BITMAP
3E
7E
FE
E6
FE
E2
DE
7C
ENDCHAR
STARTCHAR onethird
ENCODING 8531
SWIDTH 1269 0
DWIDTH 11 0
BBX 11 8 0 -1
BITMAP
7700
D6C0
5DE0
5BA0
B560
FDE0
09E0
0FC0
ENDCHAR
STARTCHAR twothirds
ENCODING 8532
SWIDTH 1269 0
DWIDTH 11 0
BBX 11 8 0 -1
BITMAP
7F00
EEC0
55E0
BBA0
8560
FDE0
09E0
0FC0
ENDCHAR
STARTCHAR oneeighth
ENCODING 8539
SWIDTH 1283 0
DWIDTH 12 0
BBX 11 8 0 -1
BITMAP
7700
D740
5DE0
5B60
B5E0
FF60
09E0
0FC0
ENDCHAR
STARTCHAR threeeighths
ENCODING 8540
SWIDTH 1293 0
DWIDTH 12 0
BBX 11 8 0 -1
BITMAP
7F00
F740
5FE0
7560
75E0
FD60
09E0
0FC0
ENDCHAR
STARTCHAR fiveeighths
ENCODING 8541
SWIDTH 1303 0
DWIDTH 12 0
BBX 12 8 0 -1
BITMAP
7F00
DF60
F7D0
F560
75F0
FAD0
0970
0FE0
ENDCHAR
STARTCHAR seveneighths
ENCODING 8542
SWIDTH 1241 0
DWIDTH 11 0
BBX 11 8 0 -1
BITMAP
7F00
EAC0
55A0
7EE0
6FE0
6EA0
12E0
1FC0
ENDCHAR
STARTCHAR arrowleft
ENCODING 8592
SWIDTH 1100 0
DWIDTH 10 0
BBX 7 6 1 0
BITMAP
0C
3C
5A
CE
74
18
ENDCHAR
STARTCHAR arrowup
ENCODING 8593
SWIDTH 1100 0
DWIDTH 10 0
BBX 6 7 2 -1
BITMAP
38
54
6C
94
E8
28
70
ENDCHAR
STARTCHAR arrowright
ENCODING 8594
SWIDTH 1100 0
DWIDTH 10 0
BBX 8 6 1 0
BITMAP
1C
3A
4F
DE
F4
38
ENDCHAR
STARTCHAR arrowdown
ENCODING 8595
SWIDTH 1100 0
DWIDTH 10 0
BBX 6 7 2 -1
BITMAP
38
6C
BC
D4
68
70
20
ENDCHAR
STARTCHAR arrowupleft
ENCODING 8598
SWIDTH 1100 0
DWIDTH 10 0
BBX 6 6 2 0
BITMAP
78
B4
F8
CC
F4
58
ENDCHAR
STARTCHAR arrowupright
ENCODING 8599
SWIDTH 1100 0
DWIDTH 10 0
BBX 6 6 2 0
BITMAP
3C
5C
DC
64
D4
F8
ENDCHAR
STARTCHAR arrowdownright
ENCODING 8600
SWIDTH 1100 0
DWIDTH 10 0
BBX 6 6 2 0
BITMAP
68
B4
DC
7C
C4
78
ENDCHAR
STARTCHAR arrowdownleft
ENCODING 8601
SWIDTH 1100 0
DWIDTH 10 0
BBX 6 6 2 0
BITMAP
28
5C
F8
BC
8C
F0
ENDCHAR
STARTCHAR uni21AA
ENCODING 8618
SWIDTH 1100 0
DWIDTH 10 0
BBX 8 9 1 -2
BITMAP
7E
7E
D4
D2
FF
ED
76
18
10
ENDCHAR
STARTCHAR uni21AB
ENCODING 8619
SWIDTH 1100 0
DWIDTH 10 0
BBX 8 9 1 -2
BITMAP
7F
7F
7F
37
5F
D2
64
38
10
ENDCHAR
STARTCHAR uni21B0
ENCODING 8624
SWIDTH 1100 0
DWIDTH 10 0
BBX 7 8 1 -1
BITMAP
08
38
56
DE
66
3E
16
06
ENDCHAR
STARTCHAR uni21B1
ENCODING 8625
SWIDTH 1100 0
DWIDTH 10 0
BBX 8 8 1 -1
BITMAP
08
16
25
7D
F6
F8
D0
E0
ENDCHAR
STARTCHAR uni21B2
ENCODING 8626
SWIDTH 1100 0
DWIDTH 10 0
BBX 7 8 1 -1
BITMAP
06
06
1E
26
7A
C4
78
10
ENDCHAR
STARTCHAR uni21B3
ENCODING 8627
SWIDTH 1100 0
DWIDTH 10 0
BBX 8 8 1 -1
BITMAP
70
D0
DC
D2
FF
F2
1C
10
ENDCHAR
STARTCHAR partialdiff
ENCODING 8706
SWIDTH 792 0
DWIDTH 7 0
BBX 7 8 0 -1
BITMAP
7C
5E
7E
5E
BE
A6
DA
7C
ENDCHAR
STARTCHAR Delta
ENCODING 8710
SWIDTH 830 0
DWIDTH 7 0
BBX 7 8 0 -1
BITMAP
3E
5C
5E
6E
6A
F2
DE
FE
ENDCHAR
STARTCHAR product
ENCODING 8719
SWIDTH 859 0
DWIDTH 8 0
BBX 7 8 0 -1
BITMAP
7E
FE
EA
EA
EA
EA
CA
FE
ENDCHAR
STARTCHAR summation
ENCODING 8721
SWIDTH 750 0
DWIDTH 7 0
BBX 7 9 0 -2
BITMAP
7E
FE
DC
EC
74
58
7E
82
FC
ENDCHAR
STARTCHAR minus
ENCODING 8722
SWIDTH 834 0
DWIDTH 8 0
BBX 7 3 0 1
BITMAP
7E
FE
FC
ENDCHAR
STARTCHAR uni2215
ENCODING 8725
SWIDTH 417 0
DWIDTH 4 0
BBX 4 8 0 -1
BITMAP
70
70
70
60
A0
A0
A0
C0
ENDCHAR
STARTCHAR uni2219
ENCODING 8729
SWIDTH 464 0
DWIDTH 4 0
BBX 4 4 0 1
BITMAP
30
B0
90
E0
ENDCHAR
STARTCHAR radical
ENCODING 8730
SWIDTH 841 0
DWIDTH 8 0
BBX 8 9 0 -1
BITMAP
07
07
0A
7A
AE
DE
74
6A
3C
ENDCHAR
STARTCHAR infinity
ENCODING 8734
SWIDTH 978 0
DWIDTH 9 0
BBX 9 6 0 0
BITMAP
7F80
A980
BB80
BB80
C480
FF00
ENDCHAR
STARTCHAR integral
ENCODING 8747
SWIDTH 574 0
DWIDTH 5 0
BBX 5 10 0 -2
BITMAP
18
38
58
50
50
50
50
B0
90
E0
ENDCHAR
STARTCHAR approxequal
ENCODING 8776
SWIDTH 834 0
DWIDTH 8 0
BBX 7 6 0 0
BITMAP
7E
7E
FC
7A
C6
FC
ENDCHAR
STARTCHAR notequal
ENCODING 8800
SWIDTH 834 0
DWIDTH 8 0
BBX 7 8 0 -1
BITMAP
0C
7A
FE
FE
4A
FE
EC
30
ENDCHAR
STARTCHAR lessequal
ENCODING 8804
SWIDTH 814 0
DWIDTH 7 0
BBX 7 8 0 -1
BITMAP
06
3A
6C
64
FE
5A
5E
FC
ENDCHAR
STARTCHAR greaterequal
ENCODING 8805
SWIDTH 814 0
DWIDTH 7 0
BBX 6 8 1 -1
BITMAP
F0
AC
FC
6C
B4
9C
BC
F8
ENDCHAR
STARTCHAR block
ENCODING 9608
SWIDTH 1000 0
DWIDTH 9 0
BBX 9 10 0 -2
BITMAP
FF80
FF80
FF80
FF80
FF80
FF80
FF80
FF80
FF80
FF80
ENDCHAR
STARTCHAR blacksquare
ENCODING 9632
SWIDTH 1100 0
DWIDTH 10 0
BBX 6 6 2 0
BITMAP
38
54
EC
D4
C4
F8
ENDCHAR
STARTCHAR blackuppointingtriangle
ENCODING 9650
SWIDTH 1100 0
DWIDTH 10 0
BBX 6 6 2 0
BITMAP
10
28
54
7C
84
F8
ENDCHAR
STARTCHAR whiteuppointingtriangle
ENCODING 9651
SWIDTH 1100 0
DWIDTH 10 0
BBX 5 5 3 1
BITMAP
20
50
50
88
F8
ENDCHAR
STARTCHAR blackrightpointingtriangle
ENCODING 9654
SWIDTH 1100 0
DWIDTH 10 0
BBX 6 6 2 0
BITMAP
70
C8
F4
C8
F0
C0
ENDCHAR
STARTCHAR whiterightpointingtriangle
ENCODING 9655
SWIDTH 1100 0
DWIDTH 10 0
BBX 5 5 3 1
BITMAP
C0
B0
88
90
E0
ENDCHAR
STARTCHAR blackdownpointingtriangle
ENCODING 9660
SWIDTH 1100 0
DWIDTH 10 0
BBX 6 6 2 0
BITMAP
7C
94
D4
68
70
20
ENDCHAR
STARTCHAR whitedownpointingtriangle
ENCODING 9661
SWIDTH 1100 0
DWIDTH 10 0
BBX 5 5 3 1
BITMAP
F8
88
88
50
20
ENDCHAR
STARTCHAR blackleftpointingtriangle
ENCODING 9664
SWIDTH 1100 0
DWIDTH 10 0
BBX 6 6 2 0
BITMAP
0C
34
5C
E4
74
18
ENDCHAR
STARTCHAR whiteleftpointingtriangle
ENCODING 9665
SWIDTH 1100 0
DWIDTH 10 0
BBX 5 5 3 1
BITMAP
18
68
88
48
38
ENDCHAR
STARTCHAR blackdiamond
ENCODING 9670
SWIDTH 1100 0
DWIDTH 10 0
BBX 6 7 2 -1
BITMAP
38
54
AC
D4
E8
70
20
ENDCHAR
STARTCHAR lozenge
ENCODING 9674
SWIDTH 831 0
DWIDTH 7 0
BBX 7 8 0 -1
BITMAP
3C
5C
5E
6A
EE
54
6C
78
ENDCHAR
STARTCHAR uni25D6
ENCODING 9686
SWIDTH 546 0
DWIDTH 5 0
BBX 5 10 0 -2
BITMAP
38
78
F8
F8
F8
F8
F8
78
38
18
ENDCHAR
STARTCHAR uni25D7
ENCODING 9687
SWIDTH 546 0
DWIDTH 5 0
BBX 5 10 0 -2
BITMAP
E0
F0
F8
F8
F8
F8
F8
F0
E0
80
ENDCHAR
STARTCHAR uni25DC
ENCODING 9692
SWIDTH 1280 0
DWIDTH 12 0
BBX 10 10 1 -2
BITMAP
0FC0
3FC0
7FC0
7FC0
FFC0
FFC0
FFC0
FFC0
FFC0
FFC0
ENDCHAR
STARTCHAR uni25DD
ENCODING 9693
SWIDTH 1280 0
DWIDTH 12 0
BBX 10 10 1 -2
BITMAP
FC00
FE00
FF00
FF80
FF80
FF80
FFC0
FFC0
FFC0
FFC0
ENDCHAR
STARTCHAR uni25DE
ENCODING 9694
SWIDTH 1280 0
DWIDTH 12 0
BBX 10 10 1 -2
BITMAP
FFC0
FFC0
FFC0
FF80
FF80
FF80
FF00
FF00
FC00
F000
ENDCHAR
STARTCHAR uni25DF
ENCODING 9695
SWIDTH 1280 0
DWIDTH 12 0
BBX 10 10 1 -2
BITMAP
FFC0
FFC0
FFC0
FFC0
FFC0
7FC0
7FC0
3FC0
1FC0
03C0
ENDCHAR
STARTCHAR uni261A
ENCODING 9754
SWIDTH 1100 0
DWIDTH 10 0
BBX 8 6 1 0
BITMAP
6F
93
E3
33
3D
1E
ENDCHAR
STARTCHAR uni261B
ENCODING 9755
SWIDTH 1100 0
DWIDTH 10 0
BBX 8 6 1 0
BITMAP
7A
A5
A2
A4
9C
E0
ENDCHAR
STARTCHAR uni261C
ENCODING 9756
SWIDTH 1100 0
DWIDTH 10 0
BBX 7 5 2 1
BITMAP
3E
C6
26
26
1E
ENDCHAR
STARTCHAR uni261D
ENCODING 9757
SWIDTH 1100 0
DWIDTH 10 0
BBX 5 7 3 0
BITMAP
C0
C0
B0
88
88
88
F8
ENDCHAR
STARTCHAR uni261E
ENCODING 9758
SWIDTH 1100 0
DWIDTH 10 0
BBX 7 5 2 1
BITMAP
F8
C6
C8
C8
F0
ENDCHAR
STARTCHAR uni261F
ENCODING 9759
SWIDTH 1100 0
DWIDTH 10 0
BBX 5 7 3 0
BITMAP
F8
F8
88
88
F8
10
10
ENDCHAR
STARTCHAR uni27A1
ENCODING 10145
SWIDTH 650 0
DWIDTH 6 0
BBX 6 14 0 -4
BITMAP
C0
C0
E0
F0
F8
F8
FC
FC
F8
F0
E0
E0
C0
80
ENDCHAR
STARTCHAR uni2B1B
ENCODING 11035
SWIDTH 1280 0
DWIDTH 12 0
BBX 10 10 1 -2
BITMAP
FFC0
FFC0
FFC0
FFC0
FFC0
FFC0
FFC0
FFC0
FFC0
FFC0
ENDCHAR
STARTCHAR uni2B24
ENCODING 11044
SWIDTH 1280 0
DWIDTH 12 0
BBX 10 11 1 -2
BITMAP
1C00
7F00
7F80
FF80
FFC0
FFC0
FFC0
FFC0
FF80
7F80
3E00
ENDCHAR
STARTCHAR A.salt
ENCODING 57600
SWIDTH 836 0
DWIDTH 8 0
BBX 7 8 0 -1
BITMAP
3E
7E
EA
EA
F6
EA
DA
EC
ENDCHAR
STARTCHAR Agrave.salt
ENCODING 57601
SWIDTH 836 0
DWIDTH 8 0
BBX 7 10 0 -1
BITMAP
3E
7A
46
7E
EA
EA
F6
EA
DA
EC
ENDCHAR
STARTCHAR Aacute.salt
ENCODING 57602
SWIDTH 836 0
DWIDTH 8 0
BBX 7 10 0 -1
BITMAP
3E
7E
52
7E
EA
EA
F6
EA
DA
EC
ENDCHAR
STARTCHAR Acircumflex.salt
ENCODING 57603
SWIDTH 836 0
DWIDTH 8 0
BBX 7 10 0 -1
BITMAP
3E
5A
66
7E
EA
EA
F6
EA
DA
EC
ENDCHAR
STARTCHAR Atilde.salt
ENCODING 57604
SWIDTH 836 0
DWIDTH 8 0
BBX 7 10 0 -1
BITMAP
3E
5A
66
7E
EA
EA
F6
EA
DA
EC
ENDCHAR
STARTCHAR Adieresis.salt
ENCODING 57605
SWIDTH 836 0
DWIDTH 8 0
BBX 7 10 0 -1
BITMAP
3E
4A
76
7E
EA
EA
F6
EA
DA
EC
ENDCHAR
STARTCHAR Aring.salt
ENCODING 57606
SWIDTH 836 0
DWIDTH 8 0
BBX 7 10 0 -1
BITMAP
3E
5C
76
6E
EA
EA
F6
EA
DA
EC
ENDCHAR
STARTCHAR Amacron.salt
ENCODING 57607
SWIDTH 836 0
DWIDTH 8 0
BBX 7 10 0 -1
BITMAP
3E
5A
76
7E
EA
EA
F6
EA
DA
EC
ENDCHAR
STARTCHAR Abreve.salt
ENCODING 57608
SWIDTH 836 0
DWIDTH 8 0
BBX 7 10 0 -1
BITMAP
3C
72
5E
7E
EA
EA
F6
EA
DA
EC
ENDCHAR
STARTCHAR Aogonek.salt
ENCODING 57609
SWIDTH 836 0
DWIDTH 8 0
BBX 7 10 0 -3
BITMAP
3E
7E
EA
EA
F6
EA
DE
EE
0A
0C
ENDCHAR
STARTCHAR E.salt
ENCODING 57610
SWIDTH 743 0
DWIDTH 7 0
BBX 6 8 0 -1
BITMAP
3C
7C
EC
F4
EC
E4
DC
7C
ENDCHAR
STARTCHAR Egrave.salt
ENCODING 57611
SWIDTH 743 0
DWIDTH 7 0
BBX 6 10 0 -1
BITMAP
7C
7C
4C
7C
EC
F4
EC
E4
DC
7C
ENDCHAR
STARTCHAR Eacute.salt
ENCODING 57612
SWIDTH 743 0
DWIDTH 7 0
BBX 6 10 0 -1
BITMAP
3C
5C
74
7C
EC
F4
EC
E4
DC
7C
ENDCHAR
STARTCHAR Ecircumflex.salt
ENCODING 57613
SWIDTH 743 0
DWIDTH 7 0
BBX 6 10 0 -1
BITMAP
3C
5C
64
7C
EC
F4
EC
E4
DC
7C
ENDCHAR
STARTCHAR Edieresis.salt
ENCODING 57614
SWIDTH 743 0
DWIDTH 7 0
BBX 6 10 0 -1
BITMAP
7C
4C
74
7C
EC
F4
EC
E4
DC
7C
ENDCHAR
STARTCHAR Emacron.salt
ENCODING 57615
SWIDTH 743 0
DWIDTH 7 0
BBX 6 10 0 -1
BITMAP
3C
5C
7C
7C
EC
F4
EC
E4
DC
7C
ENDCHAR
STARTCHAR Ebreve.salt
ENCODING 57616
SWIDTH 743 0
DWIDTH 7 0
BBX 6 10 0 -1
BITMAP
7C
64
5C
7C
EC
F4
EC
E4
DC
7C
ENDCHAR
STARTCHAR Edotaccent.salt
ENCODING 57617
SWIDTH 743 0
DWIDTH 7 0
BBX 6 10 0 -1
BITMAP
3C
24
3C
7C
EC
F4
EC
E4
DC
7C
ENDCHAR
STARTCHAR Eogonek.salt
ENCODING 57618
SWIDTH 743 0
DWIDTH 7 0
BBX 6 10 0 -3
BITMAP
3C
7C
EC
F4
EC
E4
DC
7C
14
1C
ENDCHAR
STARTCHAR Ecaron.salt
ENCODING 57619
SWIDTH 743 0
DWIDTH 7 0
BBX 6 10 0 -1
BITMAP
7C
7C
4C
7C
EC
F4
EC
E4
DC
7C
ENDCHAR
STARTCHAR I.salt
ENCODING 57620
SWIDTH 471 0
DWIDTH 4 0
BBX 4 8 0 -1
BITMAP
70
F0
F0
F0
F0
F0
D0
E0
ENDCHAR
STARTCHAR Igrave.salt
ENCODING 57621
SWIDTH 471 0
DWIDTH 4 0
BBX 5 10 0 -1
BITMAP
78
B8
D0
F0
F0
F0
F0
F0
D0
E0
ENDCHAR
STARTCHAR Iacute.salt
ENCODING 57622
SWIDTH 471 0
DWIDTH 4 0
BBX 5 10 0 -1
BITMAP
78
A8
D0
F0
F0
F0
F0
F0
D0
E0
ENDCHAR
STARTCHAR Icircumflex.salt
ENCODING 57623
SWIDTH 471 0
DWIDTH 4 0
BBX 4 10 0 -1
BITMAP
70
B0
D0
F0
F0
F0
F0
F0
D0
E0
ENDCHAR
STARTCHAR Idieresis.salt
ENCODING 57624
SWIDTH 471 0
DWIDTH 4 0
BBX 5 10 0 -1
BITMAP
F8
A8
D0
F0
F0
F0
F0
F0
D0
E0
ENDCHAR
STARTCHAR Itilde.salt
ENCODING 57625
SWIDTH 471 0
DWIDTH 4 0
BBX 4 10 0 -1
BITMAP
F0
B0
F0
F0
F0
F0
F0
F0
D0
E0
ENDCHAR
STARTCHAR Imacron.salt
ENCODING 57626
SWIDTH 471 0
DWIDTH 4 0
BBX 4 10 0 -1
BITMAP
70
B0
F0
F0
F0
F0
F0
F0
D0
E0
ENDCHAR
STARTCHAR Ibreve.salt
ENCODING 57627
SWIDTH 471 0
DWIDTH 4 0
BBX 4 10 0 -1
BITMAP
F0
90
F0
F0
F0
F0
F0
F0
D0
E0
ENDCHAR
STARTCHAR Iogonek.salt
ENCODING 57628
SWIDTH 471 0
DWIDTH 4 0
BBX 4 10 0 -3
BITMAP
70
F0
F0
F0
F0
F0
F0
F0
D0
E0
ENDCHAR
STARTCHAR Idotaccent.salt
ENCODING 57629
SWIDTH 471 0
DWIDTH 4 0
BBX 4 10 0 -1
BITMAP
70
D0
F0
F0
F0
F0
F0
F0
D0
E0
ENDCHAR
STARTCHAR L.salt
ENCODING 57630
SWIDTH 715 0
DWIDTH 6 0
BBX 6 8 0 -1
BITMAP
70
F0
F0
F0
F0
EC
DC
FC
ENDCHAR
STARTCHAR Lacute.salt
ENCODING 57631
SWIDTH 715 0
DWIDTH 6 0
BBX 6 10 0 -1
BITMAP
7C
EC
F0
F0
F0
F0
F0
EC
DC
FC
ENDCHAR
STARTCHAR Lcommaaccent.salt
ENCODING 57632
SWIDTH 715 0
DWIDTH 6 0
BBX 6 12 0 -5
BITMAP
70
F0
F0
F0
F0
EC
DC
FC
28
38
30
20
ENDCHAR
STARTCHAR Lcaron.salt
ENCODING 57633
SWIDTH 715 0
DWIDTH 6 0
BBX 7 8 0 -1
BITMAP
7E
EE
EA
EC
F0
EE
DE
FC
ENDCHAR
STARTCHAR Ldot.salt
ENCODING 57634
SWIDTH 715 0
DWIDTH 6 0
BBX 7 8 0 -1
BITMAP
70
F0
FE
EA
EC
E2
DE
FC
ENDCHAR
STARTCHAR Lslash.salt
ENCODING 57635
SWIDTH 725 0
DWIDTH 7 0
BBX 7 8 0 -1
BITMAP
70
70
E8
B8
F0
EE
DE
FC
ENDCHAR
STARTCHAR M.salt
ENCODING 57636
SWIDTH 1170 0
DWIDTH 11 0
BBX 10 8 0 -1
BITMAP
3FC0
7FC0
ED40
ED40
ED40
ED40
C940
FF80
ENDCHAR
STARTCHAR N.salt
ENCODING 57637
SWIDTH 846 0
DWIDTH 8 0
BBX 7 8 0 -1
BITMAP
3E
7E
EA
EA
EA
EA
CA
FE
ENDCHAR
STARTCHAR Ntilde.salt
ENCODING 57638
SWIDTH 846 0
DWIDTH 8 0
BBX 7 10 0 -1
BITMAP
3E
7A
46
7E
EA
EA
EA
EA
CA
FE
ENDCHAR
STARTCHAR Nacute.salt
ENCODING 57639
SWIDTH 846 0
DWIDTH 8 0
BBX 7 10 0 -1
BITMAP
3E
7E
52
7E
EA
EA
EA
EA
CA
FE
ENDCHAR
STARTCHAR Ncommaaccent.salt
ENCODING 57640
SWIDTH 846 0
DWIDTH 8 0
BBX 7 12 0 -5
BITMAP
3E
7E
EA
EA
EA
EA
CA
F6
2C
34
38
20
ENDCHAR
STARTCHAR Ncaron.salt
ENCODING 57641
SWIDTH 846 0
DWIDTH 8 0
BBX 7 10 0 -1
BITMAP
3E
7C
4A
7E
EA
EA
EA
EA
CA
FE
ENDCHAR
STARTCHAR W.salt
ENCODING 57642
SWIDTH 1170 0
DWIDTH 11 0
BBX 10 8 0 -1
BITMAP
7FC0
ED40
ED40
ED40
ED40
E440
DBC0
7F80
ENDCHAR
STARTCHAR Wcircumflex.salt
ENCODING 57643
SWIDTH 1170 0
DWIDTH 11 0
BBX 10 10 0 -1
BITMAP
1F00
1500
6BC0
ED40
ED40
ED40
ED40
E440
DBC0
7F80
ENDCHAR
STARTCHAR Wgrave.salt
ENCODING 57644
SWIDTH 1170 0
DWIDTH 11 0
BBX 10 10 0 -1
BITMAP
1F00
1700
6BC0
ED40
ED40
ED40
ED40
E440
DBC0
7F80
ENDCHAR
STARTCHAR Wacute.salt
ENCODING 57645
SWIDTH 1170 0
DWIDTH 11 0
BBX 10 10 0 -1
BITMAP
0F00
1500
6FC0
ED40
ED40
ED40
ED40
E440
DBC0
7F80
ENDCHAR
STARTCHAR Wdieresis.salt
ENCODING 57646
SWIDTH 1170 0
DWIDTH 11 0
BBX 10 10 0 -1
BITMAP
1F00
3500
4BC0
ED40
ED40
ED40
ED40
E440
DBC0
7F80
ENDCHAR
STARTCHAR X.salt
ENCODING 57647
SWIDTH 837 0
DWIDTH 8 0
BBX 7 8 0 -1
BITMAP
7E
6E
5A
5E
E2
EA
CA
FE
ENDCHAR
STARTCHAR Y.salt
ENCODING 57648
SWIDTH 806 0
DWIDTH 7 0
BBX 7 8 0 -1
BITMAP
7E
BE
BE
A6
DA
6C
24
38
ENDCHAR
STARTCHAR Yacute.salt
ENCODING 57649
SWIDTH 806 0
DWIDTH 7 0
BBX 7 10 0 -1
BITMAP
3E
52
7E
BE
BE
A6
DA
6C
24
38
ENDCHAR
STARTCHAR Ycircumflex.salt
ENCODING 57650
SWIDTH 806 0
DWIDTH 7 0
BBX 7 10 0 -1
BITMAP
3E
4A
7E
BE
BE
A6
DA
6C
24
38
ENDCHAR
STARTCHAR Ydieresis.salt
ENCODING 57651
SWIDTH 806 0
DWIDTH 7 0
BBX 7 10 0 -1
BITMAP
7E
4A
7E
BE
BE
A6
DA
6C
24
38
ENDCHAR
STARTCHAR Ygrave.salt
ENCODING 57652
SWIDTH 806 0
DWIDTH 7 0
BBX 7 10 0 -1
BITMAP
7C
6A
5E
BE
BE
A6
DA
6C
24
38
ENDCHAR
STARTCHAR AE.salt
ENCODING 57653
SWIDTH 1113 0
DWIDTH 10 0
BBX 10 8 0 -1
BITMAP
3FC0
7FC0
EB80
EA40
F780
EA40
D9C0
EF80
ENDCHAR
STARTCHAR IJ.salt
ENCODING 57654
SWIDTH 1133 0
DWIDTH 10 0
BBX 10 8 0 -1
BITMAP
71C0
F3C0
F3C0
EFC0
EFC0
ECC0
CB40
FF80
ENDCHAR
STARTCHAR IJ.stack
ENCODING 57655
SWIDTH 1363 0
DWIDTH 12 0
BBX 12 8 0 -1
BITMAP
7E70
FA70
F470
7BF0
7770
5330
EAD0
FFE0
ENDCHAR
STARTCHAR quoteleft.salt
ENCODING 57656
SWIDTH 407 0
DWIDTH 4 0
BBX 3 4 0 3
BITMAP
60
60
E0
E0
ENDCHAR
STARTCHAR quoteright.salt
ENCODING 57657
SWIDTH 407 0
DWIDTH 4 0
BBX 3 4 0 3
BITMAP
60
E0
E0
C0
ENDCHAR
STARTCHAR ampersand.salt
ENCODING 57658
SWIDTH 732 0
DWIDTH 7 0
BBX 6 10 0 -2
BITMAP
1C
2C
54
6C
54
B8
A4
DC
E4
38
ENDCHAR
STARTCHAR caron.2
ENCODING 57659
SWIDTH 600 0
DWIDTH 5 0
BBX 3 4 1 3
BITMAP
60
A0
A0
C0
ENDCHAR
STARTCHAR indexup
ENCODING 57660
SWIDTH 1100 0
DWIDTH 10 0
BBX 6 8 2 -1
BITMAP
60
60
DC
C4
C4
FC
84
F8
ENDCHAR
STARTCHAR indexdown
ENCODING 57661
SWIDTH 1100 0
DWIDTH 10 0
BBX 6 8 2 -1
BITMAP
7C
FC
C4
44
D4
D8
E0
40
ENDCHAR
STARTCHAR indexupleft
ENCODING 57662
SWIDTH 1100 0
DWIDTH 10 0
BBX 8 9 1 -2
BITMAP
70
68
34
66
C5
6A
34
38
10
ENDCHAR
STARTCHAR indexupright
ENCODING 57663
SWIDTH 1100 0
DWIDTH 10 0
BBX 7 9 1 -2
BITMAP
06
0A
16
22
52
EA
34
18
10
ENDCHAR
STARTCHAR indexdownleft
ENCODING 57664
SWIDTH 1100 0
DWIDTH 10 0
BBX 8 7 1 -1
BITMAP
0C
16
23
53
BA
FC
10
ENDCHAR
STARTCHAR indexdownright
ENCODING 57665
SWIDTH 1100 0
DWIDTH 10 0
BBX 8 7 1 -1
BITMAP
18
34
62
A5
EB
3F
10
ENDCHAR
STARTCHAR indexdownleft.outline
ENCODING 57666
SWIDTH 1100 0
DWIDTH 10 0
BBX 7 6 2 0
BITMAP
18
2C
46
A6
F8
10
ENDCHAR
STARTCHAR indexdownright.outline
ENCODING 57667
SWIDTH 1100 0
DWIDTH 10 0
BBX 7 6 2 0
BITMAP
30
68
C4
CA
3E
10
ENDCHAR
STARTCHAR indexupleft.outline
ENCODING 57668
SWIDTH 1100 0
DWIDTH 10 0
BBX 5 8 3 -1
BITMAP
80
60
90
88
98
70
60
20
ENDCHAR
STARTCHAR indexupright.outline
ENCODING 57669
SWIDTH 1100 0
DWIDTH 10 0
BBX 5 8 3 -1
BITMAP
18
28
58
88
C8
70
30
20
ENDCHAR
STARTCHAR uni261A.salt
ENCODING 57670
SWIDTH 1100 0
DWIDTH 10 0
BBX 8 6 1 0
BITMAP
7F
93
EB
3B
16
18
ENDCHAR
STARTCHAR uni261B.salt
ENCODING 57671
SWIDTH 1100 0
DWIDTH 10 0
BBX 8 6 1 0
BITMAP
7E
A5
AA
AC
F8
10
ENDCHAR
STARTCHAR indexdown.salt
ENCODING 57672
SWIDTH 1100 0
DWIDTH 10 0
BBX 6 8 2 -1
BITMAP
7C
7C
44
54
EC
34
18
18
ENDCHAR
STARTCHAR indexdownleft.salt
ENCODING 57673
SWIDTH 1100 0
DWIDTH 10 0
BBX 8 7 1 -1
BITMAP
0E
15
23
4A
74
DE
08
ENDCHAR
STARTCHAR indexdownright.salt
ENCODING 57674
SWIDTH 1100 0
DWIDTH 10 0
BBX 8 7 1 -1
BITMAP
38
5C
A2
E9
3D
77
40
ENDCHAR
STARTCHAR indexup.salt
ENCODING 57675
SWIDTH 1100 0
DWIDTH 10 0
BBX 6 8 2 -1
BITMAP
60
E0
A0
9C
C4
F8
84
F8
ENDCHAR
STARTCHAR indexupleft.salt
ENCODING 57676
SWIDTH 1100 0
DWIDTH 10 0
BBX 6 8 2 -1
BITMAP
E0
D0
E8
68
CC
B4
E8
30
ENDCHAR
STARTCHAR indexupright.salt
ENCODING 57677
SWIDTH 1100 0
DWIDTH 10 0
BBX 6 8 2 -1
BITMAP
0C
14
28
4C
A4
DC
E8
70
ENDCHAR
STARTCHAR uni261C.salt
ENCODING 57678
SWIDTH 1100 0
DWIDTH 10 0
BBX 7 5 2 1
BITMAP
3E
C6
36
16
18
ENDCHAR
STARTCHAR uni261D.salt
ENCODING 57679
SWIDTH 1100 0
DWIDTH 10 0
BBX 5 7 3 0
BITMAP
40
C0
C0
B8
88
90
F0
ENDCHAR
STARTCHAR uni261E.salt
ENCODING 57680
SWIDTH 1100 0
DWIDTH 10 0
BBX 7 5 2 1
BITMAP
F8
C6
D8
D0
30
ENDCHAR
STARTCHAR uni261F.salt
ENCODING 57681
SWIDTH 1100 0
DWIDTH 10 0
BBX 5 7 3 0
BITMAP
78
78
48
E8
38
18
10
ENDCHAR
STARTCHAR indexdownleft.salt_outline
ENCODING 57682
SWIDTH 1100 0
DWIDTH 10 0
BBX 7 6 2 0
BITMAP
18
3C
46
74
DC
08
ENDCHAR
STARTCHAR indexdownright.salt_outline
ENCODING 57683
SWIDTH 1100 0
DWIDTH 10 0
BBX 7 6 2 0
BITMAP
30
78
C4
5C
7E
20
ENDCHAR
STARTCHAR indexupleft.salt_outline
ENCODING 57684
SWIDTH 1100 0
DWIDTH 10 0
BBX 5 7 3 0
BITMAP
C0
A0
50
D0
98
E8
70
ENDCHAR
STARTCHAR indexupright.salt_outline
ENCODING 57685
SWIDTH 1100 0
DWIDTH 10 0
BBX 5 7 3 0
BITMAP
18
28
50
58
C8
78
20
ENDCHAR
STARTCHAR block.v
ENCODING 57687
SWIDTH 1000 0
DWIDTH 9 0
BBX 9 10 0 -2
BITMAP
FF80
FF80
FF80
FF80
FF80
FF80
FF80
FF80
FF80
FF80
ENDCHAR
STARTCHAR uni25D6.v
ENCODING 57688
SWIDTH 1335 0
DWIDTH 12 0
BBX 10 5 1 1
BITMAP
1E00
7F80
7F80
FFC0
FFC0
ENDCHAR
STARTCHAR uni25D7.v
ENCODING 57689
SWIDTH 1335 0
DWIDTH 12 0
BBX 10 5 1 1
BITMAP
FFC0
FFC0
7F80
7F80
3F00
ENDCHAR
STARTCHAR uni27A1.w
ENCODING 57690
SWIDTH 650 0
DWIDTH 6 0
BBX 6 14 0 -4
BITMAP
0C
1C
1C
3C
7C
FC
FC
FC
7C
3C
3C
1C
0C
04
ENDCHAR
STARTCHAR uni27A1.n
ENCODING 57691
SWIDTH 1000 0
DWIDTH 9 0
BBX 13 7 -2 0
BITMAP
3FE0
FFF8
FFF8
3FE0
1FC0
0F80
0200
ENDCHAR
STARTCHAR uni27A1.s
ENCODING 57692
SWIDTH 1000 0
DWIDTH 9 0
BBX 13 7 -2 0
BITMAP
0200
0700
1FC0
3FE0
7FF0
FFF8
3FE0
ENDCHAR
STARTCHAR uni2B24.salt
ENCODING 57693
SWIDTH 1280 0
DWIDTH 12 0
BBX 10 11 1 -2
BITMAP
1E00
7F80
FFC0
FFC0
FFC0
FFC0
FFC0
FFC0
FFC0
7F80
3E00
ENDCHAR
STARTCHAR uni25DD.curve
ENCODING 57694
SWIDTH 1280 0
DWIDTH 12 0
BBX 10 10 1 -2
BITMAP
FF00
FF80
FF80
FFC0
FFC0
FFC0
FFC0
FFC0
FFC0
FFC0
ENDCHAR
STARTCHAR uni2B1B.trapezoid_e
ENCODING 57695
SWIDTH 1280 0
DWIDTH 12 0
BBX 11 10 1 -2
BITMAP
FFE0
FFC0
FFC0
FFC0
FFC0
FF80
FF80
FF80
FF80
FF80
ENDCHAR
STARTCHAR uni2B1B.trapezoid_w
ENCODING 57696
SWIDTH 1280 0
DWIDTH 12 0
BBX 11 10 0 -2
BITMAP
FFE0
FFE0
7FE0
7FE0
7FE0
7FE0
7FE0
7FE0
3FE0
7FE0
ENDCHAR
STARTCHAR arrowleft.chevron
ENCODING 57697
SWIDTH 1330 0
DWIDTH 12 0
BBX 12 13 0 -3
BITMAP
0400
0C00
1FF0
3FE0
3FE0
7FE0
FFC0
7FC0
7FE0
3FE0
1FF0
0FF0
0C00
ENDCHAR
STARTCHAR arrowup.chevron
ENCODING 57698
SWIDTH 1280 0
DWIDTH 12 0
BBX 13 13 -1 -3
BITMAP
0300
0780
0FC0
1FE0
7FF0
FFF8
3FF0
3FF0
3FF0
3FF0
3FF0
3FF0
3070
ENDCHAR
STARTCHAR arrowright.chevron
ENCODING 57699
SWIDTH 1330 0
DWIDTH 12 0
BBX 12 13 0 -3
BITMAP
0200
0300
FF80
7FC0
7FC0
7FE0
3FF0
3FE0
7FE0
7FC0
FF80
FF00
0300
ENDCHAR
STARTCHAR arrowdown.chevron
ENCODING 57700
SWIDTH 1280 0
DWIDTH 12 0
BBX 13 13 -1 -3
BITMAP
2030
3DF0
3FF0
3FF0
3FF0
3FF0
3FF0
FFF8
7FF8
3FE0
1FC0
0780
0300
ENDCHAR
STARTCHAR uni25D6.deco
ENCODING 57701
SWIDTH 560 0
DWIDTH 5 0
BBX 5 12 0 -3
BITMAP
38
38
78
78
F8
F8
F8
78
78
38
38
08
ENDCHAR
STARTCHAR uni25D7.deco
ENCODING 57702
SWIDTH 560 0
DWIDTH 5 0
BBX 5 12 0 -3
BITMAP
E0
E0
F0
F0
F8
F8
F8
F0
F0
E0
E0
80
ENDCHAR
STARTCHAR uni25D6.v_deco
ENCODING 57703
SWIDTH 1280 0
DWIDTH 12 0
BBX 11 6 0 0
BITMAP
0F00
3F80
7FC0
FFE0
FFE0
7FE0
ENDCHAR
STARTCHAR uni25D7.v_deco
ENCODING 57704
SWIDTH 1280 0
DWIDTH 12 0
BBX 11 5 0 1
BITMAP
FFE0
FFE0
7FE0
3FC0
1F80
ENDCHAR
STARTCHAR uni25D6.bevel
ENCODING 57705
SWIDTH 350 0
DWIDTH 3 0
BBX 3 10 1 -2
BITMAP
60
E0
E0
E0
E0
E0
E0
E0
E0
60
ENDCHAR
STARTCHAR uni25D7.bevel
ENCODING 57706
SWIDTH 350 0
DWIDTH 3 0
BBX 3 10 0 -2
BITMAP
C0
C0
E0
E0
E0
E0
E0
E0
C0
80
ENDCHAR
STARTCHAR uni25D6.v_bevel
ENCODING 57707
SWIDTH 1280 0
DWIDTH 12 0
BBX 10 3 1 2
BITMAP
3F00
7F80
FFC0
ENDCHAR
STARTCHAR uni25D7.v_bevel
ENCODING 57708
SWIDTH 1280 0
DWIDTH 12 0
BBX 10 3 1 2
BITMAP
FFC0
FF80
7F00
ENDCHAR
STARTCHAR uni25D6.spike
ENCODING 57709
SWIDTH 350 0
DWIDTH 3 0
BBX 4 11 0 -2
BITMAP
40
70
30
30
70
F0
70
30
30
70
70
ENDCHAR
STARTCHAR uni25D7.spike
ENCODING 57710
SWIDTH 350 0
DWIDTH 3 0
BBX 3 11 0 -2
BITMAP
40
C0
C0
80
C0
E0
C0
80
C0
C0
C0
ENDCHAR
STARTCHAR uni25D6.v_spike
ENCODING 57711
SWIDTH 1280 0
DWIDTH 12 0
BBX 10 3 1 2
BITMAP
8C40
DFC0
FFC0
ENDCHAR
STARTCHAR uni25D7.v_spike
ENCODING 57712
SWIDTH 1280 0
DWIDTH 12 0
BBX 10 3 1 2
BITMAP
FFC0
FFC0
8C40
ENDCHAR
STARTCHAR uni25D6.square
ENCODING 57713
SWIDTH 350 0
DWIDTH 3 0
BBX 3 10 1 -2
BITMAP
E0
E0
E0
E0
E0
E0
E0
E0
E0
E0
ENDCHAR
STARTCHAR uni25D7.square
ENCODING 57714
SWIDTH 350 0
DWIDTH 3 0
BBX 2 10 0 -2
BITMAP
C0
C0
C0
C0
C0
C0
C0
C0
C0
C0
ENDCHAR
STARTCHAR uni25D6.v_square
ENCODING 57715
SWIDTH 1280 0
DWIDTH 12 0
BBX 10 3 1 2
BITMAP
FFC0
FFC0
FFC0
ENDCHAR
STARTCHAR uni25D7.v_square
ENCODING 57716
SWIDTH 1280 0
DWIDTH 12 0
BBX 10 3 1 2
BITMAP
FFC0
FFC0
FFC0
ENDCHAR
STARTCHAR uni25D6.rounded
ENCODING 57717
SWIDTH 350 0
DWIDTH 3 0
BBX 3 10 1 -2
BITMAP
E0
E0
E0
E0
E0
E0
E0
E0
E0
60
ENDCHAR
STARTCHAR uni25D7.rounded
ENCODING 57718
SWIDTH 350 0
DWIDTH 3 0
BBX 3 10 0 -2
BITMAP
C0
C0
C0
C0
E0
E0
C0
C0
C0
80
ENDCHAR
STARTCHAR uni25D6.v_rounded
ENCODING 57719
SWIDTH 1280 0
DWIDTH 12 0
BBX 10 3 1 2
BITMAP
7F00
FF80
FFC0
ENDCHAR
STARTCHAR uni25D7.v_rounded
ENCODING 57720
SWIDTH 1280 0
DWIDTH 12 0
BBX 10 3 1 2
BITMAP
FFC0
FFC0
7F80
ENDCHAR
STARTCHAR uni21AB.arrow
ENCODING 57721
SWIDTH 1000 0
DWIDTH 9 0
BBX 12 17 -1 -9
BITMAP
7E00
7F00
7F80
7F80
7FC0
7FC0
7FC0
7FC0
7FC0
7FC0
3FC0
FFF0
3FC0
1F80
0F00
0600
0400
ENDCHAR
STARTCHAR uni21AC.arrow
ENCODING 57722
SWIDTH 1000 0
DWIDTH 9 0
BBX 12 17 -1 -2
BITMAP
0600
0F00
1F80
3FC0
7FF0
FFE0
3FC0
7FC0
7FC0
7FC0
7FC0
7FC0
7FC0
7F80
7F00
7E00
7800
ENDCHAR
STARTCHAR uni21AB.v_arrow
ENCODING 57723
SWIDTH 1335 0
DWIDTH 12 0
BBX 16 12 -5 -3
BITMAP
0800
1BFF
1FFF
3FFF
7FFF
FFFF
FFFE
7FFE
3FFC
3FF8
1800
0800
ENDCHAR
STARTCHAR uni21AC.v_arrow
ENCODING 57724
SWIDTH 1335 0
DWIDTH 12 0
BBX 16 12 1 -3
BITMAP
0010
FFD8
FFF8
FFFC
FFFE
FFFF
7FFF
7FFE
3FFE
0FFC
0018
0030
ENDCHAR
STARTCHAR uni25D6.wings
ENCODING 57725
SWIDTH 900 0
DWIDTH 8 0
BBX 8 13 0 -3
BITMAP
3E
3F
FF
FF
FF
FF
FF
FF
FF
FF
FF
FF
3E
ENDCHAR
STARTCHAR uni25D7.wings
ENCODING 57726
SWIDTH 900 0
DWIDTH 8 0
BBX 8 13 0 -3
BITMAP
7C
FC
FF
FF
FF
FF
FF
FF
FF
FF
FF
FF
7C
ENDCHAR
STARTCHAR uni25D6.v_wings
ENCODING 57727
SWIDTH 1280 0
DWIDTH 12 0
BBX 13 9 -1 -1
BITMAP
3FF0
3FF0
FFF8
FFF8
FFF8
FFF8
FFF8
3FF0
3FF0
ENDCHAR
STARTCHAR uni25D7.v_wings
ENCODING 57728
SWIDTH 1280 0
DWIDTH 12 0
BBX 13 9 -1 -1
BITMAP
3FF0
3FF0
FFF8
FFF8
FFF8
FFF8
FFF8
3FF0
3FF0
ENDCHAR
STARTCHAR uni2B1B.chevron_e
ENCODING 57729
SWIDTH 1280 0
DWIDTH 12 0
BBX 12 10 0 -2
BITMAP
FFC0
7FC0
7FE0
7FE0
3FF0
3FE0
7FE0
7FC0
FFC0
FFC0
ENDCHAR
STARTCHAR uni2B1B.chevron_n
ENCODING 57730
SWIDTH 1280 0
DWIDTH 12 0
BBX 10 12 1 -3
BITMAP
1E00
FF80
FFC0
FFC0
FFC0
FFC0
FFC0
FFC0
FFC0
FFC0
E1C0
8040
ENDCHAR
STARTCHAR uni2B1B.chevron_s
ENCODING 57731
SWIDTH 1280 0
DWIDTH 12 0
BBX 10 12 1 -3
BITMAP
C1C0
FFC0
FFC0
FFC0
FFC0
FFC0
FFC0
FFC0
FFC0
FFC0
3E00
0800
ENDCHAR
STARTCHAR uni2B1B.chevron_w
ENCODING 57732
SWIDTH 1280 0
DWIDTH 12 0
BBX 12 10 0 -2
BITMAP
3FF0
7FE0
7FE0
FFC0
FFC0
FFC0
7FC0
7FE0
7FE0
3FF0
ENDCHAR
STARTCHAR uni2B1B.semichevron_e
ENCODING 57733
SWIDTH 650 0
DWIDTH 6 0
BBX 6 10 0 -2
BITMAP
FC
7C
7C
7C
3C
3C
7C
7C
FC
FC
ENDCHAR
STARTCHAR uni2B1B.semichevron_w
ENCODING 57734
SWIDTH 650 0
DWIDTH 6 0
BBX 6 10 0 -2
BITMAP
FC
F8
F8
F0
F0
F0
F8
F8
FC
FC
ENDCHAR
STARTCHAR uni2B1B.semichevron_n
ENCODING 57735
SWIDTH 1000 0
DWIDTH 9 0
BBX 9 7 0 0
BITMAP
8080
E380
FF80
FF80
FF80
FF80
FF80
ENDCHAR
STARTCHAR uni2B1B.semichevron_s
ENCODING 57736
SWIDTH 1000 0
DWIDTH 9 0
BBX 9 7 0 0
BITMAP
FF80
FF80
FF80
FF80
FF80
E380
8080
ENDCHAR
STARTCHAR space.v
ENCODING 57737
SWIDTH 1000 0
DWIDTH 9 0
BBX 1 1 0 0
BITMAP
00
ENDCHAR
STARTCHAR Agrave.v
ENCODING 57738
SWIDTH 1000 0
DWIDTH 9 0
BBX 7 10 1 -1
BITMAP
38
54
7C
5C
6A
6E
BE
A6
9A
EC
ENDCHAR
STARTCHAR Aacute.v
ENCODING 57739
SWIDTH 1000 0
DWIDTH 9 0
BBX 7 10 1 -1
BITMAP
2C
52
7C
5C
6A
6E
BE
A6
9A
EC
ENDCHAR
STARTCHAR Acircumflex.v
ENCODING 57740
SWIDTH 1000 0
DWIDTH 9 0
BBX 7 10 1 -1
BITMAP
3C
4A
7C
5C
6A
6E
BE
A6
9A
EC
ENDCHAR
STARTCHAR Atilde.v
ENCODING 57741
SWIDTH 1000 0
DWIDTH 9 0
BBX 7 10 1 -1
BITMAP
34
4A
7C
5C
6A
6E
BE
A6
9A
EC
ENDCHAR
STARTCHAR Adieresis.v
ENCODING 57742
SWIDTH 1000 0
DWIDTH 9 0
BBX 7 10 1 -1
BITMAP
3E
6A
7C
5C
6A
6E
BE
A6
9A
EC
ENDCHAR
STARTCHAR Aring.v
ENCODING 57743
SWIDTH 1000 0
DWIDTH 9 0
BBX 7 10 1 -1
BITMAP
3C
6A
6A
5A
6A
4E
BE
A6
9A
EC
ENDCHAR
STARTCHAR Amacron.v
ENCODING 57744
SWIDTH 1000 0
DWIDTH 9 0
BBX 7 9 1 -1
BITMAP
7E
7C
5C
6A
6E
BE
A6
9A
EC
ENDCHAR
STARTCHAR Abreve.v
ENCODING 57745
SWIDTH 1000 0
DWIDTH 9 0
BBX 7 10 1 -1
BITMAP
7E
5A
7C
5C
6A
6E
BE
A6
9A
EC
ENDCHAR
STARTCHAR Aogonek.v
ENCODING 57746
SWIDTH 1000 0
DWIDTH 9 0
BBX 7 9 1 -2
BITMAP
3C
5A
6A
B6
BE
BE
BA
DA
1E
ENDCHAR
STARTCHAR Ccedilla.v
ENCODING 57747
SWIDTH 1000 0
DWIDTH 9 0
BBX 7 9 1 -2
BITMAP
3E
7E
BC
A0
A8
B6
EA
6C
30
ENDCHAR
STARTCHAR Cacute.v
ENCODING 57748
SWIDTH 1000 0
DWIDTH 9 0
BBX 7 10 1 -1
BITMAP
2E
52
7C
5E
AE
B8
B0
AE
DE
7C
ENDCHAR
STARTCHAR Ccircumflex.v
ENCODING 57749
SWIDTH 1000 0
DWIDTH 9 0
BBX 7 10 1 -1
BITMAP
3C
4A
7C
5E
AE
B8
B0
AE
DE
7C
ENDCHAR
STARTCHAR Cdotaccent.v
ENCODING 57750
SWIDTH 1000 0
DWIDTH 9 0
BBX 7 10 1 -1
BITMAP
1C
28
38
5E
AE
B8
B0
AE
DE
7C
ENDCHAR
STARTCHAR Ccaron.v
ENCODING 57751
SWIDTH 1000 0
DWIDTH 9 0
BBX 7 10 1 -1
BITMAP
3E
4A
7C
5E
AE
B8
B0
AE
DE
7C
ENDCHAR
STARTCHAR Dcaron.v
ENCODING 57752
SWIDTH 1000 0
DWIDTH 9 0
BBX 7 10 1 -1
BITMAP
7E
4C
7C
BA
BE
BE
BE
A6
9A
FC
ENDCHAR
STARTCHAR Egrave.v
ENCODING 57753
SWIDTH 1000 0
DWIDTH 9 0
BBX 7 10 1 -1
BITMAP
38
54
7C
BE
BC
A2
BC
A2
9E
FC
ENDCHAR
STARTCHAR Eacute.v
ENCODING 57754
SWIDTH 1000 0
DWIDTH 9 0
BBX 7 10 1 -1
BITMAP
2C
52
7C
BE
BE
A2
BC
A2
9E
FC
ENDCHAR
STARTCHAR Ecircumflex.v
ENCODING 57755
SWIDTH 1000 0
DWIDTH 9 0
BBX 7 10 1 -1
BITMAP
3C
4A
7C
BE
BC
A2
BC
A2
9E
FC
ENDCHAR
STARTCHAR Edieresis.v
ENCODING 57756
SWIDTH 1000 0
DWIDTH 9 0
BBX 7 10 1 -1
BITMAP
3E
6A
7C
BE
BC
A2
BC
A2
9E
FC
ENDCHAR
STARTCHAR Emacron.v
ENCODING 57757
SWIDTH 1000 0
DWIDTH 9 0
BBX 7 9 1 -1
BITMAP
7E
7C
BE
BC
A2
BC
A2
9E
FC
ENDCHAR
STARTCHAR Ebreve.v
ENCODING 57758
SWIDTH 1000 0
DWIDTH 9 0
BBX 7 10 1 -1
BITMAP
7E
5C
78
BE
BC
A2
BC
A2
9E
FC
ENDCHAR
STARTCHAR Edotaccent.v
ENCODING 57759
SWIDTH 1000 0
DWIDTH 9 0
BBX 7 10 1 -1
BITMAP
1C
28
78
BE
BC
A2
BC
A2
9E
FC
ENDCHAR
STARTCHAR Eogonek.v
ENCODING 57760
SWIDTH 1000 0
DWIDTH 9 0
BBX 7 9 1 -2
BITMAP
7E
BE
BC
A2
BC
B2
8E
F6
1E
ENDCHAR
STARTCHAR Ecaron.v
ENCODING 57761
SWIDTH 1000 0
DWIDTH 9 0
BBX 7 10 1 -1
BITMAP
7E
4C
78
BE
BC
A2
BC
A2
9E
FC
ENDCHAR
STARTCHAR Gcircumflex.v
ENCODING 57762
SWIDTH 1000 0
DWIDTH 9 0
BBX 7 10 1 -1
BITMAP
3C
4A
7C
5A
AC
B8
AE
B6
DA
7C
ENDCHAR
STARTCHAR Gbreve.v
ENCODING 57763
SWIDTH 1000 0
DWIDTH 9 0
BBX 7 10 1 -1
BITMAP
7E
5C
7C
5A
AC
B8
AE
B6
DA
7C
ENDCHAR
STARTCHAR Gdotaccent.v
ENCODING 57764
SWIDTH 1000 0
DWIDTH 9 0
BBX 7 10 1 -1
BITMAP
1C
28
3C
5A
AC
B8
AE
B6
DA
7C
ENDCHAR
STARTCHAR Gcommaaccent.v
ENCODING 57765
SWIDTH 1000 0
DWIDTH 9 0
BBX 7 11 1 -4
BITMAP
3E
7A
BC
AA
BE
B6
EA
74
28
38
30
ENDCHAR
STARTCHAR Hcircumflex.v
ENCODING 57766
SWIDTH 1000 0
DWIDTH 9 0
BBX 7 10 1 -1
BITMAP
3C
4A
7C
BE
BE
BE
A6
BE
9A
FC
ENDCHAR
STARTCHAR Igrave.v
ENCODING 57767
SWIDTH 1000 0
DWIDTH 9 0
BBX 7 10 1 -1
BITMAP
38
54
7C
BE
EE
E8
28
4E
B6
FC
ENDCHAR
STARTCHAR Iacute.v
ENCODING 57768
SWIDTH 1000 0
DWIDTH 9 0
BBX 7 10 1 -1
BITMAP
2C
52
7C
BE
EE
E8
28
4E
B6
FC
ENDCHAR
STARTCHAR Icircumflex.v
ENCODING 57769
SWIDTH 1000 0
DWIDTH 9 0
BBX 7 10 1 -1
BITMAP
3C
4A
7C
BE
EE
E8
28
4E
B6
FC
ENDCHAR
STARTCHAR Idieresis.v
ENCODING 57770
SWIDTH 1000 0
DWIDTH 9 0
BBX 7 10 1 -1
BITMAP
3E
6A
7C
BE
EE
E8
28
4E
B6
FC
ENDCHAR
STARTCHAR Itilde.v
ENCODING 57771
SWIDTH 1000 0
DWIDTH 9 0
BBX 7 10 1 -1
BITMAP
34
4C
78
BE
EE
E8
28
4E
B6
FC
ENDCHAR
STARTCHAR Imacron.v
ENCODING 57772
SWIDTH 1000 0
DWIDTH 9 0
BBX 7 9 1 -1
BITMAP
7E
7C
BE
EE
E8
28
4E
B6
FC
ENDCHAR
STARTCHAR Ibreve.v
ENCODING 57773
SWIDTH 1000 0
DWIDTH 9 0
BBX 7 10 1 -1
BITMAP
7E
5C
78
BE
EE
E8
28
4E
B6
FC
ENDCHAR
STARTCHAR Iogonek.v
ENCODING 57774
SWIDTH 1000 0
DWIDTH 9 0
BBX 7 9 1 -2
BITMAP
7E
BE
EC
28
2C
7A
CE
F6
1E
ENDCHAR
STARTCHAR Idotaccent.v
ENCODING 57775
SWIDTH 1000 0
DWIDTH 9 0
BBX 7 10 1 -1
BITMAP
1C
28
78
BE
EE
E8
28
4E
B6
FC
ENDCHAR
STARTCHAR Jcircumflex.v
ENCODING 57776
SWIDTH 1000 0
DWIDTH 9 0
BBX 7 10 1 -1
BITMAP
1C
2A
3E
0E
1E
7E
BE
A6
DA
7C
ENDCHAR
STARTCHAR Kcommaaccent.v
ENCODING 57777
SWIDTH 1000 0
DWIDTH 9 0
BBX 7 11 1 -4
BITMAP
7E
B4
BC
A6
BE
BE
9A
F4
28
38
30
ENDCHAR
STARTCHAR Lacute.v
ENCODING 57778
SWIDTH 1000 0
DWIDTH 9 0
BBX 7 10 1 -1
BITMAP
5C
A4
F8
B0
B0
BE
BE
A6
9A
FC
ENDCHAR
STARTCHAR Lcommaaccent.v
ENCODING 57779
SWIDTH 1000 0
DWIDTH 9 0
BBX 7 11 1 -4
BITMAP
70
B0
B0
BE
BE
B6
8A
F4
28
38
30
ENDCHAR
STARTCHAR Lcaron.v
ENCODING 57780
SWIDTH 1000 0
DWIDTH 9 0
BBX 7 8 1 -1
BITMAP
7E
BE
BA
BE
BE
A6
9A
FC
ENDCHAR
STARTCHAR Ntilde.v
ENCODING 57781
SWIDTH 1000 0
DWIDTH 9 0
BBX 7 10 1 -1
BITMAP
34
4C
78
AE
BE
AE
B6
BE
9A
EC
ENDCHAR
STARTCHAR Nacute.v
ENCODING 57782
SWIDTH 1000 0
DWIDTH 9 0
BBX 7 10 1 -1
BITMAP
2C
52
7C
AE
BE
AE
B6
BE
9A
EC
ENDCHAR
STARTCHAR Ncommaaccent.v
ENCODING 57783
SWIDTH 1000 0
DWIDTH 9 0
BBX 7 11 1 -4
BITMAP
7E
AE
B6
AE
B6
BE
9A
F4
28
38
30
ENDCHAR
STARTCHAR Ncaron.v
ENCODING 57784
SWIDTH 1000 0
DWIDTH 9 0
BBX 7 10 1 -1
BITMAP
7E
4C
78
AE
BE
AE
B6
BE
9A
EC
ENDCHAR
STARTCHAR Ograve.v
ENCODING 57785
SWIDTH 1000 0
DWIDTH 9 0
BBX 7 10 1 -1
BITMAP
38
54
7C
5A
BE
BE
AE
B6
DA
7C
ENDCHAR
STARTCHAR Oacute.v
ENCODING 57786
SWIDTH 1000 0
DWIDTH 9 0
BBX 7 10 1 -1
BITMAP
2C
52
7C
5A
BE
BE
AE
B6
DA
7C
ENDCHAR
STARTCHAR Ocircumflex.v
ENCODING 57787
SWIDTH 1000 0
DWIDTH 9 0
BBX 7 10 1 -1
BITMAP
3C
4A
7C
5A
BE
BE
AE
B6
DA
7C
ENDCHAR
STARTCHAR Otilde.v
ENCODING 57788
SWIDTH 1000 0
DWIDTH 9 0
BBX 7 10 1 -1
BITMAP
34
4C
7C
5A
BE
BE
AE
B6
DA
7C
ENDCHAR
STARTCHAR Odieresis.v
ENCODING 57789
SWIDTH 1000 0
DWIDTH 9 0
BBX 7 10 1 -1
BITMAP
3E
6A
7C
5A
BE
BE
AE
B6
DA
7C
ENDCHAR
STARTCHAR Omacron.v
ENCODING 57790
SWIDTH 1000 0
DWIDTH 9 0
BBX 7 9 1 -1
BITMAP
7E
7C
5A
BE
BE
AE
B6
DA
7C
ENDCHAR
STARTCHAR Obreve.v
ENCODING 57791
SWIDTH 1000 0
DWIDTH 9 0
BBX 7 10 1 -1
BITMAP
7E
5C
7C
5A
BE
BE
AE
B6
DA
7C
ENDCHAR
STARTCHAR Ohungarumlaut.v
ENCODING 57792
SWIDTH 1000 0
DWIDTH 9 0
BBX 7 10 1 -1
BITMAP
3E
4A
7C
5A
BE
BE
AE
B6
DA
7C
ENDCHAR
STARTCHAR Racute.v
ENCODING 57793
SWIDTH 1000 0
DWIDTH 9 0
BBX 7 10 1 -1
BITMAP
1C
6C
7C
BA
B4
A4
BE
BE
9A
EC
ENDCHAR
STARTCHAR Rcommaaccent.v
ENCODING 57794
SWIDTH 1000 0
DWIDTH 9 0
BBX 7 11 1 -4
BITMAP
7C
BC
B4
BE
A6
BE
9A
F4
28
38
30
ENDCHAR
STARTCHAR Rcaron.v
ENCODING 57795
SWIDTH 1000 0
DWIDTH 9 0
BBX 7 10 1 -1
BITMAP
7E
4C
7C
BA
B4
A4
BE
BE
9A
EC
ENDCHAR
STARTCHAR Sacute.v
ENCODING 57796
SWIDTH 1000 0
DWIDTH 9 0
BBX 7 10 1 -1
BITMAP
2C
52
7C
5E
BC
BA
E6
5E
BA
FC
ENDCHAR
STARTCHAR Scircumflex.v
ENCODING 57797
SWIDTH 1000 0
DWIDTH 9 0
BBX 7 10 1 -1
BITMAP
3C
4A
7C
5E
BC
BA
E6
5E
BA
FC
ENDCHAR
STARTCHAR Scedilla.v
ENCODING 57798
SWIDTH 1000 0
DWIDTH 9 0
BBX 7 9 1 -2
BITMAP
3E
7E
BC
DA
FE
6E
94
E8
70
ENDCHAR
STARTCHAR Scaron.v
ENCODING 57799
SWIDTH 1000 0
DWIDTH 9 0
BBX 7 10 1 -1
BITMAP
7E
4C
78
5E
BC
BA
E6
5E
BA
FC
ENDCHAR
STARTCHAR Scommaaccent.v
ENCODING 57800
SWIDTH 1000 0
DWIDTH 9 0
BBX 7 11 1 -4
BITMAP
3E
7E
BC
DA
FE
76
8C
F4
28
38
30
ENDCHAR
STARTCHAR Tcommaaccent.v
ENCODING 57801
SWIDTH 1000 0
DWIDTH 9 0
BBX 7 10 1 -3
BITMAP
7E
BE
EC
28
28
24
3C
28
38
30
ENDCHAR
STARTCHAR Tcaron.v
ENCODING 57802
SWIDTH 1000 0
DWIDTH 9 0
BBX 7 10 1 -1
BITMAP
7E
4C
78
BE
EE
EC
28
28
24
38
ENDCHAR
STARTCHAR Ugrave.v
ENCODING 57803
SWIDTH 1000 0
DWIDTH 9 0
BBX 7 10 1 -1
BITMAP
38
54
7C
BE
BE
BE
BE
A6
DA
7C
ENDCHAR
STARTCHAR Uacute.v
ENCODING 57804
SWIDTH 1000 0
DWIDTH 9 0
BBX 7 10 1 -1
BITMAP
2E
52
7C
BE
BE
BE
BE
A6
DA
7C
ENDCHAR
STARTCHAR Ucircumflex.v
ENCODING 57805
SWIDTH 1000 0
DWIDTH 9 0
BBX 7 10 1 -1
BITMAP
3C
4A
7C
BE
BE
BE
BE
A6
DA
7C
ENDCHAR
STARTCHAR Udieresis.v
ENCODING 57806
SWIDTH 1000 0
DWIDTH 9 0
BBX 7 10 1 -1
BITMAP
3E
6A
7C
BE
BE
BE
BE
A6
DA
7C
ENDCHAR
STARTCHAR Utilde.v
ENCODING 57807
SWIDTH 1000 0
DWIDTH 9 0
BBX 7 10 1 -1
BITMAP
34
4C
78
BE
BE
BE
BE
A6
DA
7C
ENDCHAR
STARTCHAR Umacron.v
ENCODING 57808
SWIDTH 1000 0
DWIDTH 9 0
BBX 7 9 1 -1
BITMAP
7E
7C
BE
BE
BE
BE
A6
DA
7C
ENDCHAR
STARTCHAR Ubreve.v
ENCODING 57809
SWIDTH 1000 0
DWIDTH 9 0
BBX 7 10 1 -1
BITMAP
7E
5C
78
BE
BE
BE
BE
A6
DA
7C
ENDCHAR
STARTCHAR Uring.v
ENCODING 57810
SWIDTH 1000 0
DWIDTH 9 0
BBX 7 11 1 -1
BITMAP
3C
6A
5C
78
BE
BE
BE
BE
A6
DA
7C
ENDCHAR
STARTCHAR Uhungarumlaut.v
ENCODING 57811
SWIDTH 1000 0
DWIDTH 9 0
BBX 7 10 1 -1
BITMAP
3E
4E
7C
BE
BE
BE
BE
A6
DA
7C
ENDCHAR
STARTCHAR Uogonek.v
ENCODING 57812
SWIDTH 1000 0
DWIDTH 9 0
BBX 7 10 1 -3
BITMAP
7E
BE
BE
BE
BE
AE
D4
74
38
10
ENDCHAR
STARTCHAR Wcircumflex.v
ENCODING 57813
SWIDTH 1000 0
DWIDTH 9 0
BBX 7 10 1 -1
BITMAP
3C
4A
7C
AA
BA
A6
BA
AE
CA
FC
ENDCHAR
STARTCHAR Wgrave.v
ENCODING 57814
SWIDTH 1000 0
DWIDTH 9 0
BBX 7 10 1 -1
BITMAP
38
54
7C
AA
BA
A6
BA
AE
CA
FC
ENDCHAR
STARTCHAR Wacute.v
ENCODING 57815
SWIDTH 1000 0
DWIDTH 9 0
BBX 7 10 1 -1
BITMAP
2E
52
7C
AA
BA
A6
BA
AE
CA
FC
ENDCHAR
STARTCHAR Wdieresis.v
ENCODING 57816
SWIDTH 1000 0
DWIDTH 9 0
BBX 7 10 1 -1
BITMAP
3E
6A
7C
AA
BA
A6
BA
AE
CA
FC
ENDCHAR
STARTCHAR Yacute.v
ENCODING 57817
SWIDTH 1000 0
DWIDTH 9 0
BBX 7 10 1 -1
BITMAP
2E
52
7C
BE
BE
E6
DC
68
24
38
ENDCHAR
STARTCHAR Ycircumflex.v
ENCODING 57818
SWIDTH 1000 0
DWIDTH 9 0
BBX 7 10 1 -1
BITMAP
3C
4A
7C
BE
BE
E6
DC
68
24
38
ENDCHAR
STARTCHAR Ydieresis.v
ENCODING 57819
SWIDTH 1000 0
DWIDTH 9 0
BBX 7 10 1 -1
BITMAP
3E
6A
7C
BE
BE
E6
DC
68
24
38
ENDCHAR
STARTCHAR Ygrave.v
ENCODING 57820
SWIDTH 1000 0
DWIDTH 9 0
BBX 7 10 1 -1
BITMAP
38
54
7C
BE
BE
E6
DC
68
24
38
ENDCHAR
STARTCHAR Zacute.v
ENCODING 57821
SWIDTH 1000 0
DWIDTH 9 0
BBX 7 10 1 -1
BITMAP
2E
52
7C
BE
F6
EC
58
66
BE
FC
ENDCHAR
STARTCHAR Zdotaccent.v
ENCODING 57822
SWIDTH 1000 0
DWIDTH 9 0
BBX 7 10 1 -1
BITMAP
1C
28
78
BE
F6
EC
58
66
BE
FC
ENDCHAR
STARTCHAR Zcaron.v
ENCODING 57823
SWIDTH 1000 0
DWIDTH 9 0
BBX 7 10 1 -1
BITMAP
3E
4A
7C
BE
F6
EC
58
66
BE
FC
ENDCHAR
STARTCHAR AE.v
ENCODING 57824
SWIDTH 1000 0
DWIDTH 9 0
BBX 7 8 1 -1
BITMAP
3E
7E
7C
BE
BA
BA
96
FC
ENDCHAR
STARTCHAR Eth.v
ENCODING 57825
SWIDTH 1000 0
DWIDTH 9 0
BBX 7 8 1 -1
BITMAP
7E
BE
BE
AE
BE
A6
9A
FC
ENDCHAR
STARTCHAR Oslash.v
ENCODING 57826
SWIDTH 1000 0
DWIDTH 9 0
BBX 7 10 1 -2
BITMAP
06
3C
7E
BE
BE
AE
B6
FA
7C
C0
ENDCHAR
STARTCHAR Thorn.v
ENCODING 57827
SWIDTH 1000 0
DWIDTH 9 0
BBX 7 8 1 -1
BITMAP
70
AE
BE
BE
A6
BA
9C
E0
ENDCHAR
STARTCHAR Dcroat.v
ENCODING 57828
SWIDTH 1000 0
DWIDTH 9 0
BBX 7 8 1 -1
BITMAP
7E
BE
BE
AE
BE
A6
9A
FC
ENDCHAR
STARTCHAR Hbar.v
ENCODING 57829
SWIDTH 1000 0
DWIDTH 9 0
BBX 7 8 1 -1
BITMAP
7E
A6
BE
BE
BE
A6
9A
EC
ENDCHAR
STARTCHAR IJ.v
ENCODING 57830
SWIDTH 1000 0
DWIDTH 9 0
BBX 7 8 1 -1
BITMAP
7E
BE
BE
9E
FE
46
BA
FC
ENDCHAR
STARTCHAR Ldot.v
ENCODING 57831
SWIDTH 1000 0
DWIDTH 9 0
BBX 7 10 1 -3
BITMAP
70
B0
B0
BE
BE
A6
9A
E4
24
38
ENDCHAR
STARTCHAR Lslash.v
ENCODING 57832
SWIDTH 1000 0
DWIDTH 9 0
BBX 7 8 1 -1
BITMAP
70
B0
A8
BE
BE
A6
9A
FC
ENDCHAR
STARTCHAR Eng.v
ENCODING 57833
SWIDTH 1000 0
DWIDTH 9 0
BBX 7 9 1 -2
BITMAP
3C
7E
BE
BE
BE
BE
96
F6
18
ENDCHAR
STARTCHAR OE.v
ENCODING 57834
SWIDTH 1000 0
DWIDTH 9 0
BBX 7 8 1 -1
BITMAP
7E
BE
BA
BE
BA
AA
D6
7C
ENDCHAR
STARTCHAR Tbar.v
ENCODING 57835
SWIDTH 1000 0
DWIDTH 9 0
BBX 7 8 1 -1
BITMAP
7E
BE
EC
5A
6C
68
24
38
ENDCHAR
STARTCHAR Germandbls.v
ENCODING 57836
SWIDTH 1000 0
DWIDTH 9 0
BBX 7 8 1 -1
BITMAP
7C
BC
B4
B6
BE
B6
92
FC
ENDCHAR
STARTCHAR A.salt_v
ENCODING 57837
SWIDTH 1000 0
DWIDTH 9 0
BBX 7 8 1 -1
BITMAP
7E
7E
BE
BE
A6
BE
9A
EC
ENDCHAR
STARTCHAR Agrave.salt_v
ENCODING 57838
SWIDTH 1000 0
DWIDTH 9 0
BBX 7 10 1 -1
BITMAP
38
54
7C
5A
BE
BE
A6
BE
9A
EC
ENDCHAR
STARTCHAR Aacute.salt_v
ENCODING 57839
SWIDTH 1000 0
DWIDTH 9 0
BBX 7 10 1 -1
BITMAP
2C
52
7C
5A
BE
BE
A6
BE
9A
EC
ENDCHAR
STARTCHAR Acircumflex.salt_v
ENCODING 57840
SWIDTH 1000 0
DWIDTH 9 0
BBX 7 10 1 -1
BITMAP
3C
4A
7C
5A
BE
BE
A6
BE
9A
EC
ENDCHAR
STARTCHAR Atilde.salt_v
ENCODING 57841
SWIDTH 1000 0
DWIDTH 9 0
BBX 7 10 1 -1
BITMAP
34
4C
7C
5A
BE
BE
A6
BE
9A
EC
ENDCHAR
STARTCHAR Adieresis.salt_v
ENCODING 57842
SWIDTH 1000 0
DWIDTH 9 0
BBX 7 10 1 -1
BITMAP
3E
6A
7C
5A
BE
BE
A6
BE
9A
EC
ENDCHAR
STARTCHAR Aring.salt_v
ENCODING 57843
SWIDTH 1000 0
DWIDTH 9 0
BBX 7 10 1 -1
BITMAP
3C
6A
6A
5A
BE
BE
A6
BE
9A
EC
ENDCHAR
STARTCHAR Amacron.salt_v
ENCODING 57844
SWIDTH 1000 0
DWIDTH 9 0
BBX 7 9 1 -1
BITMAP
7E
7C
5A
BE
BE
A6
BE
9A
EC
ENDCHAR
STARTCHAR Abreve.salt_v
ENCODING 57845
SWIDTH 1000 0
DWIDTH 9 0
BBX 7 10 1 -1
BITMAP
7E
5C
7C
5A
BE
BE
A6
BE
9A
EC
ENDCHAR
STARTCHAR Aogonek.salt_v
ENCODING 57846
SWIDTH 1000 0
DWIDTH 9 0
BBX 7 10 1 -3
BITMAP
3C
5A
BE
BE
A6
BE
9E
EE
1A
1C
ENDCHAR
STARTCHAR E.salt_v
ENCODING 57847
SWIDTH 1000 0
DWIDTH 9 0
BBX 7 8 1 -1
BITMAP
3E
7E
BC
A2
BC
A2
DE
7C
ENDCHAR
STARTCHAR Egrave.salt_v
ENCODING 57848
SWIDTH 1000 0
DWIDTH 9 0
BBX 7 10 1 -1
BITMAP
38
54
7C
5E
BC
A2
BC
A2
DE
7C
ENDCHAR
STARTCHAR Eacute.salt_v
ENCODING 57849
SWIDTH 1000 0
DWIDTH 9 0
BBX 7 10 1 -1
BITMAP
2C
52
7C
5E
BE
A2
BC
A2
DE
7C
ENDCHAR
STARTCHAR Ecircumflex.salt_v
ENCODING 57850
SWIDTH 1000 0
DWIDTH 9 0
BBX 7 10 1 -1
BITMAP
3C
4A
7C
5E
BC
A2
BC
A2
DE
7C
ENDCHAR
STARTCHAR Edieresis.salt_v
ENCODING 57851
SWIDTH 1000 0
DWIDTH 9 0
BBX 7 10 1 -1
BITMAP
3E
6A
7C
5E
BE
A2
BC
A2
DE
7C
ENDCHAR
STARTCHAR Emacron.salt_v
ENCODING 57852
SWIDTH 1000 0
DWIDTH 9 0
BBX 7 9 1 -1
BITMAP
7E
7C
5E
BC
A2
BC
A2
DE
7C
ENDCHAR
STARTCHAR Ebreve.salt_v
ENCODING 57853
SWIDTH 1000 0
DWIDTH 9 0
BBX 7 10 1 -1
BITMAP
7E
5C
78
5E
BC
A2
BC
A2
DE
7C
ENDCHAR
STARTCHAR Edotaccent.salt_v
ENCODING 57854
SWIDTH 1000 0
DWIDTH 9 0
BBX 7 10 1 -1
BITMAP
1C
28
38
5E
BC
A2
BC
A2
DE
7C
ENDCHAR
STARTCHAR Eogonek.salt_v
ENCODING 57855
SWIDTH 1000 0
DWIDTH 9 0
BBX 7 9 1 -2
BITMAP
3E
7E
BC
A2
BC
B2
EE
76
1E
ENDCHAR
STARTCHAR Ecaron.salt_v
ENCODING 57856
SWIDTH 1000 0
DWIDTH 9 0
BBX 7 10 1 -1
BITMAP
7E
4C
78
5E
BC
A2
BC
A2
DE
7C
ENDCHAR
STARTCHAR I.salt_v
ENCODING 57857
SWIDTH 1000 0
DWIDTH 9 0
BBX 3 8 3 -1
BITMAP
E0
A0
A0
A0
A0
A0
A0
E0
ENDCHAR
STARTCHAR I_I.salt_v
ENCODING 57858
SWIDTH 1000 0
DWIDTH 9 0
BBX 7 8 1 -1
BITMAP
7E
BE
BE
BE
BE
BE
9A
FC
ENDCHAR
STARTCHAR Igrave.salt_v
ENCODING 57859
SWIDTH 1000 0
DWIDTH 9 0
BBX 5 10 2 -1
BITMAP
70
A8
F8
50
50
50
50
50
48
70
ENDCHAR
STARTCHAR Iacute.salt_v
ENCODING 57860
SWIDTH 1000 0
DWIDTH 9 0
BBX 5 10 2 -1
BITMAP
58
A8
F0
50
50
50
50
50
48
70
ENDCHAR
STARTCHAR Icircumflex.salt_v
ENCODING 57861
SWIDTH 1000 0
DWIDTH 9 0
BBX 5 10 2 -1
BITMAP
78
98
F8
50
50
50
50
50
48
70
ENDCHAR
STARTCHAR Idieresis.salt_v
ENCODING 57862
SWIDTH 1000 0
DWIDTH 9 0
BBX 5 10 2 -1
BITMAP
78
D8
F8
50
50
50
50
50
48
70
ENDCHAR
STARTCHAR Itilde.salt_v
ENCODING 57863
SWIDTH 1000 0
DWIDTH 9 0
BBX 5 10 2 -1
BITMAP
68
98
F0
50
50
50
50
50
48
70
ENDCHAR
STARTCHAR Imacron.salt_v
ENCODING 57864
SWIDTH 1000 0
DWIDTH 9 0
BBX 5 9 2 -1
BITMAP
F8
F8
50
50
50
50
50
48
70
ENDCHAR
STARTCHAR Ibreve.salt_v
ENCODING 57865
SWIDTH 1000 0
DWIDTH 9 0
BBX 5 10 2 -1
BITMAP
F8
B8
F0
50
50
50
50
50
48
70
ENDCHAR
STARTCHAR Iogonek.salt_v
ENCODING 57866
SWIDTH 1000 0
DWIDTH 9 0
BBX 3 9 3 -3
BITMAP
E0
A0
A0
A0
A0
E0
E0
A0
C0
ENDCHAR
STARTCHAR Idotaccent.salt_v
ENCODING 57867
SWIDTH 1000 0
DWIDTH 9 0
BBX 3 10 3 -1
BITMAP
60
A0
E0
A0
A0
A0
A0
A0
A0
E0
ENDCHAR
STARTCHAR L.salt_v
ENCODING 57868
SWIDTH 1000 0
DWIDTH 9 0
BBX 7 8 1 -1
BITMAP
70
B0
B0
B0
B0
AE
9E
FC
ENDCHAR
STARTCHAR Lacute.salt_v
ENCODING 57869
SWIDTH 1000 0
DWIDTH 9 0
BBX 7 10 1 -1
BITMAP
5C
A4
F8
B0
B0
B0
B0
AE
9E
FC
ENDCHAR
STARTCHAR Lcommaaccent.salt_v
ENCODING 57870
SWIDTH 1000 0
DWIDTH 9 0
BBX 7 11 1 -4
BITMAP
70
B0
B0
B0
B8
B6
8A
F4
28
38
30
ENDCHAR
STARTCHAR Lcaron.salt_v
ENCODING 57871
SWIDTH 1000 0
DWIDTH 9 0
BBX 8 8 1 -1
BITMAP
77
BA
BB
BC
B0
AE
9E
FC
ENDCHAR
STARTCHAR Ldot.salt_v
ENCODING 57872
SWIDTH 1000 0
DWIDTH 9 0
BBX 7 10 1 -3
BITMAP
70
B0
B0
B0
B8
A6
9A
E4
68
70
ENDCHAR
STARTCHAR Lslash.salt_v
ENCODING 57873
SWIDTH 1000 0
DWIDTH 9 0
BBX 7 8 1 -1
BITMAP
70
B0
A8
A8
B0
AE
9E
FC
ENDCHAR
STARTCHAR L.salt_s_v
ENCODING 57874
SWIDTH 1000 0
DWIDTH 9 0
BBX 7 7 1 -1
BITMAP
F0
B0
B0
B0
AE
9E
FC
ENDCHAR
STARTCHAR M.salt_v
ENCODING 57875
SWIDTH 1000 0
DWIDTH 9 0
BBX 7 8 1 -1
BITMAP
7E
F6
EE
EE
EE
EE
A6
FE
ENDCHAR
STARTCHAR N.salt_v
ENCODING 57876
SWIDTH 1000 0
DWIDTH 9 0
BBX 7 8 1 -1
BITMAP
7E
7E
BE
BE
BE
BE
9A
FC
ENDCHAR
STARTCHAR Ntilde.salt_v
ENCODING 57877
SWIDTH 1000 0
DWIDTH 9 0
BBX 7 10 1 -1
BITMAP
34
4C
7C
5A
BE
BE
BE
BE
9A
FC
ENDCHAR
STARTCHAR Nacute.salt_v
ENCODING 57878
SWIDTH 1000 0
DWIDTH 9 0
BBX 7 10 1 -1
BITMAP
2C
52
7C
5A
BE
BE
BE
BE
9A
FC
ENDCHAR
STARTCHAR Ncommaaccent.salt_v
ENCODING 57879
SWIDTH 1000 0
DWIDTH 9 0
BBX 7 10 1 -3
BITMAP
3E
7E
BE
BE
BE
9A
F4
28
38
30
ENDCHAR
STARTCHAR Ncaron.salt_v
ENCODING 57880
SWIDTH 1000 0
DWIDTH 9 0
BBX 7 10 1 -1
BITMAP
7E
4C
7C
5A
BE
BE
BE
BE
9A
FC
ENDCHAR
STARTCHAR W.salt_v
ENCODING 57881
SWIDTH 1000 0
DWIDTH 9 0
BBX 7 8 1 -1
BITMAP
FE
EE
EE
EE
EE
CA
B6
FC
ENDCHAR
STARTCHAR Wcircumflex.salt_v
ENCODING 57882
SWIDTH 1000 0
DWIDTH 9 0
BBX 7 10 1 -1
BITMAP
3C
4A
7C
EE
EE
EE
EE
CA
B6
FC
ENDCHAR
STARTCHAR Wgrave.salt_v
ENCODING 57883
SWIDTH 1000 0
DWIDTH 9 0
BBX 7 10 1 -1
BITMAP
38
54
7C
EE
EE
EE
EE
CA
B6
FC
ENDCHAR
STARTCHAR Wacute.salt_v
ENCODING 57884
SWIDTH 1000 0
DWIDTH 9 0
BBX 7 10 1 -1
BITMAP
2C
52
7C
EE
EE
EE
EE
CA
B6
FC
ENDCHAR
STARTCHAR Wdieresis.salt_v
ENCODING 57885
SWIDTH 1000 0
DWIDTH 9 0
BBX 7 10 1 -1
BITMAP
3E
6A
7C
EE
EE
EE
EE
CA
B6
FC
ENDCHAR
STARTCHAR X.salt_v
ENCODING 57886
SWIDTH 1100 0
DWIDTH 10 0
BBX 6 8 2 -1
BITMAP
EC
BC
FC
BC
C4
D4
94
FC
ENDCHAR
STARTCHAR Y.salt_v
ENCODING 57887
SWIDTH 1000 0
DWIDTH 9 0
BBX 7 8 1 -1
BITMAP
7E
BE
BE
A6
DA
6C
24
38
ENDCHAR
STARTCHAR Yacute.salt_v
ENCODING 57888
SWIDTH 1000 0
DWIDTH 9 0
BBX 7 10 1 -1
BITMAP
2C
52
7C
BE
BE
A6
DA
EC
24
38
ENDCHAR
STARTCHAR Ycircumflex.salt_v
ENCODING 57889
SWIDTH 1000 0
DWIDTH 9 0
BBX 7 10 1 -1
BITMAP
3C
4A
7C
BE
BE
A6
DA
EC
24
38
ENDCHAR
STARTCHAR Ydieresis.salt_v
ENCODING 57890
SWIDTH 1000 0
DWIDTH 9 0
BBX 7 10 1 -1
BITMAP
3E
6A
7C
BE
BE
A6
DA
EC
24
38
ENDCHAR
STARTCHAR Ygrave.salt_v
ENCODING 57891
SWIDTH 1000 0
DWIDTH 9 0
BBX 7 10 1 -1
BITMAP
38
54
7C
BE
BE
A6
DA
EC
24
38
ENDCHAR
STARTCHAR AE.salt_v
ENCODING 57892
SWIDTH 1000 0
DWIDTH 9 0
BBX 7 8 1 -1
BITMAP
7E
BE
BA
BE
AA
BA
96
FC
ENDCHAR
STARTCHAR IJ.salt_v
ENCODING 57893
SWIDTH 1000 0
DWIDTH 9 0
BBX 7 14 1 -4
BITMAP
38
28
28
28
28
24
38
0E
1E
7E
BE
A6
DA
7C
ENDCHAR
STARTCHAR IJ.stack_v
ENCODING 57894
SWIDTH 1000 0
DWIDTH 9 0
BBX 7 15 1 -5
BITMAP
7E
CA
EC
28
4E
B6
FC
0A
1E
7E
9E
BE
FE
E4
78
ENDCHAR
STARTCHAR commaaccent.v
ENCODING 57895
SWIDTH 1000 0
DWIDTH 9 0
BBX 3 4 3 -4
BITMAP
60
A0
E0
C0
ENDCHAR
STARTCHAR hyphen.v
ENCODING 57896
SWIDTH 1000 0
DWIDTH 9 0
BBX 3 4 3 1
BITMAP
E0
A0
A0
E0
ENDCHAR
STARTCHAR endash.v
ENCODING 57897
SWIDTH 1000 0
DWIDTH 9 0
BBX 3 7 3 -1
BITMAP
E0
A0
A0
A0
A0
E0
C0
ENDCHAR
STARTCHAR emdash.v
ENCODING 57898
SWIDTH 1000 0
DWIDTH 9 0
BBX 3 10 3 -2
BITMAP
E0
A0
A0
A0
A0
A0
A0
A0
A0
E0
ENDCHAR
STARTCHAR parenleft.v
ENCODING 57899
SWIDTH 1000 0
DWIDTH 9 0
BBX 9 4 0 1
BITMAP
7F80
BF80
9E80
E380
ENDCHAR
STARTCHAR parenright.v
ENCODING 57900
SWIDTH 1000 0
DWIDTH 9 0
BBX 9 4 0 1
BITMAP
E380
BC80
9F80
FF00
ENDCHAR
STARTCHAR bracketleft.v
ENCODING 57901
SWIDTH 1000 0
DWIDTH 9 0
BBX 9 4 0 1
BITMAP
FF80
FF80
9E80
E380
ENDCHAR
STARTCHAR bracketright.v
ENCODING 57902
SWIDTH 1000 0
DWIDTH 9 0
BBX 9 4 0 1
BITMAP
E380
DC80
BF80
FF80
ENDCHAR
STARTCHAR braceleft.v
ENCODING 57903
SWIDTH 1000 0
DWIDTH 9 0
BBX 9 5 0 0
BITMAP
3F80
7B80
C480
FF80
C300
ENDCHAR
STARTCHAR braceright.v
ENCODING 57904
SWIDTH 1000 0
DWIDTH 9 0
BBX 9 5 0 0
BITMAP
EB80
B780
C880
FF00
1800
ENDCHAR
STARTCHAR quoteleft.v
ENCODING 57905
SWIDTH 1000 0
DWIDTH 9 0
BBX 3 5 3 1
BITMAP
60
E0
E0
A0
E0
ENDCHAR
STARTCHAR quoteright.v
ENCODING 57906
SWIDTH 1000 0
DWIDTH 9 0
BBX 3 5 3 0
BITMAP
E0
E0
E0
E0
80
ENDCHAR
STARTCHAR quotedblleft.v
ENCODING 57907
SWIDTH 1000 0
DWIDTH 9 0
BBX 7 5 1 1
BITMAP
7E
B4
AE
8A
FC
ENDCHAR
STARTCHAR quotedblright.v
ENCODING 57908
SWIDTH 1000 0
DWIDTH 9 0
BBX 7 5 1 0
BITMAP
7E
AE
EE
FC
D8
ENDCHAR
STARTCHAR quotesinglbase.v
ENCODING 57909
SWIDTH 1000 0
DWIDTH 9 0
BBX 3 5 3 0
BITMAP
60
E0
E0
E0
C0
ENDCHAR
STARTCHAR quotedblbase.v
ENCODING 57910
SWIDTH 1000 0
DWIDTH 9 0
BBX 7 5 1 0
BITMAP
7E
AE
EE
FC
D8
ENDCHAR
STARTCHAR guilsinglleft.v
ENCODING 57911
SWIDTH 1000 0
DWIDTH 9 0
BBX 5 6 2 0
BITMAP
30
58
A8
D8
B8
F0
ENDCHAR
STARTCHAR guilsinglright.v
ENCODING 57912
SWIDTH 1000 0
DWIDTH 9 0
BBX 5 5 2 0
BITMAP
F8
A8
B8
C8
70
ENDCHAR
STARTCHAR guillemotleft.v
ENCODING 57913
SWIDTH 1000 0
DWIDTH 9 0
BBX 5 8 2 -1
BITMAP
78
78
D8
F8
D8
A8
98
F8
ENDCHAR
STARTCHAR guillemotright.v
ENCODING 57914
SWIDTH 1000 0
DWIDTH 9 0
BBX 5 8 2 -1
BITMAP
F8
A8
B8
F0
98
A8
D8
F0
ENDCHAR
STARTCHAR period.v
ENCODING 57915
SWIDTH 1000 0
DWIDTH 9 0
BBX 3 4 3 1
BITMAP
60
A0
A0
E0
ENDCHAR
STARTCHAR comma.v
ENCODING 57916
SWIDTH 1000 0
DWIDTH 9 0
BBX 3 5 3 0
BITMAP
60
E0
E0
E0
C0
ENDCHAR
STARTCHAR ellipsis.v
ENCODING 57917
SWIDTH 1000 0
DWIDTH 9 0
BBX 11 4 -1 1
BITMAP
36E0
EB60
C920
FFC0
ENDCHAR
STARTCHAR exclamdown.v
ENCODING 57918
SWIDTH 1000 0
DWIDTH 9 0
BBX 3 8 3 -1
BITMAP
E0
A0
E0
A0
A0
A0
A0
E0
ENDCHAR
STARTCHAR questiondown.v
ENCODING 57919
SWIDTH 1000 0
DWIDTH 9 0
BBX 7 8 1 -1
BITMAP
1C
3C
3C
5C
64
DE
C2
7C
ENDCHAR
STARTCHAR dagger.v
ENCODING 57920
SWIDTH 1000 0
DWIDTH 9 0
BBX 7 8 1 -1
BITMAP
3C
6A
BE
AE
EC
28
24
38
ENDCHAR
STARTCHAR daggerdbl.v
ENCODING 57921
SWIDTH 1000 0
DWIDTH 9 0
BBX 7 8 1 -1
BITMAP
7C
BE
EE
6A
BE
8A
E4
38
ENDCHAR
STARTCHAR perthousand.v
ENCODING 57922
SWIDTH 1000 0
DWIDTH 9 0
BBX 9 8 0 -1
BITMAP
7F00
5E00
DC00
ED00
7A80
3580
5280
FF00
ENDCHAR
STARTCHAR ampersand.salt_v
ENCODING 57923
SWIDTH 1000 0
DWIDTH 9 0
BBX 7 10 1 -2
BITMAP
1C
2A
56
6C
52
BC
A2
DE
E4
38
ENDCHAR
STARTCHAR quoteleft.salt_v
ENCODING 57924
SWIDTH 1000 0
DWIDTH 9 0
BBX 3 4 1 1
BITMAP
60
E0
A0
C0
ENDCHAR
STARTCHAR quoteright.salt_v
ENCODING 57925
SWIDTH 1000 0
DWIDTH 9 0
BBX 3 4 1 1
BITMAP
60
A0
E0
C0
ENDCHAR
STARTCHAR A.s_v
ENCODING 57926
SWIDTH 1000 0
DWIDTH 9 0
BBX 7 7 1 -1
BITMAP
7C
6A
6E
BE
A6
9A
EC
ENDCHAR
STARTCHAR C.s_v
ENCODING 57927
SWIDTH 1000 0
DWIDTH 9 0
BBX 7 7 1 -1
BITMAP
7E
AE
B8
B0
AE
DE
7C
ENDCHAR
STARTCHAR D.s_v
ENCODING 57928
SWIDTH 1000 0
DWIDTH 9 0
BBX 7 7 1 -1
BITMAP
FE
BE
BE
BE
A6
9A
FC
ENDCHAR
STARTCHAR E.s_v
ENCODING 57929
SWIDTH 1000 0
DWIDTH 9 0
BBX 7 7 1 -1
BITMAP
FE
BE
A2
BC
A2
9E
FC
ENDCHAR
STARTCHAR G.s_v
ENCODING 57930
SWIDTH 1000 0
DWIDTH 9 0
BBX 7 7 1 -1
BITMAP
7E
AC
B8
AE
B6
DA
7C
ENDCHAR
STARTCHAR H.s_v
ENCODING 57931
SWIDTH 1000 0
DWIDTH 9 0
BBX 7 7 1 -1
BITMAP
FE
BE
BE
A6
BE
9A
FC
ENDCHAR
STARTCHAR I.s_v
ENCODING 57932
SWIDTH 1000 0
DWIDTH 9 0
BBX 7 7 1 -1
BITMAP
FE
EE
E8
28
4E
B6
FC
ENDCHAR
STARTCHAR J.s_v
ENCODING 57933
SWIDTH 1000 0
DWIDTH 9 0
BBX 7 7 1 -1
BITMAP
0E
1E
7E
BE
A6
DA
7C
ENDCHAR
STARTCHAR K.s_v
ENCODING 57934
SWIDTH 1000 0
DWIDTH 9 0
BBX 7 7 1 -1
BITMAP
FE
BC
BA
A6
BE
9A
FC
ENDCHAR
STARTCHAR L.s_v
ENCODING 57935
SWIDTH 1000 0
DWIDTH 9 0
BBX 7 7 1 -1
BITMAP
F0
B0
BE
BE
A6
9A
FC
ENDCHAR
STARTCHAR N.s_v
ENCODING 57936
SWIDTH 1000 0
DWIDTH 9 0
BBX 7 7 1 -1
BITMAP
FE
BE
AE
B6
BE
9A
EC
ENDCHAR
STARTCHAR O.s_v
ENCODING 57937
SWIDTH 1000 0
DWIDTH 9 0
BBX 7 8 1 -1
BITMAP
3C
5A
BE
BE
AE
B6
DA
7C
ENDCHAR
STARTCHAR R.s_v
ENCODING 57938
SWIDTH 1000 0
DWIDTH 9 0
BBX 7 7 1 -1
BITMAP
FE
B4
A4
BE
BE
9A
EC
ENDCHAR
STARTCHAR S.s_v
ENCODING 57939
SWIDTH 1000 0
DWIDTH 9 0
BBX 7 7 1 -1
BITMAP
7E
BC
BA
E6
5E
BA
FC
ENDCHAR
STARTCHAR T.s_v
ENCODING 57940
SWIDTH 1000 0
DWIDTH 9 0
BBX 7 7 1 -1
BITMAP
FE
EE
EC
28
28
24
38
ENDCHAR
STARTCHAR U.s_v
ENCODING 57941
SWIDTH 1000 0
DWIDTH 9 0
BBX 7 7 1 -1
BITMAP
FE
BE
BE
BE
A6
DA
7C
ENDCHAR
STARTCHAR W.s_v
ENCODING 57942
SWIDTH 1000 0
DWIDTH 9 0
BBX 7 7 1 -1
BITMAP
EE
BA
A6
BA
AE
CA
FC
ENDCHAR
STARTCHAR Y.s_v
ENCODING 57943
SWIDTH 1000 0
DWIDTH 9 0
BBX 7 7 1 -1
BITMAP
FE
BE
E6
DC
68
24
38
ENDCHAR
STARTCHAR Z.s_v
ENCODING 57944
SWIDTH 1000 0
DWIDTH 9 0
BBX 7 7 1 -1
BITMAP
FE
F6
EC
58
66
BE
FC
ENDCHAR
STARTCHAR A.salt_s_v
ENCODING 57945
SWIDTH 1000 0
DWIDTH 9 0
BBX 7 8 1 -1
BITMAP
3C
5A
BE
BE
A6
BE
9A
EC
ENDCHAR
STARTCHAR E.salt_s_v
ENCODING 57946
SWIDTH 1000 0
DWIDTH 9 0
BBX 7 7 1 -1
BITMAP
7E
BE
A2
BC
A2
DE
7C
ENDCHAR
STARTCHAR I.salt_s_v
ENCODING 57947
SWIDTH 1000 0
DWIDTH 9 0
BBX 3 7 3 -1
BITMAP
E0
A0
A0
A0
A0
A0
E0
ENDCHAR
STARTCHAR N.salt_s_v
ENCODING 57948
SWIDTH 1000 0
DWIDTH 9 0
BBX 7 8 1 -1
BITMAP
3C
5A
BE
BE
BE
BE
9A
FC
ENDCHAR
STARTCHAR W.salt_s_v
ENCODING 57949
SWIDTH 1000 0
DWIDTH 9 0
BBX 7 7 1 -1
BITMAP
FE
EE
EE
EE
CA
B6
FC
ENDCHAR
STARTCHAR Y.salt_s_v
ENCODING 57950
SWIDTH 1000 0
DWIDTH 9 0
BBX 7 7 1 -1
BITMAP
FE
BE
A6
DA
EC
24
38
ENDCHAR
STARTCHAR uniF6C3
ENCODING 63171
SWIDTH 600 0
DWIDTH 5 0
BBX 3 4 1 -4
BITMAP
60
E0
A0
C0
ENDCHAR
STARTCHAR fi
ENCODING 64257
SWIDTH 1423 0
DWIDTH 13 0
BBX 13 8 0 -1
BITMAP
7FF8
DD78
EDB0
DDA0
E4A0
E8B0
D178
E1F0
ENDCHAR
STARTCHAR fl
ENCODING 64258
SWIDTH 1513 0
DWIDTH 14 0
BBX 13 8 0 -1
BITMAP
7FE0
DD40
ED40
DD58
E568
E968
D178
E1F8
ENDCHAR
STARTCHAR exclam.v
ENCODING 65281
SWIDTH 1000 0
DWIDTH 9 0
BBX 3 8 3 -1
BITMAP
E0
A0
A0
A0
E0
A0
A0
C0
ENDCHAR
STARTCHAR quotedbl.v
ENCODING 65282
SWIDTH 1000 0
DWIDTH 9 0
BBX 7 5 1 0
BITMAP
7E
EE
EE
CA
FC
ENDCHAR
STARTCHAR percent.v
ENCODING 65285
SWIDTH 1000 0
DWIDTH 9 0
BBX 7 8 1 -1
BITMAP
76
EA
FC
CC
FA
76
52
FC
ENDCHAR
STARTCHAR ampersand.v
ENCODING 65286
SWIDTH 1000 0
DWIDTH 9 0
BBX 7 8 1 -1
BITMAP
3C
5C
68
5E
BE
A6
DA
FC
ENDCHAR
STARTCHAR quotesingle.v
ENCODING 65287
SWIDTH 1000 0
DWIDTH 9 0
BBX 3 5 3 0
BITMAP
E0
A0
A0
A0
E0
ENDCHAR
STARTCHAR asterisk.v
ENCODING 65290
SWIDTH 1000 0
DWIDTH 9 0
BBX 7 7 1 -1
BITMAP
1C
76
B6
FC
4A
7C
30
ENDCHAR
STARTCHAR zero.v
ENCODING 65296
SWIDTH 1000 0
DWIDTH 9 0
BBX 7 8 1 -1
BITMAP
3E
7E
BE
BE
BE
A6
DA
7C
ENDCHAR
STARTCHAR one.v
ENCODING 65297
SWIDTH 1000 0
DWIDTH 9 0
BBX 7 8 1 -1
BITMAP
7C
D8
E8
28
28
4E
96
FC
ENDCHAR
STARTCHAR two.v
ENCODING 65298
SWIDTH 1000 0
DWIDTH 9 0
BBX 7 8 1 -1
BITMAP
7E
FE
FE
4A
BC
A2
9E
FC
ENDCHAR
STARTCHAR three.v
ENCODING 65299
SWIDTH 1000 0
DWIDTH 9 0
BBX 7 8 1 -1
BITMAP
7C
BC
F4
4A
7E
46
BA
FC
ENDCHAR
STARTCHAR four.v
ENCODING 65300
SWIDTH 1000 0
DWIDTH 9 0
BBX 7 8 1 -1
BITMAP
7E
BE
BE
A6
9E
FE
7A
1C
ENDCHAR
STARTCHAR five.v
ENCODING 65301
SWIDTH 1000 0
DWIDTH 9 0
BBX 7 8 1 -1
BITMAP
7E
BE
AC
BA
FE
86
BA
FC
ENDCHAR
STARTCHAR six.v
ENCODING 65302
SWIDTH 1000 0
DWIDTH 9 0
BBX 7 8 1 -1
BITMAP
3E
7A
BC
BA
BE
A6
DA
7C
ENDCHAR
STARTCHAR seven.v
ENCODING 65303
SWIDTH 1000 0
DWIDTH 9 0
BBX 7 8 1 -1
BITMAP
7E
BE
FE
2E
52
5C
48
70
ENDCHAR
STARTCHAR eight.v
ENCODING 65304
SWIDTH 1000 0
DWIDTH 9 0
BBX 7 8 1 -1
BITMAP
3E
66
EC
5A
BE
AE
D2
FC
ENDCHAR
STARTCHAR nine.v
ENCODING 65305
SWIDTH 1000 0
DWIDTH 9 0
BBX 7 8 1 -1
BITMAP
7E
66
BE
A6
FE
46
5A
7C
ENDCHAR
STARTCHAR colon.v
ENCODING 65306
SWIDTH 1000 0
DWIDTH 9 0
BBX 3 8 3 -1
BITMAP
60
A0
A0
A0
E0
A0
A0
E0
ENDCHAR
STARTCHAR semicolon.v
ENCODING 65307
SWIDTH 1000 0
DWIDTH 9 0
BBX 3 8 3 -1
BITMAP
E0
A0
A0
E0
E0
A0
E0
C0
ENDCHAR
STARTCHAR question.v
ENCODING 65311
SWIDTH 1000 0
DWIDTH 9 0
BBX 7 8 1 -1
BITMAP
7E
FA
FE
5A
6C
58
48
70
ENDCHAR
STARTCHAR A.v
ENCODING 65313
SWIDTH 1000 0
DWIDTH 9 0
BBX 7 8 1 -1
BITMAP
3C
5A
6A
BE
BE
BE
9A
EC
ENDCHAR
STARTCHAR B.v
ENCODING 65314
SWIDTH 1000 0
DWIDTH 9 0
BBX 7 8 1 -1
BITMAP
7C
BC
B4
AA
BE
A6
9A
FC
ENDCHAR
STARTCHAR C.v
ENCODING 65315
SWIDTH 1000 0
DWIDTH 9 0
BBX 7 8 1 -1
BITMAP
3E
7E
BC
A0
B0
AE
DE
7C
ENDCHAR
STARTCHAR D.v
ENCODING 65316
SWIDTH 1000 0
DWIDTH 9 0
BBX 7 8 1 -1
BITMAP
7E
BE
BE
BE
BE
A6
9A
FC
ENDCHAR
STARTCHAR E.v
ENCODING 65317
SWIDTH 1000 0
DWIDTH 9 0
BBX 7 8 1 -1
BITMAP
7E
BE
BC
A2
BC
A2
9E
FC
ENDCHAR
STARTCHAR F.v
ENCODING 65318
SWIDTH 1000 0
DWIDTH 9 0
BBX 7 8 1 -1
BITMAP
7E
BE
BC
BA
A2
BC
90
E0
ENDCHAR
STARTCHAR G.v
ENCODING 65319
SWIDTH 1000 0
DWIDTH 9 0
BBX 7 8 1 -1
BITMAP
3E
7A
BC
AA
BE
A6
DA
7C
ENDCHAR
STARTCHAR H.v
ENCODING 65320
SWIDTH 1000 0
DWIDTH 9 0
BBX 7 8 1 -1
BITMAP
7E
BE
BE
BE
A6
BE
9A
FC
ENDCHAR
STARTCHAR I.v
ENCODING 65321
SWIDTH 1000 0
DWIDTH 9 0
BBX 7 8 1 -1
BITMAP
7E
BE
EC
28
28
4E
B6
FC
ENDCHAR
STARTCHAR J.v
ENCODING 65322
SWIDTH 1000 0
DWIDTH 9 0
BBX 7 8 1 -1
BITMAP
0E
1E
1E
7E
BE
A6
DA
7C
ENDCHAR
STARTCHAR K.v
ENCODING 65323
SWIDTH 1000 0
DWIDTH 9 0
BBX 7 8 1 -1
BITMAP
7E
B4
BC
BA
A6
BE
9A
EC
ENDCHAR
STARTCHAR L.v
ENCODING 65324
SWIDTH 1000 0
DWIDTH 9 0
BBX 7 8 1 -1
BITMAP
70
B0
B0
BE
BE
A6
9A
FC
ENDCHAR
STARTCHAR M.v
ENCODING 65325
SWIDTH 1000 0
DWIDTH 9 0
BBX 7 8 1 -1
BITMAP
7E
AE
AE
B6
AE
BE
9A
EC
ENDCHAR
STARTCHAR N.v
ENCODING 65326
SWIDTH 1000 0
DWIDTH 9 0
BBX 7 8 1 -1
BITMAP
7E
AE
BE
AE
B6
BE
9A
EC
ENDCHAR
STARTCHAR O.v
ENCODING 65327
SWIDTH 1000 0
DWIDTH 9 0
BBX 7 8 1 -1
BITMAP
3E
7E
BE
AE
AE
B6
DA
7C
ENDCHAR
STARTCHAR P.v
ENCODING 65328
SWIDTH 1000 0
DWIDTH 9 0
BBX 7 8 1 -1
BITMAP
7E
BE
BE
A6
BA
BC
90
E0
ENDCHAR
STARTCHAR Q.v
ENCODING 65329
SWIDTH 1000 0
DWIDTH 9 0
BBX 7 9 1 -2
BITMAP
3E
7E
BE
AE
AE
B6
DA
64
38
ENDCHAR
STARTCHAR R.v
ENCODING 65330
SWIDTH 1000 0
DWIDTH 9 0
BBX 7 8 1 -1
BITMAP
7C
BC
B4
BC
A6
BE
9A
EC
ENDCHAR
STARTCHAR S.v
ENCODING 65331
SWIDTH 1000 0
DWIDTH 9 0
BBX 7 8 1 -1
BITMAP
3E
7E
BC
92
FE
46
BA
FC
ENDCHAR
STARTCHAR T.v
ENCODING 65332
SWIDTH 1000 0
DWIDTH 9 0
BBX 7 8 1 -1
BITMAP
7E
BE
EC
28
28
28
24
38
ENDCHAR
STARTCHAR U.v
ENCODING 65333
SWIDTH 1000 0
DWIDTH 9 0
BBX 7 8 1 -1
BITMAP
7E
BE
BE
BE
BE
A6
DA
7C
ENDCHAR
STARTCHAR V.v
ENCODING 65334
SWIDTH 1000 0
DWIDTH 9 0
BBX 7 8 1 -1
BITMAP
7E
BE
BE
BE
EA
D4
4C
78
ENDCHAR
STARTCHAR W.v
ENCODING 65335
SWIDTH 1000 0
DWIDTH 9 0
BBX 7 8 1 -1
BITMAP
76
AA
BA
A6
BA
AE
CA
FC
ENDCHAR
STARTCHAR X.v
ENCODING 65336
SWIDTH 1100 0
DWIDTH 10 0
BBX 6 8 2 -1
BITMAP
EC
D4
AC
D4
AC
D4
94
FC
ENDCHAR
STARTCHAR Y.v
ENCODING 65337
SWIDTH 1000 0
DWIDTH 9 0
BBX 7 8 1 -1
BITMAP
7E
BE
BE
E6
DC
68
24
38
ENDCHAR
STARTCHAR Z.v
ENCODING 65338
SWIDTH 1000 0
DWIDTH 9 0
BBX 7 8 1 -1
BITMAP
7E
BE
F6
2C
58
66
BE
FC
ENDCHAR
STARTCHAR uni2B24.salt_v
ENCODING 65339
SWIDTH 1280 0
DWIDTH 12 0
BBX 10 10 1 -2
BITMAP
7F80
FF80
FFC0
FFC0
FFC0
FFC0
FFC0
FF80
7F80
7F00
ENDCHAR
STARTCHAR uni25DD.curve_v
ENCODING 65340
SWIDTH 1280 0
DWIDTH 12 0
BBX 10 10 1 -2
BITMAP
7FC0
FFC0
FFC0
FFC0
FFC0
FFC0
FFC0
FFC0
FFC0
FFC0
ENDCHAR
STARTCHAR uni2B1B.trapezoid_e_v
ENCODING 65341
SWIDTH 1280 0
DWIDTH 12 0
BBX 10 11 1 -2
BITMAP
F800
FF80
FFC0
FFC0
FFC0
FFC0
FFC0
FFC0
FFC0
FFC0
FFC0
ENDCHAR
STARTCHAR uni2B1B.trapezoid_w_v
ENCODING 65342
SWIDTH 1280 0
DWIDTH 12 0
BBX 10 11 1 -3
BITMAP
FFC0
FFC0
FFC0
FFC0
FFC0
FFC0
FFC0
FFC0
FFC0
FC00
8000
ENDCHAR
STARTCHAR .notdef
ENCODING -1
SWIDTH 1100 0
DWIDTH 10 0
BBX 8 9 1 -2
BITMAP
FF
83
83
83
83
83
83
FF
FE
ENDCHAR
STARTCHAR one.sups
ENCODING -1
SWIDTH 557 0
DWIDTH 5 0
BBX 5 6 0 1
BITMAP
70
D0
50
58
B8
F0
ENDCHAR
STARTCHAR two.sups
ENCODING -1
SWIDTH 585 0
DWIDTH 5 0
BBX 5 6 0 1
BITMAP
78
E8
58
B8
B8
F0
ENDCHAR
STARTCHAR three.sups
ENCODING -1
SWIDTH 584 0
DWIDTH 5 0
BBX 5 6 0 1
BITMAP
78
F8
58
78
78
F0
ENDCHAR
STARTCHAR four.sups
ENCODING -1
SWIDTH 620 0
DWIDTH 6 0
BBX 5 6 0 1
BITMAP
78
B8
B8
B8
F8
38
ENDCHAR
ENDFONT
